<svg width="236" height="74" viewBox="0 0 236 74" fill="none" xmlns="http://www.w3.org/2000/svg">
<g clip-path="url(#clip0_5_692)">
<path d="M129.732 16.0831L116.243 25.3869V42.2087C116.243 44.5868 116.042 46.4295 115.638 47.7376C115.235 49.045 114.044 50.5312 112.065 52.195C110.086 53.8595 107.311 55.1965 103.738 56.2073C100.165 57.2181 96.6199 57.7232 93.1021 57.7232C88.5582 57.7232 85.1046 57.4252 82.7411 56.8314C80.3777 56.2369 78.3256 55.3754 76.5849 54.2455C74.8443 53.1164 73.4062 51.6892 72.2701 49.9656C71.1339 48.2419 70.5658 46.3888 70.5658 44.4071C70.5658 43.1789 70.7044 42.1089 70.983 41.1971C71.2601 40.2854 71.7333 39.2746 72.4013 38.1646L86.1255 36.1992C86.0519 36.5157 85.9607 37.02 85.8506 37.7128C85.7405 38.4057 85.6121 39.1969 85.4656 40.0872C85.319 40.9775 85.2461 41.7983 85.2461 42.5496C85.2461 43.4998 85.3832 44.4093 85.6581 45.2804C85.933 46.1507 86.3545 46.922 86.9233 47.5941C87.4914 48.267 88.1696 48.7322 88.9579 48.9888C89.7462 49.2468 90.6533 49.3747 91.6808 49.3747C94.1376 49.3747 95.6953 48.6227 96.3559 47.1187C97.0159 45.6146 97.3463 43.3386 97.3463 40.2906V25.3869L83.9065 16.0831H129.732H129.732Z" fill="#BDA974"/>
<path d="M142.638 38.7614H157.666L155.244 42.7914H152.636C153.071 43.9878 153.257 45.1214 153.257 46.2543C153.257 52.1736 148.227 57.2736 141.459 57.2736C134.691 57.2736 129.536 51.7957 129.536 45.2464C129.536 40.2092 132.579 35.8013 138.478 32.5271C134.131 30.9528 132.02 28.497 132.02 24.9706C132.02 22.6406 133.013 20.2477 134.938 18.0441C138.354 14.077 143.508 11.7477 146.675 11.7477C149.034 11.7477 151.332 12.8184 153.629 15.022L147.916 20.9413C145.184 18.5484 142.39 17.352 140.03 17.352C139.595 17.352 139.285 17.4149 138.912 17.5406C138.291 18.422 137.981 19.2406 137.981 20.2484C137.981 24.4042 142.762 27.6785 151.829 28.3713L148.103 34.9828L144.812 34.4163C141.645 34.6049 139.161 35.2349 137.174 36.4314C136.429 37.6906 135.994 39.2649 135.994 41.0278C135.994 46.7578 139.907 50.41 146.427 50.41C147.545 50.41 148.538 50.2843 149.407 49.9693C149.221 46.5693 146.861 43.9871 142.638 42.9171H141.645C140.9 42.9171 140.155 42.9171 139.472 42.98L142.639 38.7614H142.638Z" fill="#BDA974"/>
<path d="M158.683 16.1334H205.816C208.937 16.1334 211.582 16.2332 213.752 16.4314C215.921 16.6303 218.092 17.1464 220.262 17.9798C222.431 18.8146 224.494 19.9157 226.449 21.2851C228.404 22.6554 230.09 24.2045 231.507 25.9311C232.923 27.6585 234.027 29.3563 234.816 31.0237C235.605 32.6912 236 34.4585 236 36.3249C236 39.5415 234.951 42.5392 232.853 45.3188C230.754 48.0992 228.198 50.2332 225.185 51.7218C222.172 53.211 218.961 54.2729 215.554 54.9081C212.147 55.544 208.488 55.8612 204.579 55.8612H158.683L171.825 46.5574V25.4357L158.683 16.1319V16.1334ZM207.422 47.4891C208.964 47.1719 210.228 46.6247 211.213 45.8498C212.199 45.0748 212.925 44.081 213.392 42.8683C213.858 41.6563 214.171 40.4939 214.332 39.381C214.493 38.2682 214.575 37.1146 214.575 35.9219C214.575 34.1331 214.234 32.3658 213.553 30.6163C212.872 28.8675 211.849 27.427 210.487 26.2935C209.125 25.1606 207.52 24.3657 205.673 23.9087C203.827 23.4517 201.721 23.2225 199.355 23.2225H190.373V47.9646H202.097C203.495 47.9646 204.499 47.935 205.109 47.8751C205.718 47.8152 206.489 47.6866 207.421 47.4877L207.422 47.4891Z" fill="#BDA974"/>
<path d="M89.6886 66.9552C89.6886 67.3849 89.6426 67.7487 89.5507 68.0467C89.4589 68.3447 89.321 68.5857 89.1373 68.7691C88.9535 68.9525 88.726 69.0863 88.4532 69.1692C88.1812 69.252 87.8684 69.2941 87.5147 69.2941H87.2391V72.5884H85.2818V64.7746H87.4644C88.2636 64.7746 88.8339 64.9528 89.1759 65.3099C89.5172 65.6671 89.6886 66.2158 89.6886 66.9567V66.9552ZM87.2391 67.9528H87.3499C87.5519 67.9528 87.6948 67.8751 87.7787 67.7191C87.8626 67.5631 87.9048 67.3227 87.9048 66.9966C87.9048 66.6506 87.856 66.4162 87.7583 66.2949C87.6606 66.1736 87.5176 66.113 87.3295 66.113H87.2383V67.952L87.2391 67.9528Z" fill="#665A3D"/>
<path d="M92.1381 66.5707C92.2883 66.4117 92.4538 66.2868 92.6354 66.1966C92.8163 66.1063 93.0095 66.0612 93.2144 66.0612C93.5221 66.0612 93.7643 66.113 93.9422 66.2173C94.1201 66.3215 94.2528 66.4583 94.3418 66.6277C94.4308 66.7977 94.4869 66.9952 94.511 67.22C94.5351 67.4455 94.5467 67.6821 94.5467 67.9321V72.5869H92.6711V67.8795C92.6711 67.8174 92.6697 67.7531 92.666 67.6873C92.6624 67.6215 92.6522 67.5608 92.6354 67.5054C92.6186 67.4499 92.5909 67.4048 92.5537 67.3701C92.5158 67.3353 92.4633 67.3183 92.3948 67.3183C92.3335 67.3183 92.2817 67.3361 92.2409 67.3701C92.2 67.4048 92.1694 67.4499 92.149 67.5054C92.1286 67.5608 92.1147 67.6215 92.1082 67.6873C92.1016 67.7531 92.0979 67.8137 92.0979 67.8692V72.5869H90.2121V64.5653H92.0877V66.5604L92.1388 66.5707H92.1381Z" fill="#665A3D"/>
<path d="M97.5483 72.0989C97.425 72.2793 97.2784 72.4242 97.1078 72.5351C96.9372 72.6461 96.7352 72.7015 96.5033 72.7015C96.0934 72.7015 95.7704 72.5936 95.5348 72.3791C95.2993 72.1639 95.1812 71.8548 95.1812 71.4526V70.495C95.1812 70.2591 95.2052 70.0595 95.2526 69.8968C95.3 69.7341 95.3759 69.5914 95.478 69.4701C95.5808 69.3488 95.7135 69.2394 95.8776 69.1418C96.0417 69.0449 96.2429 68.9407 96.4821 68.8297L97.2711 68.4652C97.374 68.4164 97.4454 68.3476 97.4863 68.2574C97.5271 68.1672 97.5475 68.0807 97.5475 67.9971V67.6533C97.5475 67.4936 97.5249 67.3775 97.4812 67.305C97.4367 67.2318 97.3565 67.1956 97.2405 67.1956C97.1173 67.1956 97.0371 67.2392 96.9999 67.3264C96.9619 67.4137 96.9437 67.5172 96.9437 67.6355V68.3691H95.1812V68.0888C95.1812 67.3959 95.3671 66.885 95.7398 66.5559C96.1117 66.2269 96.6396 66.0627 97.3229 66.0627C97.7809 66.0627 98.1462 66.1182 98.4197 66.2291C98.6932 66.34 98.9046 66.496 99.0548 66.6964C99.2051 66.8976 99.3043 67.1364 99.3524 67.4137C99.3998 67.691 99.4238 67.9919 99.4238 68.318V72.5884H97.7225L97.6197 72.1003H97.5483V72.0989ZM97.538 69.6675C97.347 69.7578 97.1997 69.8613 97.0976 69.9796C96.9948 70.0972 96.9437 70.2325 96.9437 70.3848V70.9978C96.9437 71.1294 96.9576 71.2574 96.9846 71.3823C97.0115 71.5073 97.1041 71.5694 97.2609 71.5694C97.3295 71.5694 97.382 71.5502 97.4199 71.5125C97.4571 71.4748 97.4848 71.4245 97.5016 71.3616C97.5184 71.2995 97.5286 71.2337 97.5322 71.1642C97.5359 71.0947 97.5373 71.0289 97.5373 70.9668V69.6675H97.538Z" fill="#665A3D"/>
<path d="M102.119 66.7474C102.263 66.5463 102.411 66.3822 102.565 66.2542C102.719 66.1263 102.918 66.062 103.164 66.062C103.472 66.062 103.709 66.1137 103.877 66.218C104.044 66.3223 104.168 66.462 104.251 66.6387C104.332 66.8155 104.382 67.0166 104.399 67.2414C104.416 67.4669 104.425 67.7036 104.425 67.9535V69.0235H102.56V67.7243C102.56 67.6067 102.546 67.5046 102.519 67.4174C102.491 67.3309 102.427 67.2872 102.324 67.2872C102.228 67.2872 102.164 67.3309 102.129 67.4174C102.095 67.5039 102.078 67.606 102.078 67.7243V72.5869H100.203V66.1758H101.935L102.058 66.7371L102.119 66.7474Z" fill="#665A3D"/>
<path d="M106.781 66.7164C106.917 66.5227 107.085 66.3651 107.284 66.2439C107.482 66.1226 107.704 66.062 107.949 66.062C108.209 66.062 108.438 66.1263 108.636 66.2542C108.835 66.3822 109.002 66.5611 109.139 66.7896C109.282 66.5678 109.453 66.391 109.651 66.2594C109.85 66.1278 110.078 66.062 110.338 66.062C110.631 66.062 110.863 66.116 111.035 66.2232C111.205 66.3304 111.335 66.4724 111.424 66.6491C111.513 66.8258 111.568 67.0299 111.588 67.2621C111.609 67.4943 111.619 67.7317 111.619 67.9742V72.5876H109.785V67.7975C109.785 67.7354 109.783 67.671 109.78 67.6052C109.776 67.5394 109.764 67.4788 109.744 67.4233C109.724 67.3678 109.694 67.3213 109.657 67.2828C109.619 67.2451 109.567 67.2259 109.498 67.2259C109.43 67.2259 109.375 67.2451 109.334 67.2828C109.293 67.3213 109.263 67.3678 109.242 67.4233C109.222 67.4788 109.208 67.5394 109.201 67.6052C109.195 67.671 109.191 67.7317 109.191 67.7871V72.5876H107.337V67.7975C107.337 67.7354 107.335 67.671 107.332 67.6052C107.328 67.5394 107.318 67.4788 107.301 67.4233C107.284 67.3678 107.257 67.3213 107.219 67.2828C107.181 67.2451 107.129 67.2259 107.06 67.2259C106.999 67.2259 106.947 67.2451 106.907 67.2828C106.866 67.3213 106.835 67.3678 106.815 67.4233C106.794 67.4788 106.78 67.5394 106.774 67.6052C106.767 67.671 106.764 67.7317 106.764 67.7871V72.5876H104.93V66.1766H106.61L106.723 66.7171H106.785L106.781 66.7164Z" fill="#665A3D"/>
<path d="M114.62 72.0989C114.497 72.2793 114.351 72.4242 114.18 72.5351C114.009 72.6461 113.807 72.7015 113.575 72.7015C113.166 72.7015 112.842 72.5936 112.607 72.3791C112.371 72.1647 112.253 71.8548 112.253 71.4526V70.495C112.253 70.2591 112.277 70.0595 112.325 69.8968C112.372 69.7341 112.448 69.5914 112.55 69.4701C112.653 69.3488 112.786 69.2394 112.95 69.1418C113.114 69.0449 113.315 68.9407 113.554 68.8297L114.343 68.4652C114.446 68.4164 114.518 68.3476 114.558 68.2574C114.599 68.1672 114.62 68.0807 114.62 67.9971V67.6533C114.62 67.4936 114.597 67.3775 114.553 67.305C114.509 67.2318 114.429 67.1956 114.313 67.1956C114.189 67.1956 114.109 67.2392 114.072 67.3264C114.034 67.4137 114.016 67.5172 114.016 67.6355V68.3691H112.253V68.0888C112.253 67.3959 112.439 66.885 112.812 66.5559C113.184 66.2269 113.712 66.0627 114.395 66.0627C114.853 66.0627 115.218 66.1182 115.492 66.2291C115.765 66.34 115.977 66.496 116.127 66.6964C116.277 66.8976 116.376 67.1364 116.424 67.4137C116.472 67.691 116.496 67.9919 116.496 68.318V72.5884H114.795L114.692 72.1003H114.62V72.0989ZM114.61 69.6675C114.419 69.7578 114.272 69.8613 114.17 69.9796C114.067 70.0972 114.016 70.2325 114.016 70.3848V70.9978C114.016 71.1294 114.03 71.2574 114.057 71.3823C114.084 71.5073 114.176 71.5694 114.333 71.5694C114.402 71.5694 114.454 71.5502 114.492 71.5125C114.529 71.4748 114.557 71.4245 114.574 71.3616C114.59 71.2995 114.601 71.2337 114.604 71.1642C114.608 71.0947 114.609 71.0289 114.609 70.9668V69.6675H114.61Z" fill="#665A3D"/>
<path d="M121.425 69.9478V70.4151C121.425 71.1568 121.262 71.721 120.938 72.1092C120.614 72.4974 120.086 72.6912 119.355 72.6912C118.911 72.6912 118.551 72.6305 118.274 72.5093C117.997 72.388 117.78 72.2253 117.623 72.0212C117.466 71.8171 117.359 71.5812 117.3 71.3143C117.242 71.0474 117.214 70.7656 117.214 70.4676V68.3476C117.214 66.8303 117.927 66.0723 119.355 66.0723C119.683 66.0723 119.977 66.1108 120.236 66.1869C120.496 66.2631 120.712 66.3896 120.887 66.5663C121.061 66.743 121.194 66.9752 121.286 67.2628C121.378 67.5505 121.425 67.9054 121.425 68.3277V68.5976H119.652V67.7664C119.652 67.6488 119.637 67.5291 119.606 67.4078C119.576 67.2865 119.495 67.2259 119.365 67.2259C119.297 67.2259 119.242 67.2436 119.201 67.2776C119.161 67.3124 119.13 67.3553 119.11 67.4078C119.089 67.4595 119.077 67.5187 119.074 67.5845C119.07 67.6503 119.069 67.711 119.069 67.7664V71.0496C119.069 71.1746 119.084 71.2906 119.115 71.3979C119.145 71.5051 119.229 71.5591 119.365 71.5591C119.495 71.5591 119.576 71.5058 119.606 71.3979C119.637 71.2906 119.652 71.1746 119.652 71.0496V69.9478H121.425Z" fill="#665A3D"/>
<path d="M125.339 71.8075C125.299 72.0501 125.249 72.3007 125.191 72.561C125.132 72.8206 125.035 73.0579 124.899 73.2731C124.762 73.4876 124.574 73.6628 124.335 73.7981C124.096 73.9335 123.778 74.0007 123.382 74.0007H122.275V72.6808H122.541C122.801 72.6808 122.931 72.5632 122.931 72.3274C122.931 72.2578 122.921 72.175 122.9 72.0782L121.711 66.1758H123.535L123.801 68.2855L124.057 70.5401H124.108L124.303 68.2855L124.498 66.1758H126.26L125.338 71.8075H125.339Z" fill="#665A3D"/>
<path d="M131.764 69.4073C131.764 69.6084 131.73 69.7984 131.661 69.9789C131.593 70.1593 131.497 70.3153 131.375 70.4462C131.251 70.5778 131.106 70.6821 130.939 70.7582C130.771 70.8344 130.589 70.8729 130.391 70.8729C130.192 70.8729 130.02 70.8366 129.853 70.7634C129.685 70.6909 129.54 70.5889 129.417 70.4565C129.294 70.3249 129.197 70.1741 129.126 70.0047C129.054 69.8354 129.018 69.6498 129.018 69.4487C129.018 69.2475 129.053 69.0715 129.126 68.8978C129.197 68.7247 129.295 68.5724 129.417 68.4408C129.54 68.3092 129.686 68.2071 129.853 68.1339C130.02 68.0615 130.199 68.0245 130.391 68.0245C130.583 68.0245 130.751 68.0592 130.919 68.1287C131.086 68.1983 131.232 68.2951 131.354 68.4194C131.477 68.5443 131.576 68.6915 131.652 68.8608C131.727 69.0309 131.765 69.2128 131.765 69.4065L131.764 69.4073Z" fill="#665A3D"/>
<path d="M138.344 72.5869V69.2098H137.657V72.5869H135.7V64.7731H137.657V67.745H138.344V64.7731H140.301V72.5869H138.344Z" fill="#665A3D"/>
<path d="M145.322 70.4151C145.322 71.1568 145.141 71.721 144.779 72.1092C144.416 72.4974 143.88 72.6912 143.17 72.6912C142.726 72.6912 142.366 72.6305 142.088 72.5093C141.812 72.388 141.595 72.2253 141.438 72.0212C141.28 71.8171 141.173 71.5812 141.115 71.3143C141.057 71.0474 141.028 70.7656 141.028 70.4676V68.3476C141.028 66.8303 141.742 66.0723 143.17 66.0723C143.478 66.0723 143.763 66.1108 144.025 66.1869C144.289 66.2631 144.515 66.3896 144.706 66.5663C144.897 66.743 145.048 66.9752 145.157 67.2628C145.266 67.5505 145.321 67.9054 145.321 68.3277V70.4166L145.322 70.4151ZM143.467 67.7657C143.467 67.6481 143.452 67.5283 143.421 67.407C143.391 67.2858 143.311 67.2251 143.181 67.2251C143.112 67.2251 143.058 67.2429 143.017 67.2769C142.976 67.3116 142.945 67.3545 142.925 67.407C142.904 67.4588 142.892 67.518 142.889 67.5838C142.885 67.6496 142.884 67.7102 142.884 67.7657V71.0488C142.884 71.1738 142.899 71.2899 142.93 71.3971C142.961 71.5043 143.044 71.5583 143.181 71.5583C143.311 71.5583 143.391 71.5051 143.421 71.3971C143.452 71.2899 143.467 71.1738 143.467 71.0488V67.7657Z" fill="#665A3D"/>
<path d="M147.863 66.7164C148 66.5227 148.167 66.3651 148.366 66.2439C148.564 66.1226 148.786 66.062 149.031 66.062C149.291 66.062 149.52 66.1263 149.718 66.2542C149.917 66.3822 150.084 66.5611 150.221 66.7896C150.365 66.5678 150.535 66.391 150.734 66.2594C150.932 66.1278 151.16 66.062 151.42 66.062C151.714 66.062 151.946 66.116 152.117 66.2232C152.288 66.3304 152.417 66.4724 152.506 66.6491C152.595 66.8258 152.65 67.0299 152.67 67.2621C152.691 67.4943 152.701 67.7317 152.701 67.9742V72.5876H150.867V67.7975C150.867 67.7354 150.866 67.671 150.862 67.6052C150.858 67.5394 150.847 67.4788 150.826 67.4233C150.806 67.3678 150.777 67.3213 150.739 67.2828C150.701 67.2451 150.649 67.2259 150.58 67.2259C150.512 67.2259 150.457 67.2451 150.416 67.2828C150.375 67.3213 150.345 67.3678 150.324 67.4233C150.304 67.4788 150.29 67.5394 150.284 67.6052C150.277 67.671 150.273 67.7317 150.273 67.7871V72.5876H148.419V67.7975C148.419 67.7354 148.417 67.671 148.414 67.6052C148.41 67.5394 148.4 67.4788 148.383 67.4233C148.366 67.3678 148.339 67.3213 148.302 67.2828C148.264 67.2451 148.211 67.2259 148.143 67.2259C148.081 67.2259 148.03 67.2451 147.989 67.2828C147.948 67.3213 147.917 67.3678 147.897 67.4233C147.876 67.4788 147.863 67.5394 147.856 67.6052C147.849 67.671 147.846 67.7317 147.846 67.7871V72.5876H146.012V66.1766H147.693L147.806 66.7171H147.867L147.863 66.7164Z" fill="#665A3D"/>
<path d="M155.19 69.4598V71.0496C155.19 71.1746 155.205 71.2906 155.236 71.3979C155.266 71.5051 155.35 71.5591 155.487 71.5591C155.616 71.5591 155.697 71.5058 155.727 71.3979C155.758 71.2906 155.773 71.1746 155.773 71.0496V69.9167H157.628V70.4159C157.628 71.1575 157.447 71.7217 157.084 72.11C156.722 72.4982 156.186 72.6919 155.476 72.6919C155.032 72.6919 154.671 72.6313 154.395 72.51C154.119 72.3887 153.901 72.2261 153.745 72.022C153.587 71.8179 153.48 71.582 153.421 71.315C153.363 71.0481 153.335 70.7664 153.335 70.4684V68.3484C153.335 66.831 154.049 66.0731 155.476 66.0731C155.784 66.0731 156.069 66.1115 156.332 66.1877C156.594 66.2638 156.822 66.3903 157.013 66.567C157.204 66.7437 157.354 66.9759 157.464 67.2636C157.573 67.5512 157.628 67.9062 157.628 68.3284V69.4612H155.189L155.19 69.4598ZM155.774 68.3373V67.7657C155.774 67.6481 155.759 67.5283 155.728 67.407C155.697 67.2858 155.617 67.2251 155.487 67.2251C155.419 67.2251 155.364 67.2429 155.323 67.2769C155.282 67.3117 155.252 67.3545 155.231 67.407C155.211 67.4588 155.199 67.518 155.196 67.5838C155.192 67.6496 155.191 67.7102 155.191 67.7657V68.3373H155.775H155.774Z" fill="#665A3D"/>
<path d="M163.931 68.8985L164.28 66.6439L164.588 64.7738H166.955V72.5876H165.172V68.6597H165.121L164.813 70.0935L164.464 71.4548H163.306L162.927 70.0624L162.609 68.7218H162.558V72.5869H160.724V64.7731H162.979L163.378 66.6018L163.85 68.8985H163.931Z" fill="#665A3D"/>
<path d="M169.588 69.4598V71.0496C169.588 71.1746 169.603 71.2906 169.634 71.3979C169.664 71.5051 169.748 71.5591 169.885 71.5591C170.014 71.5591 170.095 71.5058 170.125 71.3979C170.156 71.2906 170.171 71.1746 170.171 71.0496V69.9167H172.026V70.4159C172.026 71.1575 171.845 71.7217 171.482 72.11C171.12 72.4982 170.584 72.6919 169.874 72.6919C169.43 72.6919 169.069 72.6313 168.793 72.51C168.517 72.3887 168.299 72.2261 168.143 72.022C167.985 71.8179 167.878 71.582 167.819 71.315C167.761 71.0481 167.733 70.7664 167.733 70.4684V68.3484C167.733 66.831 168.447 66.0731 169.874 66.0731C170.182 66.0731 170.467 66.1115 170.73 66.1877C170.993 66.2638 171.22 66.3903 171.411 66.567C171.602 66.7437 171.752 66.9759 171.862 67.2636C171.971 67.5512 172.026 67.9062 172.026 68.3284V69.4612H169.587L169.588 69.4598ZM170.172 68.3373V67.7657C170.172 67.6481 170.157 67.5283 170.126 67.407C170.095 67.2858 170.015 67.2251 169.885 67.2251C169.817 67.2251 169.762 67.2429 169.721 67.2769C169.68 67.3117 169.65 67.3545 169.629 67.407C169.609 67.4588 169.597 67.518 169.594 67.5838C169.59 67.6496 169.589 67.7102 169.589 67.7657V68.3373H170.173H170.172Z" fill="#665A3D"/>
<path d="M175.091 72.1403C174.94 72.3133 174.781 72.4501 174.614 72.5507C174.447 72.6512 174.24 72.7015 173.995 72.7015C173.735 72.7015 173.52 72.6579 173.349 72.5714C173.179 72.4849 173.042 72.3673 172.939 72.2179C172.837 72.0693 172.765 71.8955 172.724 71.6981C172.683 71.5006 172.663 71.2877 172.663 71.0592V68.0356C172.663 67.7864 172.678 67.5438 172.709 67.308C172.74 67.0728 172.803 66.8613 172.899 66.6742C172.994 66.4872 173.131 66.3385 173.308 66.2276C173.486 66.1167 173.722 66.0612 174.016 66.0612C174.255 66.0612 174.451 66.1049 174.605 66.1914C174.759 66.2779 174.908 66.4043 175.051 66.5707L175.102 66.5397V64.5653H176.977V72.5869H175.235L175.132 72.1713L175.091 72.1403H175.091ZM174.537 70.9453C174.537 71.0562 174.551 71.1709 174.578 71.2884C174.605 71.406 174.68 71.4652 174.803 71.4652C174.927 71.4652 175.007 71.4082 175.044 71.2936C175.081 71.179 175.1 71.0636 175.1 70.9453V67.8803C175.1 67.8182 175.097 67.7538 175.09 67.688C175.083 67.6222 175.07 67.5616 175.049 67.5061C175.029 67.4507 175 67.4056 174.962 67.3708C174.924 67.3361 174.872 67.319 174.803 67.319C174.735 67.319 174.684 67.3383 174.649 67.376C174.615 67.4144 174.59 67.461 174.573 67.5165C174.555 67.5719 174.545 67.6341 174.542 67.7036C174.539 67.7731 174.537 67.8389 174.537 67.901V70.9453Z" fill="#665A3D"/>
<path d="M177.704 65.812V64.5653H179.63V65.812H177.704ZM177.704 72.5869V66.1759H179.63V72.5869H177.704Z" fill="#665A3D"/>
<path d="M184.508 69.9478V70.4151C184.508 71.1568 184.345 71.721 184.022 72.1092C183.697 72.4974 183.169 72.6912 182.438 72.6912C181.994 72.6912 181.634 72.6305 181.358 72.5093C181.081 72.388 180.864 72.2253 180.707 72.0212C180.55 71.8171 180.443 71.5812 180.384 71.3143C180.326 71.0474 180.297 70.7656 180.297 70.4676V68.3476C180.297 66.8303 181.011 66.0723 182.439 66.0723C182.767 66.0723 183.06 66.1108 183.321 66.1869C183.58 66.2631 183.797 66.3896 183.971 66.5663C184.146 66.743 184.279 66.9752 184.371 67.2628C184.463 67.5505 184.509 67.9054 184.509 68.3277V68.5976H182.737V67.7664C182.737 67.6488 182.721 67.5291 182.691 67.4078C182.66 67.2865 182.58 67.2259 182.45 67.2259C182.382 67.2259 182.327 67.2436 182.286 67.2776C182.245 67.3124 182.215 67.3553 182.194 67.4078C182.174 67.4595 182.161 67.5187 182.158 67.5845C182.155 67.6503 182.153 67.711 182.153 67.7664V71.0496C182.153 71.1746 182.169 71.2906 182.199 71.3979C182.23 71.5051 182.314 71.5591 182.45 71.5591C182.58 71.5591 182.66 71.5058 182.691 71.3979C182.721 71.2906 182.737 71.1746 182.737 71.0496V69.9478H184.509H184.508Z" fill="#665A3D"/>
<path d="M187.418 72.0989C187.294 72.2793 187.148 72.4242 186.977 72.5351C186.807 72.6461 186.605 72.7015 186.373 72.7015C185.963 72.7015 185.64 72.5936 185.404 72.3791C185.169 72.1639 185.051 71.8548 185.051 71.4526V70.495C185.051 70.2591 185.075 70.0595 185.122 69.8968C185.169 69.7341 185.245 69.5914 185.347 69.4701C185.449 69.3488 185.583 69.2394 185.747 69.1418C185.911 69.0442 186.112 68.9407 186.352 68.8297L187.141 68.4652C187.243 68.4164 187.315 68.3476 187.356 68.2574C187.397 68.1672 187.417 68.0807 187.417 67.9971V67.6533C187.417 67.4936 187.394 67.3775 187.351 67.305C187.306 67.2318 187.226 67.1956 187.11 67.1956C186.987 67.1956 186.906 67.2392 186.869 67.3264C186.831 67.4137 186.813 67.5172 186.813 67.6355V68.3691H185.051V68.0888C185.051 67.3959 185.237 66.885 185.609 66.5559C185.982 66.2269 186.509 66.0627 187.192 66.0627C187.65 66.0627 188.016 66.1182 188.289 66.2291C188.563 66.34 188.774 66.496 188.924 66.6964C189.074 66.8976 189.174 67.1364 189.222 67.4137C189.269 67.691 189.293 67.9919 189.293 68.318V72.5884H187.592L187.489 72.1003H187.418V72.0989ZM187.407 69.6675C187.216 69.7578 187.069 69.8613 186.967 69.9796C186.864 70.0972 186.813 70.2325 186.813 70.3848V70.9978C186.813 71.1294 186.827 71.2574 186.854 71.3823C186.881 71.5073 186.974 71.5694 187.13 71.5694C187.199 71.5694 187.251 71.5502 187.289 71.5125C187.327 71.4748 187.354 71.4245 187.371 71.3616C187.388 71.2995 187.398 71.2337 187.402 71.1642C187.405 71.0947 187.407 71.0289 187.407 70.9668V69.6675H187.407Z" fill="#665A3D"/>
<path d="M190.072 72.5869V64.7731H191.999V72.5869H190.072Z" fill="#665A3D"/>
<path d="M199.438 70.5919C199.438 70.9727 199.387 71.2966 199.284 71.5635C199.181 71.8304 199.034 72.0486 198.843 72.2179C198.652 72.388 198.42 72.5107 198.146 72.5869C197.873 72.6631 197.562 72.7015 197.213 72.7015C196.722 72.7015 196.33 72.6305 196.04 72.4886C195.75 72.3466 195.53 72.1595 195.379 71.9273C195.229 71.6951 195.134 71.4341 195.093 71.1428C195.052 70.8521 195.032 70.5542 195.032 70.2495V69.709H196.845V70.7065C196.845 70.7826 196.849 70.8588 196.855 70.935C196.862 71.0111 196.877 71.0843 196.901 71.1531C196.925 71.2226 196.961 71.2781 197.009 71.3195C197.057 71.3609 197.119 71.3816 197.194 71.3816C197.275 71.3816 197.343 71.3624 197.394 71.3247C197.445 71.2869 197.484 71.2381 197.512 71.179C197.539 71.1206 197.558 71.054 197.568 70.9816C197.578 70.9091 197.583 70.8381 197.583 70.7686C197.583 70.5541 197.568 70.3774 197.537 70.2384C197.507 70.1001 197.45 69.9752 197.368 69.8642C197.286 69.7533 197.175 69.6476 197.035 69.547C196.895 69.4465 196.712 69.3237 196.486 69.178C196.22 69.005 195.991 68.8438 195.799 68.6952C195.608 68.5465 195.451 68.3868 195.328 68.2175C195.205 68.0481 195.115 67.8507 195.057 67.6252C194.999 67.4004 194.97 67.1246 194.97 66.7992C194.97 66.425 195.023 66.1034 195.129 65.8327C195.235 65.5628 195.385 65.341 195.58 65.168C195.775 64.9949 196.005 64.8663 196.272 64.7835C196.538 64.7006 196.836 64.6585 197.164 64.6585C197.635 64.6585 198.011 64.7243 198.291 64.8559C198.571 64.9876 198.785 65.1576 198.932 65.3654C199.078 65.5732 199.174 65.8069 199.218 66.0672C199.263 66.3267 199.284 66.5885 199.284 66.8517V67.2983H197.461V66.6018C197.461 66.4428 197.44 66.2986 197.399 66.1707C197.359 66.0427 197.27 65.9784 197.133 65.9784C196.997 65.9784 196.908 66.0376 196.867 66.1551C196.826 66.2727 196.806 66.394 196.806 66.519C196.806 66.7201 196.83 66.8842 196.877 67.0122C196.925 67.1401 196.998 67.2547 197.098 67.3553C197.197 67.4558 197.323 67.5542 197.477 67.6511C197.631 67.7479 197.817 67.8662 198.035 68.0045C198.35 68.2056 198.599 68.3942 198.783 68.5709C198.968 68.7477 199.109 68.9311 199.209 69.1218C199.308 69.3126 199.371 69.5256 199.398 69.7607C199.425 69.9959 199.439 70.2732 199.439 70.5919H199.438Z" fill="#665A3D"/>
<path d="M202.451 72.0575C202.185 72.4871 201.802 72.7015 201.303 72.7015C200.995 72.7015 200.756 72.6424 200.585 72.5248C200.415 72.4072 200.288 72.2527 200.206 72.0626C200.125 71.8719 200.075 71.6574 200.057 71.4186C200.041 71.1797 200.032 70.9387 200.032 70.6961V66.1758H201.908V70.9143C201.908 70.9764 201.911 71.0407 201.918 71.1065C201.924 71.1723 201.937 71.233 201.953 71.2884C201.97 71.3439 201.998 71.389 202.035 71.4237C202.072 71.4585 202.122 71.4755 202.184 71.4755C202.246 71.4755 202.297 71.4585 202.338 71.4237C202.379 71.389 202.409 71.3439 202.43 71.2884C202.45 71.233 202.465 71.1723 202.476 71.1065C202.486 71.0407 202.491 70.9801 202.491 70.9246V66.1758H204.356V72.5869H202.614L202.491 72.0671L202.45 72.0567L202.451 72.0575Z" fill="#665A3D"/>
<path d="M206.959 66.6225C207.109 66.4494 207.268 66.3126 207.435 66.2121C207.602 66.1115 207.809 66.0612 208.055 66.0612C208.301 66.0612 208.52 66.1049 208.69 66.1914C208.861 66.2779 208.998 66.3955 209.1 66.5448C209.203 66.6942 209.276 66.8672 209.32 67.0647C209.365 67.2621 209.387 67.4751 209.387 67.7036V70.7272C209.387 70.9764 209.371 71.2189 209.341 71.4548C209.31 71.6907 209.247 71.9014 209.151 72.0885C209.056 72.2756 208.918 72.425 208.741 72.5351C208.563 72.6461 208.328 72.7015 208.034 72.7015C207.795 72.7015 207.598 72.6579 207.445 72.5714C207.291 72.4849 207.142 72.3584 206.999 72.192L206.948 72.2231V74H205.072V66.1758H206.815L206.917 66.5914L206.958 66.6225H206.959ZM207.512 67.8174C207.512 67.7065 207.499 67.5926 207.472 67.4743C207.444 67.3568 207.369 67.2976 207.246 67.2976C207.124 67.2976 207.043 67.3545 207.006 67.4692C206.968 67.5838 206.949 67.6999 206.949 67.8174V70.8825C206.949 70.9446 206.953 71.0089 206.96 71.0747C206.966 71.1405 206.98 71.2012 207.001 71.2566C207.021 71.3121 207.05 71.3572 207.087 71.3919C207.124 71.4267 207.178 71.4437 207.246 71.4437C207.315 71.4437 207.366 71.4245 207.4 71.3868C207.434 71.3491 207.46 71.3017 207.477 71.2463C207.493 71.1908 207.504 71.1287 207.507 71.0592C207.511 70.9897 207.512 70.9239 207.512 70.8618V67.8174Z" fill="#665A3D"/>
<path d="M211.95 66.6225C212.1 66.4494 212.259 66.3126 212.426 66.2121C212.593 66.1115 212.8 66.0612 213.046 66.0612C213.292 66.0612 213.51 66.1049 213.681 66.1914C213.852 66.2779 213.989 66.3955 214.091 66.5448C214.194 66.6942 214.267 66.8672 214.311 67.0647C214.356 67.2621 214.377 67.4751 214.377 67.7036V70.7272C214.377 70.9764 214.362 71.2189 214.332 71.4548C214.301 71.6907 214.237 71.9014 214.142 72.0885C214.046 72.2756 213.909 72.425 213.732 72.5351C213.554 72.6461 213.319 72.7015 213.025 72.7015C212.786 72.7015 212.589 72.6579 212.436 72.5714C212.282 72.4849 212.133 72.3584 211.99 72.192L211.939 72.2231V74H210.063V66.1758H211.805L211.908 66.5914L211.949 66.6225H211.95ZM212.503 67.8174C212.503 67.7065 212.489 67.5926 212.462 67.4743C212.435 67.3568 212.36 67.2976 212.237 67.2976C212.115 67.2976 212.034 67.3545 211.997 67.4692C211.959 67.5838 211.94 67.6999 211.94 67.8174V70.8825C211.94 70.9446 211.944 71.0089 211.951 71.0747C211.957 71.1405 211.971 71.2012 211.991 71.2566C212.012 71.3121 212.041 71.3572 212.078 71.3919C212.115 71.4267 212.169 71.4437 212.237 71.4437C212.306 71.4437 212.357 71.4245 212.391 71.3868C212.425 71.3491 212.451 71.3017 212.468 71.2463C212.484 71.1908 212.495 71.1287 212.498 71.0592C212.502 70.9897 212.503 70.9239 212.503 70.8618V67.8174Z" fill="#665A3D"/>
<path d="M215.055 72.5869V64.7731H216.982V72.5869H215.055Z" fill="#665A3D"/>
<path d="M221.019 71.8075C220.978 72.0501 220.928 72.3007 220.87 72.561C220.811 72.8206 220.715 73.0579 220.578 73.2731C220.442 73.4876 220.254 73.6628 220.014 73.7981C219.775 73.9335 219.457 74.0007 219.061 74.0007H217.954V72.6808H218.221C218.48 72.6808 218.61 72.5632 218.61 72.3274C218.61 72.2578 218.6 72.175 218.579 72.0782L217.391 66.1758H219.214L219.481 68.2855L219.737 70.5401H219.788L219.982 68.2855L220.177 66.1758H221.94L221.017 71.8075H221.019Z" fill="#665A3D"/>
<path d="M27.7277 43.9642C32.7149 43.0472 37.1399 41.1631 39.0957 42.3278C41.0515 43.4931 40.5382 47.4093 35.917 47.1867C31.2966 46.9634 31.0275 48.3025 30.9786 49.0213C30.9298 49.74 31.174 51.6242 34.8027 51.7728C38.4314 51.9214 40.4156 50.1867 45.3044 43.6418C50.1939 37.0969 53.9386 38.7141 53.9386 38.7141C52.1826 40.6455 50.5527 42.7995 49.1672 44.6829C45.0113 50.3353 39.2416 60.6477 23.3997 56.929C7.55779 53.2103 5.0638 39.5267 5.0638 39.5267C13.3027 46.6661 22.739 44.8811 27.727 43.9642H27.7277Z" fill="#99B5AD"/>
<path d="M38.3373 56.7064C38.3373 56.7064 45.5006 56.6317 56.5507 41.0145C56.5507 41.0145 54.3017 39.2295 48.9717 47.1128C43.6418 54.9961 38.3373 56.7064 38.3373 56.7064Z" fill="#99B5AD"/>
<path d="M25.9316 23.9095L12.7857 7.48844C13.3421 6.66025 13.4609 5.70562 13.0044 5.00758C12.3365 3.98491 10.6847 3.90209 9.31743 4.82197L7.26755 6.19883C5.89951 7.11945 5.33217 8.69375 6.00014 9.71567C6.47269 10.4381 7.43382 10.691 8.43943 10.4551L14.8086 22.2494C17.6278 23.1611 21.457 23.7327 25.9316 23.9087V23.9095Z" fill="#02BD95"/>
<path d="M62.16 21.1535C59.5325 22.3115 56.7257 23.6381 53.0044 24.9979C50.6081 25.8735 48.0558 26.5678 45.766 27.1002L46.1817 27.0218C45.1593 27.2592 44.1063 27.4788 43.0365 27.6873C40.3099 28.2301 38.4059 28.4808 38.4059 28.4808L38.5568 28.4527C37.4353 28.6176 36.302 28.7706 35.1476 28.9008C20.9939 30.4936 8.48537 28.9104 3.13279 25.3137C1.05156 23.9346 -0.0838606 22.4409 0.00510597 20.9332C0.154599 18.371 3.81171 16.2694 9.56245 14.9584L10.4682 16.6362C9.32983 17.0806 8.60059 17.6019 8.36068 18.1979C8.31328 18.3266 8.28119 18.459 8.26369 18.5943C8.08648 20.0362 9.72434 21.5691 12.5202 22.8875C17.603 25.3233 28.2673 26.1293 40.3522 24.6511C44.923 24.0914 49.4158 23.1456 53.2268 22.137C53.2268 22.137 56.259 21.6941 63.7176 18.8634L70.2895 16.5423C70.2895 16.5423 66.1795 19.3811 62.16 21.1528V21.1535Z" fill="#BDA974"/>
<path d="M45.3912 15.7474C45.3642 15.7444 45.3372 15.7429 45.3103 15.74C45.3365 15.7459 45.3628 15.7511 45.389 15.7577L45.3912 15.7474Z" fill="#02BD95"/>
<path d="M20.6716 14.9924C27.2048 14.6138 35.8222 14.8356 45.3103 15.74C40.9699 14.7195 35.9192 13.9823 30.5046 13.6592C26.6615 13.4307 22.9796 13.4322 19.5807 13.6296L20.6716 14.9924Z" fill="#BDA974"/>
<path d="M69.5894 17.9487C69.5894 17.9487 80.6132 23.6995 84.9901 9.91532C84.9901 9.91532 73.8306 6.30014 68.7872 16.4107C68.7872 16.4107 71.4825 14.3824 77.3958 13.7952C77.3958 13.7952 73.5214 15.0198 69.5894 17.9495V17.9487Z" fill="#BDA974"/>
<path d="M68.042 20.6566C68.042 20.6566 69.2897 31.6183 81.3665 28.1362C81.3665 28.1362 78.513 18.1159 68.7581 19.313C68.7581 19.313 71.5386 20.3187 74.8552 24.4079C74.8552 24.4079 72.0768 22.1377 68.042 20.6559V20.6566Z" fill="#BDA974"/>
<path d="M66.3239 22.6857C66.3239 22.6857 63.2268 26.4783 68.0587 29.3356C68.0587 29.3356 70.3617 25.3107 66.9714 22.5038C66.9714 22.5038 67.5096 23.7202 67.234 26.0628C67.234 26.0628 67.0983 24.4567 66.3239 22.6849V22.6857Z" fill="#BDA974"/>
<path d="M64.0946 16.3744C64.0946 16.3744 66.0183 9.64246 58.1112 8.68931C58.1112 8.68931 57.355 15.2675 63.3501 16.9838C63.3501 16.9838 61.9674 15.7052 61.0172 12.4871C61.0172 12.4871 62.0929 14.5058 64.0946 16.3737V16.3744Z" fill="#BDA974"/>
<path d="M67.4389 15.6076C67.4389 15.6076 76.5725 10.115 68.7624 0C68.7624 0 61.0872 6.6499 65.9775 15.4546C65.9775 15.4546 65.7667 12.4154 68.0514 7.65629C68.0514 7.65629 67.1516 11.1894 67.4389 15.6084V15.6076Z" fill="#BDA974"/>
<path d="M40.7066 43.3164C40.8933 43.8836 40.9195 44.5158 40.754 45.1332C40.7197 45.2619 40.676 45.3906 40.6227 45.5192C41.8457 45.0837 43.0226 44.5831 44.1486 44.0218C44.3447 43.7623 44.546 43.4954 44.7531 43.2181C47.8254 39.106 50.5257 37.9968 52.3692 37.8526C55.4627 34.3942 57.382 30.2244 57.6635 25.7115C56.4785 26.2069 55.2001 26.7164 53.7985 27.2289C53.5725 27.3117 53.342 27.393 53.1087 27.4744C53.1145 27.6393 53.1182 27.8042 53.1182 27.9698C53.1182 34.8186 48.0179 40.7084 40.7073 43.3164H40.7066Z" fill="#665A3D"/>
<path d="M10.3289 42.1769C13.1663 43.5153 16.302 44.1941 19.8024 44.1941H19.8038C21.7064 44.1941 23.4879 43.9753 25.0412 43.7372C18.9411 41.9248 14.1836 37.8733 12.2942 32.831C25.758 34.4171 35.4073 31.2626 35.4073 31.2626C31.6721 31.6826 27.9705 31.8933 24.4046 31.8933C19.5216 31.8933 15.0601 31.4911 11.2667 30.7398C11.2134 30.7294 11.1609 30.7176 11.1084 30.7073C10.9961 30.6843 10.8846 30.6614 10.773 30.6385C10.7205 30.6274 10.668 30.6163 10.6162 30.6052C10.466 30.5734 10.3165 30.5409 10.1692 30.5076C10.1305 30.4987 10.0926 30.4899 10.054 30.481C9.93655 30.4544 9.81987 30.4277 9.70392 30.4004C9.65142 30.3878 9.59964 30.376 9.54786 30.3634C9.42608 30.3346 9.30576 30.305 9.18543 30.2747C9.15554 30.2673 9.12491 30.2599 9.09574 30.2525C8.95208 30.2163 8.80988 30.1793 8.66841 30.1416C8.62101 30.129 8.57434 30.1164 8.52767 30.1039C8.42047 30.075 8.314 30.0462 8.20826 30.0166C8.16669 30.0048 8.12513 29.9937 8.08356 29.9819C7.94501 29.9427 7.80718 29.9027 7.67154 29.8628C7.63581 29.8525 7.60008 29.8414 7.56435 29.8303C7.45715 29.7985 7.35068 29.7659 7.24494 29.7327C7.20192 29.7193 7.15962 29.706 7.1166 29.6927C6.9846 29.6513 6.85407 29.6092 6.72427 29.5663C6.71333 29.5626 6.70166 29.5589 6.69072 29.5552C6.56384 29.513 6.43914 29.4709 6.31517 29.4273C6.27579 29.414 6.23714 29.3999 6.19776 29.3866C6.09348 29.3496 5.98993 29.3126 5.88711 29.2749C4.31342 28.7004 2.95485 28.0378 1.84715 27.2947C1.13979 26.8259 0.546921 26.3645 0.0495834 25.8979C0.519211 32.4257 4.41551 38.2319 10.3289 42.1769Z" fill="#665A3D"/>
</g>
<defs>
<clipPath id="clip0_5_692">
<rect width="236" height="74" fill="white"/>
</clipPath>
</defs>
</svg>
