<svg width="413" height="49" viewBox="0 0 413 49" fill="none" xmlns="http://www.w3.org/2000/svg">
<path d="M5.66199 4.23279L3.6438 5.98999L0.970703 5.79854L2.73412 7.80962L2.54115 10.4733L4.55934 8.71611L7.23244 8.9084L5.46904 6.89648L5.66199 4.23279Z" fill="#F39E34"/>
<path d="M399.994 3.82544L398.806 4.85866L397.233 4.74609L398.271 5.92858L398.157 7.49481L399.345 6.46159L400.918 6.57465L399.88 5.39166L399.994 3.82544Z" fill="#F39E34"/>
<path d="M258.21 47.2656C258.28 47.3777 258.302 47.5129 258.269 47.6459C258.249 47.7314 258.206 47.81 258.145 47.8735C258.084 47.9371 258.007 47.9833 257.922 48.0074L256.238 48.4961C256.154 48.5212 256.064 48.5235 255.978 48.5026C255.892 48.4817 255.814 48.4385 255.75 48.3773C255.686 48.3168 255.639 48.2405 255.615 48.1562C255.59 48.0718 255.588 47.9824 255.609 47.8972L256.026 46.2014C256.046 46.1159 256.089 46.0373 256.15 45.9738C256.212 45.9103 256.288 45.8641 256.373 45.84C256.458 45.8149 256.548 45.8126 256.634 45.8335C256.719 45.8544 256.798 45.8977 256.861 45.9588L258.129 47.1658C258.16 47.1956 258.187 47.2291 258.21 47.2656ZM256.006 48.0708C256.018 48.091 256.037 48.1066 256.059 48.1151C256.08 48.1236 256.105 48.1245 256.127 48.1176L257.811 47.6289C257.829 47.6239 257.845 47.6141 257.858 47.6007C257.871 47.5872 257.88 47.5705 257.884 47.5524C257.889 47.5344 257.888 47.5155 257.883 47.4976C257.878 47.4798 257.868 47.4636 257.854 47.451L256.587 46.244C256.574 46.2309 256.557 46.2217 256.539 46.2173C256.521 46.2129 256.502 46.2134 256.484 46.2188C256.466 46.2238 256.45 46.2335 256.437 46.247C256.424 46.2605 256.415 46.2771 256.411 46.2953L255.994 47.991C255.991 48.0044 255.99 48.0184 255.992 48.0321C255.994 48.0459 255.999 48.059 256.006 48.0708ZM362.143 5.27188C362.213 5.38392 362.235 5.51913 362.203 5.65219C362.182 5.73769 362.139 5.81623 362.078 5.87974C362.017 5.94326 361.94 5.98948 361.855 6.01365L360.172 6.50237C360.087 6.52751 359.997 6.52976 359.911 6.50888C359.826 6.48799 359.747 6.44473 359.684 6.38354C359.62 6.3231 359.573 6.24679 359.548 6.16243C359.523 6.07806 359.522 5.98868 359.543 5.90342L359.959 4.20771C359.98 4.12216 360.023 4.04358 360.084 3.98005C360.145 3.91652 360.222 3.87034 360.307 3.84626C360.392 3.82114 360.481 3.81891 360.567 3.8398C360.653 3.86068 360.732 3.90392 360.795 3.96508L362.062 5.17208C362.094 5.20236 362.121 5.23596 362.143 5.27188ZM359.94 6.07703C359.952 6.09723 359.97 6.11284 359.992 6.12134C360.014 6.12984 360.038 6.13073 360.061 6.12387L361.744 5.63515C361.762 5.63015 361.778 5.62042 361.791 5.60696C361.804 5.5935 361.813 5.57683 361.818 5.55869C361.822 5.54068 361.822 5.52174 361.817 5.50389C361.812 5.48604 361.802 5.46992 361.788 5.45724L360.521 4.25024C360.507 4.23721 360.491 4.228 360.473 4.22358C360.454 4.21915 360.435 4.21967 360.418 4.22508C360.399 4.23008 360.383 4.23982 360.37 4.25327C360.357 4.26673 360.348 4.2834 360.344 4.30155L359.928 5.99726C359.924 6.01069 359.923 6.0247 359.925 6.03842C359.927 6.05214 359.932 6.06528 359.94 6.07703Z" fill="#E35669"/>
<path d="M133.354 44.4115C133.424 44.5235 133.446 44.6587 133.414 44.7918C133.393 44.8773 133.35 44.9559 133.289 45.0194C133.228 45.0829 133.151 45.1291 133.066 45.1533L131.383 45.642C131.298 45.6671 131.208 45.6694 131.123 45.6485C131.037 45.6276 130.958 45.5843 130.895 45.5231C130.831 45.4627 130.784 45.3864 130.759 45.302C130.734 45.2177 130.733 45.1283 130.754 45.043L131.17 43.3473C131.191 43.2618 131.234 43.1832 131.295 43.1197C131.356 43.0561 131.433 43.0099 131.518 42.9859C131.603 42.9608 131.692 42.9585 131.778 42.9794C131.864 43.0003 131.943 43.0435 132.006 43.1047L133.273 44.3117C133.304 44.3414 133.332 44.375 133.354 44.4115ZM131.151 45.2166C131.163 45.2368 131.181 45.2524 131.203 45.2609C131.225 45.2694 131.249 45.2703 131.272 45.2635L132.955 44.7748C132.973 44.7697 132.989 44.76 133.002 44.7465C133.015 44.7331 133.024 44.7164 133.029 44.6983C133.033 44.6803 133.033 44.6614 133.028 44.6435C133.023 44.6256 133.013 44.6095 132.999 44.5968L131.732 43.3898C131.718 43.3768 131.702 43.3676 131.684 43.3632C131.665 43.3588 131.646 43.3593 131.629 43.3647C131.61 43.3697 131.594 43.3794 131.581 43.3929C131.568 43.4063 131.559 43.423 131.555 43.4412L131.139 45.1369C131.135 45.1503 131.134 45.1643 131.136 45.178C131.139 45.1917 131.143 45.2049 131.151 45.2166ZM237.288 2.41775C237.358 2.52979 237.38 2.66501 237.347 2.79807C237.327 2.88357 237.284 2.9621 237.223 3.02562C237.162 3.08914 237.085 3.13535 237 3.15952L235.316 3.64824C235.232 3.67339 235.142 3.67563 235.056 3.65475C234.97 3.63386 234.892 3.5906 234.828 3.52941C234.764 3.46897 234.717 3.39266 234.693 3.3083C234.668 3.22394 234.666 3.13455 234.687 3.0493L235.104 1.35358C235.124 1.26803 235.167 1.18945 235.228 1.12592C235.289 1.06239 235.366 1.01621 235.451 0.99213C235.536 0.967016 235.626 0.964785 235.712 0.98567C235.797 1.00655 235.876 1.0498 235.939 1.11096L237.207 2.31795C237.238 2.34824 237.265 2.38184 237.288 2.41775ZM235.084 3.22291C235.096 3.2431 235.115 3.25871 235.136 3.26721C235.158 3.27571 235.183 3.27661 235.205 3.26974L236.889 2.78102C236.907 2.77603 236.923 2.76629 236.936 2.75283C236.949 2.73938 236.958 2.7227 236.962 2.70456C236.967 2.68655 236.966 2.66762 236.961 2.64976C236.956 2.63191 236.946 2.61579 236.932 2.60311L235.665 1.39611C235.652 1.38309 235.635 1.37388 235.617 1.36945C235.599 1.36503 235.58 1.36555 235.562 1.37096C235.544 1.37595 235.528 1.38569 235.515 1.39915C235.502 1.4126 235.493 1.42928 235.489 1.44742L235.072 3.14314C235.068 3.15656 235.068 3.17057 235.07 3.18429C235.072 3.19801 235.077 3.21115 235.084 3.22291Z" fill="#E35669"/>
<path d="M64.1718 44.4115C64.2414 44.5235 64.2637 44.6587 64.2311 44.7918C64.2107 44.8773 64.1677 44.9559 64.1067 45.0194C64.0457 45.0829 63.9687 45.1291 63.8838 45.1533L62.2002 45.642C62.1156 45.6671 62.0257 45.6694 61.9399 45.6485C61.8541 45.6276 61.7755 45.5843 61.712 45.5231C61.6479 45.4627 61.6012 45.3864 61.5764 45.302C61.5517 45.2177 61.55 45.1283 61.5714 45.043L61.9879 43.3473C62.0083 43.2618 62.0513 43.1832 62.1123 43.1197C62.1734 43.0561 62.2504 43.0099 62.3354 42.9859C62.42 42.9608 62.5098 42.9585 62.5955 42.9794C62.6813 43.0003 62.7599 43.0435 62.8234 43.1047L64.0905 44.3117C64.1217 44.3414 64.149 44.375 64.1718 44.4115ZM61.9682 45.2166C61.9801 45.2368 61.9985 45.2524 62.0204 45.2609C62.0423 45.2694 62.0665 45.2703 62.089 45.2635L63.7726 44.7748C63.7906 44.7697 63.8069 44.76 63.8198 44.7465C63.8327 44.7331 63.8418 44.7164 63.8461 44.6983C63.8507 44.6803 63.8504 44.6614 63.8452 44.6435C63.8399 44.6256 63.83 44.6095 63.8163 44.5968L62.5492 43.3898C62.5358 43.3768 62.5192 43.3676 62.501 43.3632C62.4829 43.3588 62.4638 43.3593 62.4459 43.3647C62.4279 43.3697 62.4116 43.3794 62.3986 43.3929C62.3857 43.4063 62.3767 43.423 62.3724 43.4412L61.9559 45.1369C61.9525 45.1503 61.9517 45.1643 61.9539 45.178C61.956 45.1917 61.9609 45.2049 61.9682 45.2166ZM168.105 2.41775C168.175 2.52979 168.197 2.66501 168.165 2.79807C168.144 2.88357 168.101 2.9621 168.04 3.02562C167.979 3.08914 167.902 3.13535 167.817 3.15952L166.134 3.64824C166.049 3.67339 165.959 3.67563 165.873 3.65475C165.788 3.63386 165.709 3.5906 165.646 3.52941C165.581 3.46897 165.535 3.39266 165.51 3.3083C165.485 3.22394 165.483 3.13455 165.505 3.0493L165.921 1.35358C165.942 1.26803 165.985 1.18945 166.046 1.12592C166.107 1.06239 166.184 1.01621 166.269 0.99213C166.353 0.967016 166.443 0.964785 166.529 0.98567C166.615 1.00655 166.693 1.0498 166.757 1.11096L168.024 2.31795C168.056 2.34824 168.083 2.38184 168.105 2.41775ZM165.902 3.22291C165.914 3.2431 165.932 3.25871 165.954 3.26721C165.976 3.27571 166 3.27661 166.022 3.26974L167.706 2.78102C167.724 2.77603 167.74 2.76629 167.753 2.75283C167.766 2.73938 167.775 2.7227 167.78 2.70456C167.784 2.68655 167.784 2.66762 167.779 2.64976C167.773 2.63191 167.763 2.61579 167.75 2.60311L166.483 1.39611C166.469 1.38309 166.453 1.37388 166.435 1.36945C166.416 1.36503 166.397 1.36555 166.379 1.37096C166.361 1.37595 166.345 1.38569 166.332 1.39915C166.319 1.4126 166.31 1.42928 166.306 1.44742L165.889 3.14314C165.886 3.15656 165.885 3.17057 165.887 3.18429C165.889 3.19801 165.894 3.21115 165.902 3.22291Z" fill="#E35669"/>
<path d="M317.134 8.84858L317.768 8.2172C317.837 8.14837 317.876 8.05503 317.876 7.95769C317.876 7.86036 317.837 7.76701 317.768 7.69819C317.699 7.62936 317.605 7.5907 317.507 7.5907C317.409 7.5907 317.316 7.62936 317.246 7.69819L316.612 8.32957L315.978 7.69819C315.909 7.62936 315.815 7.5907 315.717 7.5907C315.619 7.5907 315.526 7.62936 315.456 7.69819C315.387 7.76701 315.348 7.86036 315.348 7.95769C315.348 8.05503 315.387 8.14837 315.456 8.2172L316.091 8.84858L315.458 9.47881C315.423 9.51289 315.396 9.55334 315.378 9.59787C315.359 9.64239 315.35 9.69012 315.35 9.73831C315.35 9.78651 315.359 9.83423 315.378 9.87876C315.396 9.92328 315.423 9.96374 315.458 9.99782C315.492 10.0319 315.532 10.0589 315.577 10.0774C315.622 10.0958 315.67 10.1053 315.718 10.1053C315.767 10.1053 315.815 10.0958 315.859 10.0774C315.904 10.0589 315.945 10.0319 315.979 9.99782L316.612 9.36759L317.245 9.99782C317.317 10.0695 317.412 10.1054 317.506 10.1054C317.579 10.1054 317.65 10.084 317.711 10.0436C317.772 10.0033 317.819 9.94597 317.847 9.87887C317.875 9.81178 317.882 9.73795 317.868 9.66673C317.854 9.59552 317.818 9.53011 317.767 9.47881L317.134 8.84858ZM330.245 44.3584L330.879 43.727C330.949 43.6582 330.987 43.5649 330.987 43.4675C330.987 43.3702 330.949 43.2768 330.879 43.208C330.81 43.1392 330.717 43.1005 330.619 43.1005C330.521 43.1005 330.427 43.1392 330.358 43.208L329.724 43.8394L329.089 43.208C329.02 43.1392 328.927 43.1005 328.829 43.1005C328.731 43.1005 328.637 43.1392 328.568 43.208C328.499 43.2768 328.46 43.3702 328.46 43.4675C328.46 43.5649 328.499 43.6582 328.568 43.727L329.202 44.3584L328.569 44.9886C328.535 45.0227 328.508 45.0632 328.489 45.1077C328.471 45.1522 328.461 45.1999 328.461 45.2481C328.461 45.2963 328.471 45.3441 328.489 45.3886C328.508 45.4331 328.535 45.4736 328.569 45.5076C328.603 45.5417 328.644 45.5688 328.689 45.5872C328.734 45.6056 328.782 45.6151 328.83 45.6151C328.878 45.6151 328.926 45.6056 328.971 45.5872C329.016 45.5688 329.056 45.5417 329.091 45.5076L329.724 44.8774L330.357 45.5076C330.429 45.5793 330.523 45.6152 330.618 45.6152C330.691 45.6153 330.762 45.5938 330.823 45.5535C330.883 45.5131 330.931 45.4558 330.958 45.3887C330.986 45.3216 330.994 45.2478 330.979 45.1766C330.965 45.1053 330.93 45.0399 330.878 44.9886L330.245 44.3584Z" fill="#FFB86B"/>
<path d="M70.7831 10.3786C69.9843 10.3786 69.3344 9.7317 69.3344 8.93663C69.3344 8.14157 69.9843 7.49463 70.7831 7.49463C71.5818 7.49463 72.2317 8.14157 72.2317 8.93663C72.2317 9.7317 71.582 10.3786 70.7831 10.3786ZM70.7831 7.94578C70.5191 7.94609 70.2661 8.05058 70.0795 8.23633C69.8929 8.42209 69.7879 8.67394 69.7876 8.93663C69.7879 9.19931 69.8929 9.45115 70.0795 9.63687C70.2661 9.8226 70.5192 9.92706 70.7831 9.92732C71.0469 9.92701 71.2999 9.82254 71.4865 9.63683C71.6731 9.45111 71.7781 9.1993 71.7785 8.93663C71.7782 8.67394 71.6732 8.42209 71.4866 8.23633C71.3 8.05058 71.047 7.94609 70.7831 7.94578ZM192.755 45.0779C191.956 45.0779 191.306 44.431 191.306 43.6359C191.306 42.8409 191.956 42.1939 192.755 42.1939C193.553 42.1939 194.203 42.8409 194.203 43.6359C194.203 44.431 193.553 45.0779 192.755 45.0779ZM192.755 42.6451C192.491 42.6454 192.238 42.7499 192.051 42.9356C191.865 43.1214 191.76 43.3732 191.759 43.6359C191.76 43.8986 191.865 44.1505 192.051 44.3362C192.238 44.522 192.491 44.6265 192.755 44.6268C193.019 44.6265 193.272 44.522 193.458 44.3362C193.645 44.1505 193.75 43.8986 193.75 43.6359C193.75 43.3733 193.645 43.1214 193.458 42.9357C193.272 42.7499 193.019 42.6454 192.755 42.6451Z" fill="#117CA0"/>
<path d="M288.972 6.70963C288.174 6.70963 287.524 6.06269 287.524 5.26763C287.524 4.47256 288.174 3.82562 288.972 3.82562C289.771 3.82562 290.421 4.47256 290.421 5.26763C290.421 6.06269 289.771 6.70963 288.972 6.70963ZM288.972 4.27678C288.709 4.27708 288.456 4.38157 288.269 4.56733C288.082 4.75308 287.977 5.00493 287.977 5.26763C287.977 5.53031 288.082 5.78214 288.269 5.96787C288.456 6.15359 288.709 6.25805 288.972 6.25831C289.236 6.25801 289.489 6.15354 289.676 5.96782C289.863 5.7821 289.968 5.53029 289.968 5.26763C289.968 5.00493 289.863 4.75308 289.676 4.56733C289.489 4.38157 289.236 4.27708 288.972 4.27678ZM410.944 41.4089C410.145 41.4089 409.495 40.762 409.495 39.9669C409.495 39.1719 410.145 38.5249 410.944 38.5249C411.743 38.5249 412.393 39.1719 412.393 39.9669C412.393 40.762 411.743 41.4089 410.944 41.4089ZM410.944 38.9761C410.68 38.9764 410.427 39.0809 410.241 39.2666C410.054 39.4524 409.949 39.7042 409.949 39.9669C409.949 40.2296 410.054 40.4815 410.241 40.6672C410.427 40.853 410.68 40.9575 410.944 40.9578C411.208 40.9575 411.461 40.853 411.648 40.6672C411.834 40.4815 411.939 40.2296 411.939 39.9669C411.939 39.7043 411.834 39.4524 411.648 39.2667C411.461 39.0809 411.208 38.9764 410.944 38.9761Z" fill="#117CA0"/>
<path d="M223.509 42.6995C222.022 44.3309 219.426 44.2964 217.85 42.7512C216.272 41.2039 216.249 38.6733 217.798 37.0993C219.348 35.5234 221.901 35.4813 223.457 37.0475C224.984 38.5832 224.965 41.1044 223.509 42.6995Z" fill="#D7D7FF"/>
<path d="M220.626 37.3981C219.506 37.3981 218.597 38.3056 218.597 39.4247C218.597 40.5436 220.626 42.4125 220.626 42.4125C220.626 42.4125 222.656 40.5437 222.656 39.4247C222.656 38.3056 221.747 37.3981 220.626 37.3981ZM220.626 40.5504C220.478 40.5505 220.332 40.5214 220.195 40.4649C220.058 40.4083 219.934 40.3254 219.829 40.2208C219.724 40.1163 219.641 39.9922 219.585 39.8556C219.528 39.7189 219.499 39.5725 219.499 39.4247C219.499 39.1261 219.618 38.8398 219.829 38.6287C220.041 38.4176 220.327 38.299 220.626 38.2989C220.925 38.299 221.212 38.4176 221.423 38.6287C221.635 38.8398 221.753 39.1261 221.754 39.4247C221.754 39.5725 221.725 39.7189 221.668 39.8556C221.611 39.9922 221.528 40.1163 221.424 40.2208C221.319 40.3254 221.195 40.4083 221.058 40.4649C220.921 40.5214 220.774 40.5505 220.626 40.5504Z" fill="white"/>
<path d="M24.9557 37.577C22.8032 39.9376 19.0474 39.8877 16.7668 37.6518C14.4835 35.413 14.45 31.7512 16.6918 29.4737C18.9337 27.1934 22.6279 27.1324 24.8807 29.3988C27.0891 31.6208 27.0615 35.2689 24.9557 37.577Z" fill="#FFCBCB"/>
<path d="M20.783 29.9067C19.1613 29.9067 17.8467 31.2198 17.8467 32.8391C17.8467 34.4581 20.783 37.1623 20.783 37.1623C20.783 37.1623 23.7192 34.4584 23.7192 32.8391C23.7192 31.2198 22.4044 29.9067 20.783 29.9067ZM20.783 34.468C20.5688 34.4681 20.3566 34.4261 20.1587 34.3442C19.9607 34.2624 19.7809 34.1424 19.6294 33.9911C19.4779 33.8399 19.3578 33.6602 19.2758 33.4626C19.1939 33.2649 19.1518 33.053 19.1519 32.8391C19.152 32.4071 19.3239 31.9928 19.6297 31.6874C19.9356 31.3819 20.3504 31.2103 20.783 31.2101C21.2155 31.2103 21.6303 31.3819 21.9362 31.6874C22.2421 31.9928 22.414 32.4071 22.4141 32.8391C22.4142 33.053 22.3721 33.2649 22.2901 33.4626C22.2082 33.6602 22.0881 33.8399 21.9366 33.9911C21.7851 34.1424 21.6052 34.2624 21.4073 34.3442C21.2093 34.4261 20.9972 34.4681 20.783 34.468Z" fill="white"/>
<path d="M271.325 13.2056C271.271 13.1747 271.207 13.165 271.147 13.1786C271.086 13.1922 271.033 13.2281 270.998 13.2791L267.332 18.594C267.295 18.6477 267.281 18.7138 267.293 18.7779C267.305 18.8419 267.342 18.8986 267.396 18.9355L275.424 24.4343C275.478 24.4711 275.544 24.4852 275.608 24.4735C275.672 24.4618 275.729 24.4253 275.766 24.3719L279.447 19.0842C279.479 19.038 279.494 18.9824 279.49 18.9265C279.486 18.8707 279.463 18.8179 279.424 18.777L279.384 18.7335C279.368 18.717 279.351 18.7027 279.331 18.691L275.414 15.9822C275.406 15.9776 275.328 15.9193 275.322 15.9135L271.351 13.2228C271.343 13.2165 271.334 13.2108 271.325 13.2056Z" fill="#6F77F4"/>
<path d="M271.247 12.8277C271.193 12.7968 271.129 12.7873 271.069 12.8009C271.008 12.8146 270.955 12.8504 270.92 12.9013L267.254 18.2161C267.236 18.2426 267.223 18.2726 267.216 18.3041C267.209 18.3357 267.209 18.3682 267.215 18.3999C267.221 18.4317 267.233 18.4619 267.251 18.4889C267.268 18.516 267.291 18.5393 267.318 18.5575L275.346 24.0564C275.4 24.0932 275.466 24.1073 275.53 24.0956C275.594 24.0839 275.651 24.0473 275.688 23.9939L279.369 18.7064C279.401 18.6602 279.416 18.6046 279.412 18.5487C279.408 18.4928 279.385 18.44 279.346 18.399L279.306 18.3556C279.29 18.3391 279.273 18.3249 279.254 18.3133L275.337 15.6042C275.329 15.5999 275.251 15.5413 275.245 15.5356L271.274 12.8448C271.265 12.8386 271.256 12.8329 271.247 12.8277Z" fill="#D6D8F9"/>
<path d="M271.26 12.8361C271.26 12.8361 274.396 14.1191 275.243 15.5411L271.425 21.0763L267.454 18.3558L271.26 12.8361Z" fill="white"/>
<path d="M267.453 18.3548C267.453 18.3548 269.674 19.2429 270.842 20.2729C271.201 20.5899 271.425 21.0753 271.425 21.0753L267.453 18.3548Z" fill="#D6D8F9"/>
<path opacity="0.3" d="M273.124 18.2092C273.115 18.2093 273.107 18.2082 273.098 18.206C273.086 18.2026 273.074 18.1969 273.064 18.189C273.054 18.1812 273.046 18.1714 273.04 18.1602C272.695 17.5655 271.838 16.9937 271.179 16.6179C270.73 16.3626 270.267 16.1326 269.793 15.9288C269.77 15.9183 269.753 15.8996 269.744 15.8765C269.735 15.8534 269.735 15.8277 269.744 15.8049C269.754 15.782 269.772 15.7637 269.795 15.7537C269.818 15.7438 269.843 15.743 269.867 15.7515C270.345 15.9566 270.812 16.188 271.265 16.4446C272.258 17.0086 272.911 17.5537 273.207 18.0644C273.215 18.079 273.22 18.0955 273.22 18.1123C273.22 18.1291 273.215 18.1457 273.207 18.1602C273.198 18.1748 273.186 18.1869 273.172 18.1954C273.157 18.2038 273.14 18.2082 273.124 18.2083V18.2092ZM269.83 15.8366C269.829 15.8365 269.828 15.8368 269.827 15.8373C269.826 15.8378 269.826 15.8385 269.826 15.8393C269.825 15.8405 269.825 15.8417 269.826 15.8428C269.826 15.8439 269.827 15.8448 269.828 15.8453C270.306 16.0505 270.772 16.2821 271.224 16.5392C272.198 17.0935 272.835 17.6236 273.119 18.1154C273.12 18.1159 273.12 18.1164 273.121 18.1167C273.121 18.1171 273.122 18.1173 273.122 18.1175C273.123 18.1178 273.124 18.1178 273.125 18.1175C273.126 18.1169 273.127 18.1159 273.128 18.1148C273.128 18.1136 273.128 18.1123 273.127 18.1113C272.84 17.6147 272.198 17.082 271.22 16.5251C270.77 16.2704 270.306 16.0407 269.831 15.8371L269.83 15.8366ZM272.677 18.8565C272.668 18.8565 272.66 18.8555 272.652 18.8533C272.639 18.8499 272.628 18.8441 272.618 18.8363C272.608 18.8284 272.599 18.8186 272.593 18.8075C272.249 18.2128 271.392 17.641 270.732 17.2652C270.284 17.0099 269.821 16.7799 269.346 16.5761C269.335 16.5712 269.324 16.5642 269.315 16.5553C269.306 16.5464 269.299 16.5358 269.294 16.5241C269.289 16.5125 269.287 16.5 269.287 16.4874C269.287 16.4748 269.289 16.4624 269.294 16.4507C269.299 16.4391 269.306 16.4285 269.315 16.4196C269.324 16.4107 269.335 16.4036 269.346 16.3988C269.358 16.394 269.37 16.3915 269.383 16.3915C269.396 16.3915 269.408 16.394 269.42 16.3988C269.899 16.6038 270.366 16.8351 270.819 17.0916C271.812 17.6559 272.465 18.2009 272.76 18.7117C272.769 18.7263 272.773 18.7428 272.773 18.7597C272.773 18.7765 272.769 18.793 272.76 18.8076C272.752 18.8222 272.74 18.8343 272.725 18.8427C272.71 18.8512 272.694 18.8556 272.677 18.8556L272.677 18.8565ZM272.675 18.765C272.676 18.7652 272.676 18.7653 272.677 18.7653C272.678 18.7653 272.678 18.7652 272.679 18.765C272.68 18.7644 272.68 18.7634 272.681 18.7622C272.681 18.7611 272.681 18.7599 272.68 18.7588C272.393 18.2622 271.752 17.7295 270.773 17.1726C270.323 16.918 269.86 16.6883 269.385 16.4846C269.384 16.4844 269.384 16.4842 269.383 16.4843C269.382 16.4843 269.382 16.4844 269.381 16.4846C269.381 16.4849 269.38 16.4852 269.38 16.4856C269.379 16.486 269.379 16.4865 269.379 16.4871C269.379 16.4876 269.378 16.4882 269.378 16.4888C269.378 16.4893 269.379 16.4899 269.379 16.4905C269.379 16.491 269.379 16.4915 269.38 16.4919C269.38 16.4923 269.381 16.4926 269.381 16.4928C269.859 16.6983 270.325 16.93 270.778 17.187C271.751 17.7412 272.388 18.2714 272.673 18.7632C272.673 18.7636 272.673 18.764 272.674 18.7643C272.674 18.7646 272.675 18.7647 272.675 18.7648V18.765ZM274.028 16.881C274.011 16.8809 273.994 16.8764 273.979 16.8679C273.965 16.8595 273.953 16.8473 273.944 16.8327C273.278 15.6797 270.723 14.6118 270.697 14.6012C270.674 14.5909 270.657 14.5722 270.648 14.5491C270.638 14.526 270.639 14.5002 270.648 14.4773C270.658 14.4543 270.676 14.4359 270.699 14.4259C270.721 14.4159 270.747 14.4152 270.771 14.4237C271.249 14.629 271.716 14.8605 272.169 15.117C273.162 15.6811 273.816 16.2261 274.111 16.7371C274.124 16.7591 274.127 16.7853 274.12 16.8098C274.114 16.8343 274.098 16.8552 274.076 16.8679C274.061 16.8765 274.045 16.881 274.028 16.881ZM270.734 14.5081C270.733 14.5081 270.732 14.5084 270.732 14.5088C270.731 14.5093 270.73 14.51 270.73 14.5109C270.73 14.512 270.73 14.5132 270.73 14.5143C270.731 14.5154 270.731 14.5163 270.732 14.5168C271.211 14.7221 271.677 14.9539 272.129 15.211C273.102 15.765 273.74 16.2954 274.024 16.7872C274.024 16.7881 274.025 16.7888 274.027 16.7892C274.028 16.7897 274.029 16.7897 274.03 16.7892C274.031 16.7886 274.032 16.7876 274.032 16.7865C274.032 16.7853 274.032 16.7841 274.032 16.7831C273.745 16.2865 273.103 15.7538 272.124 15.1968C271.674 14.9422 271.211 14.7126 270.736 14.5088L270.734 14.5081ZM274.473 16.1314C274.465 16.1314 274.456 16.1302 274.448 16.128C274.436 16.1246 274.424 16.1188 274.414 16.111C274.404 16.1031 274.396 16.0934 274.39 16.0822C274.046 15.4876 273.188 14.9157 272.529 14.5402C272.08 14.2849 271.617 14.0548 271.143 13.8508C271.125 13.8436 271.11 13.8313 271.099 13.8155C271.089 13.7997 271.083 13.7811 271.083 13.762C271.083 13.743 271.089 13.7244 271.099 13.7086C271.11 13.6928 271.125 13.6805 271.143 13.6733C271.154 13.6684 271.167 13.6658 271.18 13.6658C271.192 13.6658 271.205 13.6684 271.216 13.6733C271.695 13.8783 272.162 14.1096 272.614 14.3661C273.607 14.9301 274.261 15.4752 274.556 15.9862C274.565 16.0008 274.569 16.0173 274.569 16.0341C274.569 16.051 274.565 16.0675 274.556 16.0821C274.548 16.0967 274.536 16.1088 274.521 16.1172C274.506 16.1256 274.49 16.1301 274.473 16.13L274.473 16.1314ZM274.472 16.0399C274.473 16.0402 274.473 16.0404 274.474 16.0404C274.474 16.0404 274.475 16.0402 274.475 16.0399C274.476 16.0397 274.476 16.0393 274.477 16.0389C274.477 16.0384 274.477 16.0379 274.478 16.0373C274.478 16.0368 274.478 16.0362 274.478 16.0356C274.478 16.035 274.477 16.0345 274.477 16.034C274.19 15.5372 273.548 15.0047 272.57 14.4478C272.12 14.193 271.657 13.9634 271.181 13.7597C271.181 13.7595 271.18 13.7594 271.18 13.7594C271.179 13.7594 271.179 13.7595 271.178 13.7597C271.178 13.76 271.177 13.7603 271.177 13.7608C271.176 13.7612 271.176 13.7617 271.176 13.7623C271.175 13.7628 271.175 13.7634 271.175 13.764C271.175 13.7646 271.175 13.7652 271.176 13.7657C271.176 13.7663 271.176 13.7668 271.177 13.7672C271.177 13.7677 271.177 13.768 271.178 13.7682C271.204 13.779 273.787 14.8576 274.47 16.0386C274.47 16.0389 274.47 16.0392 274.471 16.0394C274.471 16.0396 274.472 16.0397 274.472 16.0397V16.0399ZM273.581 17.5285C273.572 17.5286 273.564 17.5275 273.555 17.5253C273.543 17.522 273.531 17.5162 273.521 17.5083C273.511 17.5005 273.503 17.4907 273.497 17.4795C272.831 16.3258 270.275 15.2586 270.25 15.2481C270.227 15.2377 270.209 15.219 270.2 15.1959C270.191 15.1728 270.191 15.1471 270.201 15.1241C270.21 15.1011 270.228 15.0827 270.251 15.0727C270.274 15.0628 270.3 15.062 270.323 15.0706C270.802 15.2757 271.269 15.5071 271.722 15.7639C272.715 16.3279 273.368 16.873 273.664 17.3837C273.672 17.3983 273.677 17.4148 273.677 17.4316C273.677 17.4484 273.672 17.465 273.664 17.4795C273.655 17.4941 273.643 17.5062 273.629 17.5147C273.614 17.5231 273.597 17.5276 273.581 17.5276V17.5285ZM270.287 15.1559C270.286 15.1559 270.285 15.1561 270.284 15.1566C270.284 15.1571 270.283 15.1578 270.283 15.1586C270.282 15.1592 270.282 15.1598 270.282 15.1603C270.282 15.1609 270.282 15.1615 270.283 15.162C270.283 15.1626 270.283 15.1631 270.284 15.1635C270.284 15.1638 270.285 15.1642 270.285 15.1644C270.763 15.3698 271.229 15.6016 271.681 15.8586C272.655 16.4128 273.292 16.9429 273.576 17.4347C273.577 17.4352 273.577 17.4357 273.578 17.436C273.578 17.4364 273.579 17.4366 273.579 17.4368C273.58 17.437 273.58 17.4371 273.581 17.4371C273.581 17.4371 273.582 17.437 273.582 17.4368C273.583 17.4361 273.584 17.4351 273.584 17.434C273.585 17.4329 273.585 17.4317 273.584 17.4306C273.297 16.934 272.655 16.4013 271.677 15.8444C271.227 15.5896 270.763 15.3599 270.288 15.1564L270.287 15.1559ZM272.23 19.5042C272.221 19.5042 272.213 19.5031 272.205 19.501C272.192 19.4977 272.181 19.4919 272.171 19.484C272.161 19.4762 272.152 19.4664 272.146 19.4553C271.481 18.3018 268.925 17.2346 268.899 17.2238C268.877 17.2134 268.859 17.1946 268.85 17.1715C268.841 17.1484 268.841 17.1228 268.851 17.0999C268.86 17.077 268.878 17.0587 268.901 17.0488C268.924 17.0388 268.95 17.038 268.973 17.0466C269.452 17.2518 269.918 17.4832 270.371 17.7396C271.365 18.3036 272.018 18.8489 272.313 19.3597C272.326 19.3818 272.329 19.408 272.323 19.4325C272.316 19.4571 272.3 19.4781 272.278 19.4907C272.263 19.4994 272.247 19.504 272.23 19.5042ZM272.229 19.4127C272.229 19.413 272.23 19.4131 272.23 19.4131C272.231 19.4131 272.231 19.413 272.232 19.4127C272.233 19.4122 272.234 19.4112 272.234 19.41C272.234 19.4089 272.234 19.4076 272.234 19.4066C271.947 18.91 271.305 18.3773 270.326 17.8203C269.876 17.5656 269.413 17.336 268.938 17.1323C268.937 17.1319 268.936 17.1318 268.935 17.1323C268.933 17.1327 268.932 17.1335 268.932 17.1346C268.932 17.1357 268.932 17.137 268.932 17.1381C268.932 17.1392 268.933 17.1401 268.935 17.1406C269.413 17.346 269.879 17.5778 270.331 17.8348C271.304 18.389 271.942 18.9192 272.226 19.4109C272.227 19.4118 272.227 19.4123 272.229 19.4125V19.4127ZM270.555 18.9937C270.546 18.9937 270.538 18.9926 270.53 18.9905C270.52 18.9877 270.51 18.9832 270.501 18.9772C269.558 18.3396 268.46 17.8823 268.449 17.8778C268.425 17.868 268.406 17.8493 268.396 17.8258C268.387 17.8023 268.387 17.7759 268.396 17.7524C268.406 17.7289 268.425 17.7102 268.449 17.7005C268.472 17.6908 268.499 17.6908 268.522 17.7005C268.568 17.7197 269.658 18.1753 270.609 18.8183C270.626 18.8298 270.639 18.8465 270.646 18.8659C270.652 18.8853 270.653 18.9063 270.647 18.9259C270.641 18.9455 270.629 18.9627 270.612 18.9749C270.595 18.9871 270.575 18.9937 270.555 18.9937ZM268.485 17.7847C268.484 17.7847 268.483 17.7849 268.482 17.7854C268.481 17.7859 268.481 17.7866 268.48 17.7874C268.48 17.7885 268.48 17.7898 268.481 17.7909C268.481 17.792 268.482 17.7929 268.483 17.7934C268.494 17.7979 269.601 18.2586 270.552 18.9015H270.553C270.554 18.9018 270.555 18.9018 270.556 18.9015C270.557 18.9011 270.557 18.9005 270.558 18.8997C270.559 18.8989 270.559 18.8978 270.559 18.8966C270.559 18.8955 270.559 18.8944 270.558 18.8935C269.614 18.2556 268.499 17.7892 268.487 17.7847H268.485Z" fill="black"/>
<path d="M279.283 18.3309C279.283 18.3309 276.957 15.873 275.322 15.5948L271.504 21.1301L275.475 23.8505L279.283 18.3309Z" fill="white"/>
<path d="M275.476 23.8501C275.476 23.8501 273.848 22.1022 272.465 21.3844C272.039 21.1635 271.504 21.1296 271.504 21.1296L275.476 23.8501Z" fill="#D6D8F9"/>
<path opacity="0.3" d="M278.321 18.8913C278.313 18.8913 278.304 18.8902 278.296 18.8879C278.278 18.8835 278.263 18.8743 278.25 18.8614C278.231 18.8413 276.313 16.8463 274.996 16.6402C274.971 16.6353 274.95 16.6212 274.936 16.6009C274.921 16.5805 274.916 16.5555 274.92 16.531C274.923 16.5065 274.937 16.4845 274.957 16.4695C274.976 16.4545 275.001 16.4477 275.026 16.4506C275.611 16.5421 276.356 16.9552 277.239 17.6766C277.642 18.0059 278.026 18.3572 278.39 18.7287C278.403 18.7423 278.411 18.7593 278.415 18.7776C278.418 18.796 278.416 18.8149 278.408 18.8321C278.401 18.8492 278.389 18.8639 278.373 18.8743C278.358 18.8847 278.34 18.8904 278.321 18.8907L278.321 18.8913ZM278.32 18.7999C278.32 18.8002 278.321 18.8004 278.322 18.8004C278.323 18.8004 278.323 18.8002 278.324 18.7999C278.325 18.7995 278.325 18.799 278.325 18.7985C278.325 18.798 278.326 18.7974 278.326 18.7969C278.326 18.7958 278.326 18.7947 278.326 18.7937C277.964 18.4249 277.583 18.0761 277.184 17.7488C276.311 17.0377 275.583 16.632 275.014 16.5423C275.013 16.5422 275.011 16.5425 275.01 16.5432C275.01 16.544 275.009 16.545 275.009 16.5462C275.009 16.5473 275.009 16.5485 275.01 16.5494C275.01 16.5503 275.011 16.551 275.012 16.5512C275.575 16.6393 276.3 17.0423 277.168 17.7491C277.571 18.0779 277.955 18.4287 278.319 18.7999H278.32ZM277.874 19.5391C277.866 19.5391 277.857 19.5379 277.849 19.5357C277.832 19.5313 277.816 19.5221 277.803 19.5091C277.784 19.489 275.861 17.4929 274.549 17.288C274.525 17.283 274.503 17.2689 274.489 17.2486C274.475 17.2283 274.469 17.2034 274.473 17.1789C274.477 17.1545 274.49 17.1325 274.51 17.1175C274.53 17.1025 274.554 17.0956 274.579 17.0983C275.164 17.1898 275.909 17.6015 276.793 18.3243C277.195 18.6538 277.579 19.0051 277.943 19.3765C277.956 19.39 277.964 19.4071 277.968 19.4254C277.971 19.4438 277.969 19.4628 277.962 19.48C277.954 19.4972 277.942 19.5119 277.927 19.5224C277.911 19.5328 277.893 19.5384 277.874 19.5386L277.874 19.5391ZM277.873 19.4476C277.874 19.4478 277.875 19.4478 277.875 19.4476C277.876 19.4474 277.877 19.447 277.877 19.4465C277.878 19.4456 277.878 19.4445 277.878 19.4434C277.878 19.4422 277.878 19.4412 277.877 19.4403C277.516 19.071 277.135 18.7221 276.735 18.3952C275.863 17.6841 275.134 17.2784 274.566 17.1889C274.565 17.1888 274.565 17.1888 274.564 17.189C274.563 17.1891 274.563 17.1894 274.562 17.1897C274.562 17.19 274.562 17.1905 274.561 17.191C274.561 17.1915 274.561 17.192 274.561 17.1926C274.561 17.1932 274.561 17.1938 274.561 17.1944C274.561 17.195 274.561 17.1955 274.562 17.196C274.562 17.1965 274.562 17.1969 274.563 17.1972C274.563 17.1976 274.564 17.1978 274.565 17.1978C275.127 17.2857 275.852 17.6887 276.72 18.3957C277.123 18.7248 277.507 19.0755 277.871 19.4462C277.871 19.4468 277.872 19.4472 277.873 19.4474L277.873 19.4476ZM277.427 20.1866C277.419 20.1867 277.41 20.1856 277.402 20.1834C277.385 20.179 277.369 20.1698 277.356 20.1569C277.337 20.1368 275.42 18.1413 274.102 17.9355C274.09 17.9336 274.078 17.9293 274.067 17.9228C274.056 17.9162 274.047 17.9077 274.04 17.8975C274.028 17.8823 274.022 17.864 274.021 17.8451C274.02 17.8262 274.025 17.8075 274.035 17.7913C274.045 17.7751 274.059 17.7622 274.076 17.7542C274.093 17.7461 274.113 17.7433 274.131 17.7461C274.716 17.8376 275.461 18.2493 276.345 18.9721C276.747 19.3017 277.131 19.6529 277.495 20.0242C277.513 20.0427 277.522 20.0673 277.522 20.0928C277.521 20.1182 277.51 20.1423 277.492 20.1599C277.474 20.1765 277.451 20.186 277.427 20.1866ZM274.119 17.8362C274.117 17.8362 274.116 17.8366 274.116 17.8373C274.115 17.838 274.114 17.839 274.114 17.8401C274.114 17.8407 274.114 17.8412 274.114 17.8418C274.114 17.8424 274.114 17.843 274.114 17.8435C274.114 17.844 274.115 17.8444 274.115 17.8447C274.116 17.845 274.116 17.8451 274.117 17.8451C274.68 17.9332 275.405 18.3362 276.273 19.0432C276.675 19.372 277.06 19.7227 277.423 20.0938L277.425 20.0951C277.426 20.0954 277.427 20.0956 277.427 20.0956C277.428 20.0956 277.429 20.0954 277.43 20.0951C277.43 20.0943 277.431 20.0932 277.431 20.092C277.431 20.0909 277.43 20.0898 277.43 20.089C277.069 19.7196 276.688 19.3707 276.288 19.0439C275.415 18.3328 274.687 17.927 274.118 17.8376L274.119 17.8362ZM276.98 20.8344C276.972 20.8343 276.964 20.8333 276.956 20.8312C276.938 20.8268 276.922 20.8176 276.91 20.8046C276.891 20.7845 274.972 18.7893 273.656 18.5832C273.643 18.5813 273.631 18.5769 273.62 18.5703C273.61 18.5638 273.6 18.5552 273.593 18.545C273.585 18.5348 273.58 18.5233 273.577 18.5111C273.574 18.4988 273.574 18.4861 273.576 18.4737C273.577 18.4613 273.582 18.4493 273.588 18.4386C273.595 18.4278 273.604 18.4185 273.614 18.4111C273.624 18.4037 273.636 18.3983 273.648 18.3954C273.66 18.3924 273.673 18.3919 273.685 18.3939C274.27 18.4854 275.015 18.8971 275.899 19.6198C276.302 19.9492 276.686 20.3005 277.05 20.672C277.058 20.6811 277.065 20.6919 277.07 20.7037C277.074 20.7154 277.076 20.728 277.076 20.7406C277.076 20.7532 277.073 20.7656 277.068 20.7771C277.062 20.7886 277.055 20.799 277.046 20.8076C277.028 20.8245 277.005 20.8341 276.98 20.8344ZM276.98 20.7429C276.981 20.7432 276.982 20.7433 276.983 20.7433C276.983 20.7433 276.984 20.7432 276.985 20.7429C276.986 20.742 276.986 20.7409 276.986 20.7397C276.986 20.7391 276.986 20.7386 276.986 20.738C276.986 20.7375 276.985 20.7371 276.985 20.7367C276.624 20.3677 276.242 20.0188 275.843 19.6917C274.971 18.9805 274.242 18.5748 273.673 18.4854C273.672 18.4854 273.671 18.4858 273.67 18.4866C273.669 18.4874 273.669 18.4885 273.669 18.4897C273.669 18.4908 273.669 18.492 273.67 18.4928C273.671 18.4936 273.672 18.494 273.673 18.494C274.236 18.5821 274.961 18.9851 275.829 19.6921C276.232 20.0209 276.616 20.3716 276.98 20.7427L276.982 20.744L276.98 20.7429ZM276.539 21.5164C276.53 21.5164 276.522 21.5153 276.514 21.513C276.496 21.5087 276.48 21.4995 276.468 21.4865C276.449 21.4664 274.531 19.4712 273.214 19.2651C273.201 19.2631 273.189 19.2588 273.178 19.2522C273.168 19.2456 273.158 19.237 273.151 19.2268C273.143 19.2167 273.138 19.2051 273.135 19.1929C273.132 19.1807 273.131 19.168 273.133 19.1555C273.137 19.1304 273.151 19.1079 273.172 19.0928C273.192 19.0778 273.218 19.0716 273.243 19.0755C273.828 19.167 274.573 19.58 275.457 20.3017C275.859 20.6311 276.243 20.9824 276.607 21.3538C276.62 21.3674 276.629 21.3844 276.632 21.4028C276.635 21.4212 276.633 21.4402 276.626 21.4574C276.619 21.4746 276.607 21.4893 276.591 21.4997C276.575 21.5101 276.557 21.5158 276.538 21.516L276.539 21.5164ZM276.537 21.425C276.538 21.4253 276.539 21.4255 276.54 21.4255C276.54 21.4255 276.541 21.4253 276.542 21.425C276.543 21.4241 276.543 21.423 276.543 21.4219C276.543 21.4207 276.543 21.4196 276.542 21.4188C276.181 21.0498 275.799 20.701 275.4 20.3737C274.528 19.6626 273.799 19.2566 273.23 19.1674C273.23 19.1673 273.229 19.1673 273.229 19.1674C273.228 19.1675 273.227 19.1678 273.227 19.1681C273.226 19.1684 273.226 19.1689 273.226 19.1694C273.225 19.1699 273.225 19.1705 273.225 19.1711C273.225 19.1716 273.225 19.1722 273.225 19.1728C273.225 19.1734 273.225 19.174 273.225 19.1745C273.225 19.175 273.226 19.1753 273.226 19.1756C273.227 19.1759 273.227 19.1761 273.228 19.1761C273.791 19.2642 274.516 19.6672 275.384 20.3742C275.787 20.7029 276.171 21.0536 276.534 21.4247L276.537 21.4261L276.537 21.425ZM276.084 22.1917C276.075 22.1917 276.067 22.1906 276.059 22.1884C276.042 22.1841 276.026 22.1749 276.013 22.1619C275.994 22.1418 274.076 20.1468 272.759 19.9407C272.735 19.9358 272.713 19.9217 272.699 19.9014C272.685 19.8811 272.679 19.8562 272.683 19.8317C272.687 19.8073 272.7 19.7853 272.72 19.7703C272.739 19.7553 272.764 19.7484 272.789 19.7511C273.374 19.8426 274.119 20.2557 275.003 20.9771C275.405 21.3067 275.789 21.6579 276.153 22.0293C276.17 22.0477 276.18 22.0724 276.179 22.0978C276.178 22.1232 276.168 22.1473 276.149 22.1649C276.132 22.1817 276.108 22.1913 276.084 22.1917ZM272.775 19.8415C272.774 19.8415 272.773 19.8418 272.772 19.8425C272.771 19.8432 272.771 19.8441 272.771 19.8451C272.771 19.8457 272.77 19.8463 272.77 19.8469C272.77 19.8474 272.771 19.848 272.771 19.8486C272.771 19.849 272.772 19.8494 272.772 19.8497C272.773 19.85 272.773 19.8501 272.774 19.8502C273.336 19.9385 274.062 20.3415 274.929 21.0482C275.332 21.377 275.716 21.7277 276.08 22.0988C276.081 22.0994 276.081 22.0999 276.082 22.1002C276.083 22.1003 276.084 22.1002 276.085 22.0998C276.086 22.0994 276.086 22.0988 276.087 22.098C276.087 22.0972 276.088 22.0963 276.088 22.0954C276.088 22.0944 276.087 22.0936 276.087 22.0928C275.726 21.7235 275.345 21.3746 274.945 21.0478C274.072 20.3369 273.344 19.9309 272.775 19.8415ZM274.63 21.9524C274.621 21.9524 274.613 21.9513 274.605 21.9492C274.591 21.9456 274.578 21.9389 274.568 21.9298C273.942 21.4057 273.044 20.7571 272.324 20.6441C272.299 20.6392 272.278 20.6251 272.264 20.6048C272.249 20.5844 272.244 20.5594 272.248 20.5349C272.251 20.5104 272.265 20.4884 272.285 20.4734C272.304 20.4584 272.329 20.4516 272.354 20.4545C273.118 20.5741 274.047 21.2431 274.692 21.7831C274.707 21.7958 274.717 21.8128 274.723 21.8318C274.728 21.8508 274.727 21.8709 274.72 21.8894C274.713 21.9079 274.701 21.9239 274.685 21.9351C274.669 21.9464 274.649 21.9524 274.63 21.9524ZM272.339 20.5448C272.338 20.5448 272.337 20.5451 272.336 20.5458C272.335 20.5465 272.335 20.5474 272.334 20.5485C272.334 20.5497 272.335 20.5509 272.335 20.5519C272.336 20.5528 272.337 20.5535 272.338 20.5537C273.08 20.6699 273.991 21.3282 274.627 21.86L274.616 21.9057L274.628 21.8614C274.629 21.8616 274.63 21.8617 274.631 21.8614C274.632 21.8612 274.632 21.8607 274.633 21.86C274.633 21.8596 274.634 21.8591 274.634 21.8586C274.634 21.8581 274.634 21.8575 274.634 21.8569C274.634 21.8563 274.634 21.8558 274.634 21.8552C274.634 21.8547 274.633 21.8542 274.633 21.8538C273.997 21.3213 273.083 20.6619 272.34 20.5455L272.339 20.5448Z" fill="black"/>
<path d="M102.404 30.3254C102.457 30.2947 102.52 30.2851 102.58 30.2986C102.64 30.3121 102.693 30.3477 102.728 30.3982L106.363 35.6691C106.4 35.7224 106.414 35.788 106.402 35.8515C106.39 35.915 106.354 35.9712 106.3 36.0078L98.3386 41.4611C98.2853 41.4976 98.2197 41.5115 98.1561 41.4999C98.0925 41.4883 98.036 41.4521 97.9992 41.3991L94.3486 36.1552C94.317 36.1095 94.3019 36.0543 94.3061 35.9989C94.3102 35.9435 94.3333 35.8912 94.3714 35.8506L94.4117 35.8075C94.4269 35.7911 94.4443 35.7769 94.4634 35.7653L98.3486 33.0789C98.3559 33.0744 98.4337 33.0166 98.4397 33.0109L102.377 30.3424C102.386 30.3362 102.395 30.3305 102.404 30.3254Z" fill="#6F77F4"/>
<path d="M102.482 29.9508C102.536 29.9202 102.598 29.9107 102.658 29.9242C102.718 29.9378 102.771 29.9733 102.806 30.0238L106.442 35.2945C106.46 35.3208 106.473 35.3505 106.479 35.3818C106.486 35.4131 106.486 35.4454 106.481 35.4768C106.475 35.5083 106.463 35.5383 106.445 35.5651C106.428 35.5919 106.405 35.615 106.379 35.6331L98.4169 41.0864C98.3636 41.1229 98.298 41.1369 98.2343 41.1253C98.1707 41.1137 98.1143 41.0774 98.0775 41.0245L94.4269 35.7808C94.3953 35.735 94.3804 35.6798 94.3845 35.6244C94.3887 35.569 94.4116 35.5166 94.4497 35.476L94.49 35.4329C94.5052 35.4166 94.5226 35.4024 94.5416 35.3909L98.426 32.7043C98.4333 32.7 98.5111 32.6419 98.517 32.6362L102.455 29.9678C102.464 29.9616 102.473 29.9559 102.482 29.9508Z" fill="#D6D8F9"/>
<path d="M102.469 29.9587C102.469 29.9587 99.359 31.231 98.5192 32.6412L102.305 38.1305L106.244 35.4326L102.469 29.9587Z" fill="white"/>
<path d="M106.245 35.4327C106.245 35.4327 104.043 36.3135 102.885 37.335C102.528 37.6493 102.306 38.1307 102.306 38.1307L106.245 35.4327Z" fill="#D6D8F9"/>
<path opacity="0.3" d="M100.621 35.2879C100.629 35.288 100.638 35.2869 100.646 35.2848C100.658 35.2814 100.669 35.2757 100.679 35.2679C100.689 35.2601 100.698 35.2504 100.704 35.2394C101.045 34.6496 101.895 34.0825 102.549 33.7099C102.994 33.4567 103.453 33.2285 103.924 33.0264C103.946 33.016 103.964 32.9974 103.973 32.9745C103.982 32.9517 103.981 32.9262 103.972 32.9035C103.962 32.8808 103.944 32.8627 103.922 32.8528C103.899 32.843 103.874 32.8422 103.851 32.8506C103.376 33.054 102.913 33.2835 102.464 33.5379C101.479 34.0973 100.831 34.6378 100.538 35.1443C100.53 35.1588 100.525 35.1752 100.525 35.1918C100.525 35.2085 100.53 35.2249 100.538 35.2394C100.547 35.2538 100.559 35.2659 100.573 35.2742C100.588 35.2826 100.604 35.287 100.621 35.287V35.2879ZM103.887 32.935C103.888 32.9349 103.889 32.9352 103.89 32.9357C103.89 32.9362 103.891 32.9369 103.891 32.9377C103.892 32.9388 103.892 32.9401 103.891 32.9412C103.891 32.9422 103.89 32.9431 103.889 32.9436C103.415 33.1471 102.952 33.3768 102.504 33.6318C101.539 34.1814 100.907 34.7072 100.625 35.1949C100.625 35.1954 100.624 35.1959 100.624 35.1962C100.623 35.1966 100.623 35.1968 100.622 35.197C100.621 35.1973 100.62 35.1973 100.619 35.197C100.618 35.1964 100.617 35.1954 100.617 35.1943C100.616 35.1931 100.616 35.1919 100.617 35.1908C100.902 34.6984 101.538 34.1701 102.509 33.6178C102.955 33.3652 103.414 33.1374 103.886 32.9355L103.887 32.935ZM101.064 35.9299C101.072 35.9299 101.081 35.9289 101.089 35.9267C101.101 35.9233 101.112 35.9176 101.122 35.9098C101.132 35.902 101.14 35.8923 101.147 35.8813C101.488 35.2916 102.338 34.7245 102.992 34.3518C103.437 34.0986 103.896 33.8704 104.367 33.6683C104.378 33.6636 104.389 33.6566 104.398 33.6477C104.406 33.6389 104.414 33.6284 104.418 33.6169C104.423 33.6053 104.426 33.5929 104.426 33.5805C104.426 33.568 104.423 33.5556 104.418 33.544C104.414 33.5325 104.406 33.522 104.398 33.5132C104.389 33.5043 104.378 33.4973 104.367 33.4926C104.355 33.4878 104.343 33.4853 104.33 33.4853C104.318 33.4853 104.305 33.4878 104.294 33.4926C103.819 33.6958 103.356 33.9252 102.907 34.1796C101.922 34.7392 101.274 35.2798 100.981 35.7863C100.973 35.8007 100.968 35.8171 100.968 35.8338C100.968 35.8505 100.973 35.867 100.981 35.8814C100.989 35.8959 101.001 35.9079 101.016 35.9162C101.03 35.9246 101.047 35.929 101.064 35.929L101.064 35.9299ZM101.065 35.8391C101.065 35.8394 101.064 35.8395 101.064 35.8395C101.063 35.8395 101.062 35.8394 101.062 35.8391C101.061 35.8385 101.06 35.8375 101.06 35.8364C101.06 35.8352 101.06 35.834 101.06 35.833C101.345 35.3406 101.981 34.8123 102.952 34.2599C103.398 34.0074 103.857 33.7796 104.329 33.5776C104.329 33.5774 104.33 33.5773 104.33 33.5773C104.331 33.5773 104.331 33.5774 104.332 33.5777C104.333 33.5779 104.333 33.5782 104.333 33.5786C104.334 33.5791 104.334 33.5796 104.334 33.5801C104.335 33.5806 104.335 33.5812 104.335 33.5818C104.335 33.5823 104.335 33.5829 104.334 33.5835C104.334 33.584 104.334 33.5845 104.333 33.5849C104.333 33.5853 104.333 33.5856 104.332 33.5858C103.858 33.7895 103.396 34.0194 102.947 34.2742C101.982 34.8238 101.35 35.3496 101.068 35.8373C101.068 35.8378 101.067 35.8381 101.067 35.8384C101.066 35.8387 101.066 35.8389 101.065 35.8389V35.8391ZM99.7241 33.9707C99.7409 33.9707 99.7574 33.9662 99.7719 33.9578C99.7864 33.9494 99.7985 33.9374 99.8069 33.9229C100.467 32.7794 103.002 31.7203 103.027 31.7099C103.049 31.6996 103.067 31.6811 103.076 31.6582C103.085 31.6352 103.085 31.6097 103.076 31.5869C103.066 31.5642 103.048 31.5459 103.026 31.536C103.003 31.5261 102.977 31.5253 102.954 31.5339C102.48 31.7374 102.016 31.967 101.567 32.2214C100.582 32.7808 99.9344 33.3213 99.6414 33.828C99.6289 33.8499 99.6255 33.8758 99.6321 33.9001C99.6387 33.9244 99.6546 33.9452 99.6765 33.9578C99.6909 33.9663 99.7073 33.9707 99.7241 33.9707ZM102.99 31.6176C102.991 31.6175 102.992 31.6178 102.993 31.6183C102.993 31.6187 102.994 31.6194 102.994 31.6203C102.995 31.6214 102.995 31.6226 102.994 31.6237C102.994 31.6248 102.993 31.6257 102.992 31.6262C102.518 31.8298 102.055 32.0596 101.607 32.3146C100.642 32.864 100.01 33.39 99.7279 33.8777C99.7272 33.8786 99.7263 33.8793 99.7252 33.8798C99.7241 33.8802 99.7229 33.8802 99.7218 33.8798C99.7208 33.8791 99.7201 33.8781 99.7198 33.877C99.7195 33.8759 99.7196 33.8747 99.7202 33.8736C100.005 33.3812 100.641 32.8529 101.612 32.3006C102.058 32.0481 102.517 31.8203 102.989 31.6182L102.99 31.6176ZM99.282 33.2274C99.2904 33.2274 99.2989 33.2262 99.307 33.224C99.3192 33.2206 99.3306 33.2149 99.3405 33.2071C99.3505 33.1993 99.3587 33.1896 99.3648 33.1786C99.7063 32.5889 100.557 32.0218 101.21 31.6493C101.655 31.3962 102.114 31.1679 102.585 30.9656C102.603 30.9585 102.618 30.9463 102.628 30.9307C102.639 30.915 102.644 30.8965 102.644 30.8776C102.644 30.8587 102.639 30.8403 102.628 30.8246C102.618 30.8089 102.603 30.7967 102.585 30.7896C102.573 30.7847 102.561 30.7822 102.549 30.7822C102.536 30.7822 102.524 30.7847 102.512 30.7896C102.038 30.9929 101.575 31.2223 101.126 31.4767C100.141 32.0361 99.4928 32.5766 99.2 33.0833C99.1916 33.0978 99.1872 33.1142 99.1872 33.1309C99.1872 33.1476 99.1916 33.164 99.2 33.1785C99.2083 33.193 99.2204 33.205 99.2349 33.2133C99.2494 33.2217 99.2659 33.226 99.2827 33.226L99.282 33.2274ZM99.2834 33.1367C99.2828 33.1369 99.2822 33.1371 99.2816 33.1371C99.2811 33.1371 99.2805 33.1369 99.2799 33.1367C99.2794 33.1364 99.279 33.136 99.2786 33.1356C99.2782 33.1351 99.278 33.1346 99.2778 33.1341C99.2777 33.1335 99.2776 33.1329 99.2777 33.1324C99.2778 33.1318 99.278 33.1312 99.2783 33.1308C99.5629 32.6381 100.199 32.11 101.17 31.5577C101.616 31.3051 102.076 31.0773 102.547 30.8754C102.547 30.8751 102.548 30.875 102.548 30.875C102.549 30.875 102.549 30.8751 102.55 30.8754C102.55 30.8756 102.551 30.8759 102.551 30.8764C102.552 30.8768 102.552 30.8773 102.552 30.8779C102.553 30.8784 102.553 30.879 102.553 30.8796C102.553 30.8802 102.553 30.8807 102.553 30.8813C102.552 30.8819 102.552 30.8824 102.552 30.8828C102.551 30.8832 102.551 30.8835 102.55 30.8838C102.524 30.8944 99.9628 31.9642 99.2859 33.1353C99.2856 33.1357 99.2852 33.1359 99.2847 33.1361C99.2843 33.1363 99.2838 33.1364 99.2834 33.1364V33.1367ZM100.167 34.6129C100.176 34.613 100.184 34.6119 100.193 34.6097C100.205 34.6064 100.216 34.6007 100.226 34.5929C100.236 34.5851 100.244 34.5754 100.251 34.5643C100.911 33.4202 103.445 32.3618 103.471 32.3514C103.493 32.3411 103.511 32.3226 103.52 32.2996C103.529 32.2767 103.529 32.2512 103.519 32.2284C103.51 32.2056 103.492 32.1874 103.469 32.1775C103.447 32.1676 103.421 32.1668 103.398 32.1753C102.923 32.3787 102.46 32.6083 102.011 32.8629C101.026 33.4222 100.378 33.9628 100.085 34.4693C100.077 34.4837 100.072 34.5001 100.072 34.5168C100.072 34.5335 100.077 34.5499 100.085 34.5643C100.093 34.5788 100.105 34.5908 100.12 34.5992C100.134 34.6075 100.151 34.6119 100.167 34.612V34.6129ZM103.434 32.2599C103.435 32.2599 103.436 32.2602 103.436 32.2606C103.437 32.2611 103.438 32.2618 103.438 32.2627C103.438 32.2632 103.438 32.2638 103.438 32.2644C103.438 32.2649 103.438 32.2655 103.438 32.266C103.438 32.2666 103.438 32.267 103.437 32.2674C103.437 32.2678 103.436 32.2681 103.436 32.2683C102.962 32.4721 102.499 32.7019 102.051 32.9568C101.086 33.5064 100.453 34.0322 100.172 34.5199C100.171 34.5204 100.171 34.5208 100.17 34.5212C100.17 34.5215 100.169 34.5218 100.169 34.5219C100.168 34.5221 100.168 34.5223 100.167 34.5223C100.167 34.5223 100.166 34.5221 100.166 34.5219C100.165 34.5213 100.164 34.5203 100.164 34.5192C100.163 34.5181 100.163 34.5169 100.164 34.5158C100.449 34.0233 101.085 33.495 102.056 32.9427C102.502 32.6901 102.961 32.4623 103.432 32.2604L103.434 32.2599ZM101.507 36.5723C101.515 36.5722 101.524 36.5711 101.532 36.5691C101.544 36.5657 101.556 36.56 101.566 36.5522C101.575 36.5444 101.584 36.5347 101.59 36.5237C102.25 35.3798 104.784 34.3214 104.81 34.3107C104.832 34.3004 104.85 34.2818 104.859 34.2589C104.868 34.236 104.867 34.2105 104.858 34.1878C104.848 34.1652 104.831 34.147 104.808 34.1371C104.785 34.1273 104.76 34.1265 104.737 34.1349C104.262 34.3385 103.799 34.5679 103.35 34.8222C102.365 35.3816 101.717 35.9224 101.424 36.4289C101.412 36.4508 101.408 36.4768 101.415 36.5012C101.422 36.5255 101.438 36.5463 101.46 36.5589C101.474 36.5674 101.49 36.5721 101.507 36.5723ZM101.508 36.4815C101.508 36.4817 101.507 36.4819 101.507 36.4819C101.506 36.4819 101.506 36.4817 101.505 36.4815C101.504 36.4809 101.503 36.48 101.503 36.4788C101.503 36.4777 101.503 36.4764 101.503 36.4754C101.788 35.9829 102.424 35.4546 103.395 34.9023C103.841 34.6497 104.3 34.4219 104.772 34.22C104.773 34.2195 104.774 34.2195 104.775 34.2199C104.776 34.2204 104.777 34.2212 104.778 34.2223C104.778 34.2234 104.778 34.2246 104.777 34.2257C104.777 34.2268 104.776 34.2277 104.775 34.2282C104.301 34.4319 103.839 34.6617 103.39 34.9166C102.425 35.4662 101.793 35.992 101.511 36.4797C101.51 36.4805 101.509 36.4811 101.508 36.4813V36.4815ZM103.168 36.066C103.176 36.0659 103.185 36.0648 103.193 36.0628C103.203 36.0599 103.213 36.0555 103.221 36.0496C104.157 35.4172 105.246 34.9638 105.257 34.9592C105.28 34.9496 105.299 34.9311 105.309 34.9078C105.318 34.8844 105.318 34.8583 105.309 34.8349C105.299 34.8116 105.28 34.7931 105.257 34.7835C105.234 34.7738 105.207 34.7738 105.184 34.7835C105.138 34.8025 104.058 35.2544 103.114 35.892C103.098 35.9034 103.085 35.92 103.078 35.9392C103.071 35.9584 103.071 35.9793 103.077 35.9987C103.083 36.0182 103.095 36.0352 103.111 36.0473C103.128 36.0594 103.148 36.0659 103.168 36.066ZM105.221 34.8669C105.222 34.8669 105.223 34.8672 105.224 34.8677C105.224 34.8681 105.225 34.8688 105.225 34.8697C105.226 34.8708 105.226 34.872 105.225 34.8731C105.225 34.8742 105.224 34.8751 105.223 34.8755C105.212 34.8801 104.114 35.3369 103.171 35.9745H103.17C103.169 35.9748 103.168 35.9748 103.167 35.9745C103.166 35.9741 103.166 35.9735 103.165 35.9727C103.164 35.9719 103.164 35.9708 103.164 35.9697C103.164 35.9685 103.164 35.9674 103.165 35.9666C104.101 35.334 105.207 34.8715 105.218 34.8669H105.221Z" fill="black"/>
<path d="M94.5121 35.4085C94.5121 35.4085 96.8182 32.971 98.4403 32.6951L102.227 38.1845L98.2885 40.8824L94.5121 35.4085Z" fill="white"/>
<path d="M98.2876 40.882C98.2876 40.882 99.902 39.1485 101.274 38.4367C101.696 38.2176 102.227 38.184 102.227 38.184L98.2876 40.882Z" fill="#D6D8F9"/>
<path opacity="0.3" d="M95.4663 35.9639C95.4748 35.9639 95.4833 35.9628 95.4915 35.9605C95.5089 35.9562 95.5247 35.9471 95.5371 35.9342C95.556 35.9143 97.4578 33.9358 98.7642 33.7315C98.7884 33.7266 98.8098 33.7127 98.8239 33.6925C98.838 33.6723 98.8437 33.6475 98.8399 33.6232C98.836 33.5989 98.8229 33.577 98.8032 33.5622C98.7836 33.5473 98.7589 33.5406 98.7344 33.5434C98.1544 33.6342 97.4157 34.0438 96.5393 34.7592C96.1401 35.0859 95.7592 35.4342 95.3984 35.8027C95.3857 35.8161 95.3772 35.833 95.3739 35.8512C95.3706 35.8694 95.3727 35.8881 95.38 35.9052C95.3872 35.9222 95.3993 35.9368 95.4147 35.9471C95.4301 35.9574 95.4482 35.963 95.4667 35.9633L95.4663 35.9639ZM95.4679 35.8732C95.4672 35.8736 95.4665 35.8738 95.4657 35.8738C95.4649 35.8738 95.4642 35.8736 95.4635 35.8732C95.4631 35.8729 95.4627 35.8724 95.4625 35.8719C95.4623 35.8714 95.4622 35.8708 95.4622 35.8703C95.4618 35.8692 95.4618 35.8681 95.4622 35.8671C95.8204 35.5014 96.1985 35.1555 96.5947 34.8309C97.4597 34.1257 98.1824 33.7233 98.7465 33.6344C98.7476 33.6343 98.7488 33.6346 98.7498 33.6353C98.7507 33.636 98.7513 33.6371 98.7515 33.6382C98.7516 33.6394 98.7512 33.6405 98.7506 33.6414C98.7499 33.6423 98.7489 33.643 98.7478 33.6432C98.1899 33.7306 97.4706 34.1302 96.6099 34.8311C96.2105 35.1572 95.8295 35.5051 95.4688 35.8732H95.4679ZM95.9095 36.6063C95.9179 36.6063 95.9264 36.6052 95.9345 36.6029C95.9519 36.5986 95.9677 36.5895 95.98 36.5766C95.9992 36.5567 97.9067 34.5771 99.2072 34.3739C99.2313 34.369 99.2526 34.355 99.2666 34.3349C99.2807 34.3147 99.2864 34.29 99.2826 34.2657C99.2787 34.2415 99.2657 34.2197 99.2462 34.2048C99.2266 34.1899 99.2021 34.1831 99.1776 34.1858C98.5976 34.2765 97.8589 34.6848 96.9823 35.4016C96.5832 35.7284 96.2024 36.0767 95.8416 36.4451C95.8288 36.4585 95.8203 36.4754 95.8169 36.4936C95.8136 36.5119 95.8157 36.5307 95.823 36.5477C95.8302 36.5648 95.8423 36.5794 95.8577 36.5897C95.8732 36.6001 95.8913 36.6057 95.9099 36.6059L95.9095 36.6063ZM95.9108 36.5156C95.9101 36.5158 95.9094 36.5158 95.9086 36.5156C95.9079 36.5154 95.9073 36.515 95.9067 36.5145C95.906 36.5136 95.9056 36.5125 95.9056 36.5114C95.9056 36.5103 95.906 36.5092 95.9067 36.5083C96.2645 36.1421 96.6426 35.7961 97.0392 35.4719C97.9042 34.7667 98.627 34.3643 99.1908 34.2756C99.1914 34.2755 99.192 34.2756 99.1925 34.2757C99.1931 34.2758 99.1936 34.2761 99.1941 34.2764C99.1946 34.2767 99.1949 34.2772 99.1952 34.2777C99.1955 34.2781 99.1957 34.2787 99.1958 34.2793C99.1959 34.2799 99.1959 34.2805 99.1957 34.2811C99.1956 34.2816 99.1953 34.2822 99.195 34.2827C99.1946 34.2832 99.1942 34.2836 99.1937 34.2839C99.1931 34.2842 99.1926 34.2844 99.1919 34.2845C98.6342 34.3716 97.9149 34.7713 97.0542 35.4724C96.6552 35.7988 96.2742 36.1466 95.9131 36.5142C95.9126 36.5148 95.9118 36.5152 95.9111 36.5154L95.9108 36.5156ZM96.3531 37.2485C96.3614 37.2486 96.3697 37.2475 96.3777 37.2453C96.395 37.2409 96.4108 37.2318 96.4232 37.219C96.4421 37.199 98.3438 35.2202 99.6504 35.016C99.6627 35.0141 99.6746 35.0098 99.6853 35.0034C99.6959 34.9969 99.7052 34.9884 99.7125 34.9784C99.7237 34.9632 99.7301 34.9452 99.7309 34.9264C99.7317 34.9077 99.727 34.8891 99.7172 34.873C99.7075 34.857 99.6932 34.8442 99.6762 34.8362C99.6591 34.8282 99.6401 34.8254 99.6215 34.8282C99.0415 34.9189 98.3028 35.3272 97.4264 36.044C97.0274 36.3709 96.6465 36.7192 96.2855 37.0874C96.2681 37.1057 96.2587 37.1302 96.2593 37.1554C96.26 37.1806 96.2706 37.2046 96.2889 37.222C96.3063 37.2385 96.3292 37.2479 96.3531 37.2485ZM99.6342 34.9176C99.6353 34.9176 99.6364 34.9179 99.6372 34.9186C99.6381 34.9194 99.6386 34.9203 99.6388 34.9214C99.639 34.922 99.6391 34.9225 99.6391 34.9231C99.6391 34.9237 99.639 34.9243 99.6388 34.9248C99.6385 34.9253 99.6381 34.9257 99.6376 34.926C99.6371 34.9262 99.6366 34.9264 99.6361 34.9264C99.0779 35.0137 98.3586 35.4134 97.4981 36.1146C97.0987 36.4406 96.7177 36.7884 96.3568 37.1564L96.355 37.1578C96.3543 37.1581 96.3535 37.1582 96.3528 37.1582C96.352 37.1582 96.3513 37.1581 96.3506 37.1578C96.3499 37.1569 96.3495 37.1558 96.3495 37.1547C96.3495 37.1536 96.3499 37.1525 96.3506 37.1516C96.7084 36.7854 97.0865 36.4394 97.4831 36.1152C98.3481 35.41 99.0708 35.0076 99.6349 34.9189L99.6342 34.9176ZM96.7961 37.8909C96.8044 37.8908 96.8127 37.8898 96.8207 37.8877C96.8381 37.8834 96.8538 37.8743 96.8662 37.8614C96.8851 37.8414 98.7877 35.8628 100.093 35.6584C100.106 35.6565 100.118 35.6521 100.128 35.6456C100.139 35.6391 100.148 35.6306 100.156 35.6205C100.163 35.6104 100.168 35.5989 100.171 35.5868C100.174 35.5747 100.175 35.5621 100.173 35.5498C100.171 35.5374 100.167 35.5256 100.16 35.5149C100.153 35.5043 100.145 35.495 100.135 35.4877C100.125 35.4803 100.113 35.475 100.101 35.4721C100.089 35.4692 100.076 35.4686 100.064 35.4706C99.4838 35.5613 98.7451 35.9696 97.8685 36.6864C97.4692 37.0131 97.0884 37.3614 96.7276 37.7298C96.719 37.7389 96.7122 37.7496 96.7077 37.7612C96.7032 37.7729 96.7011 37.7853 96.7014 37.7978C96.7017 37.8103 96.7046 37.8226 96.7097 37.8341C96.7148 37.8455 96.7221 37.8558 96.7312 37.8643C96.7487 37.8811 96.7719 37.8906 96.7961 37.8909ZM96.7961 37.8002C96.7954 37.8004 96.7947 37.8006 96.7939 37.8006C96.7932 37.8006 96.7925 37.8004 96.7918 37.8002C96.791 37.7993 96.7905 37.7982 96.7904 37.797C96.7904 37.7964 96.7905 37.7959 96.7908 37.7953C96.791 37.7948 96.7913 37.7944 96.7918 37.794C97.1499 37.4281 97.5279 37.0821 97.9243 36.7576C98.7893 36.0524 99.512 35.65 100.076 35.5613C100.077 35.5613 100.078 35.5618 100.079 35.5626C100.08 35.5634 100.08 35.5645 100.08 35.5656C100.08 35.5668 100.08 35.5679 100.079 35.5687C100.078 35.5695 100.077 35.5699 100.076 35.5699C99.5179 35.6573 98.7986 36.0569 97.9381 36.7581C97.5388 37.0841 97.1578 37.4319 96.797 37.7999L96.795 37.8013L96.7961 37.8002ZM97.2341 38.5673C97.2425 38.5673 97.251 38.5661 97.2591 38.5639C97.2765 38.5596 97.2923 38.5505 97.3046 38.5376C97.3235 38.5176 99.2252 36.539 100.532 36.3346C100.544 36.3327 100.556 36.3283 100.567 36.3218C100.577 36.3153 100.587 36.3068 100.594 36.2967C100.601 36.2866 100.607 36.2751 100.61 36.263C100.613 36.2509 100.613 36.2383 100.611 36.2259C100.607 36.201 100.594 36.1787 100.573 36.1638C100.553 36.1489 100.527 36.1427 100.502 36.1465C99.9222 36.2373 99.1835 36.6469 98.3069 37.3626C97.9078 37.6893 97.527 38.0377 97.1662 38.406C97.1534 38.4195 97.1449 38.4363 97.1415 38.4546C97.1382 38.4728 97.1403 38.4916 97.1476 38.5087C97.1548 38.5258 97.1669 38.5404 97.1823 38.5507C97.1978 38.561 97.2159 38.5666 97.2345 38.5668L97.2341 38.5673ZM97.2354 38.4766C97.2348 38.4769 97.234 38.4771 97.2333 38.4771C97.2325 38.4771 97.2318 38.4769 97.2311 38.4766C97.2304 38.4757 97.23 38.4746 97.23 38.4735C97.23 38.4724 97.2304 38.4713 97.2311 38.4704C97.5893 38.1046 97.9673 37.7586 98.3636 37.434C99.2286 36.7288 99.9513 36.3262 100.515 36.2377C100.516 36.2376 100.516 36.2376 100.517 36.2377C100.518 36.2378 100.518 36.2381 100.519 36.2384C100.519 36.2388 100.519 36.2392 100.52 36.2397C100.52 36.2402 100.52 36.2408 100.52 36.2414C100.52 36.2419 100.521 36.2425 100.521 36.2431C100.521 36.2437 100.52 36.2442 100.52 36.2448C100.52 36.2452 100.52 36.2456 100.519 36.2459C100.519 36.2461 100.518 36.2463 100.518 36.2464C99.9593 36.3337 99.24 36.7334 98.3795 37.4345C97.9801 37.7605 97.5991 38.1083 97.2384 38.4763L97.2363 38.4777L97.2354 38.4766ZM97.6852 39.2369C97.6935 39.237 97.7018 39.2359 97.7098 39.2337C97.7272 39.2294 97.743 39.2203 97.7554 39.2074C97.7745 39.1875 99.6761 37.209 100.983 37.0047C101.007 36.9998 101.028 36.9858 101.042 36.9657C101.056 36.9455 101.062 36.9208 101.058 36.8965C101.054 36.8723 101.041 36.8505 101.021 36.8356C101.002 36.8207 100.977 36.8139 100.953 36.8166C100.373 36.9073 99.6342 37.317 98.7576 38.0324C98.3586 38.3593 97.9778 38.7076 97.617 39.0759C97.5995 39.0942 97.5901 39.1186 97.5908 39.1438C97.5914 39.169 97.602 39.193 97.6204 39.2104C97.6379 39.227 97.661 39.2365 97.6852 39.2369ZM100.967 36.9062C100.968 36.9062 100.969 36.9066 100.969 36.9072C100.97 36.9079 100.971 36.9088 100.971 36.9098C100.971 36.9104 100.971 36.911 100.971 36.9115C100.971 36.9121 100.971 36.9127 100.971 36.9132C100.971 36.9137 100.97 36.9141 100.97 36.9144C100.969 36.9146 100.969 36.9148 100.968 36.9148C100.41 37.0024 99.6907 37.4021 98.8302 38.103C98.4308 38.429 98.0498 38.7768 97.6889 39.1448C97.6884 39.1455 97.6876 39.1459 97.6868 39.1462C97.6859 39.1463 97.685 39.1462 97.6842 39.1458C97.6834 39.1454 97.6827 39.1448 97.6822 39.144C97.6817 39.1432 97.6815 39.1423 97.6816 39.1414C97.6816 39.1405 97.682 39.1396 97.6825 39.1389C98.0403 38.7727 98.4184 38.4266 98.815 38.1025C99.68 37.3975 100.403 36.9949 100.967 36.9062ZM99.1275 38.9996C99.1359 38.9996 99.1442 38.9985 99.1523 38.9965C99.1659 38.9929 99.1784 38.9863 99.189 38.9772C99.8095 38.4575 100.7 37.8142 101.414 37.7022C101.438 37.6973 101.46 37.6834 101.474 37.6632C101.488 37.643 101.494 37.6182 101.49 37.5939C101.486 37.5696 101.473 37.5477 101.453 37.5329C101.433 37.518 101.409 37.5113 101.384 37.5141C100.627 37.6328 99.7055 38.2962 99.0661 38.8318C99.0511 38.8443 99.0403 38.8612 99.0352 38.88C99.0302 38.8989 99.0311 38.9188 99.0378 38.9372C99.0445 38.9555 99.0567 38.9713 99.0728 38.9825C99.0888 38.9937 99.1079 38.9997 99.1275 38.9996ZM101.399 37.6037C101.4 37.6037 101.401 37.604 101.402 37.6047C101.403 37.6054 101.403 37.6063 101.404 37.6073C101.404 37.6085 101.403 37.6097 101.403 37.6107C101.402 37.6117 101.401 37.6123 101.4 37.6126C100.665 37.7278 99.7608 38.3806 99.1303 38.908L99.1405 38.9534L99.1287 38.9094C99.1279 38.9096 99.127 38.9097 99.1262 38.9094C99.1254 38.9092 99.1246 38.9087 99.1241 38.908C99.1237 38.9076 99.1234 38.9071 99.1232 38.9066C99.1229 38.9061 99.1228 38.9055 99.1228 38.9049C99.1228 38.9044 99.1229 38.9038 99.1232 38.9033C99.1234 38.9028 99.1237 38.9023 99.1241 38.9019C99.7547 38.3738 100.661 37.7199 101.398 37.6044L101.399 37.6037Z" fill="black"/>
</svg>
