<svg width="413" height="63" viewBox="0 0 413 63" fill="none" xmlns="http://www.w3.org/2000/svg">
<path d="M5.66199 12.2327L3.6438 13.9899L0.970703 13.7985L2.73412 15.8096L2.54115 18.4733L4.55934 16.716L7.23244 16.9083L5.46904 14.8964L5.66199 12.2327Z" fill="#F39E34"/>
<path d="M399.994 11.8254L398.806 12.8587L397.233 12.7461L398.271 13.9286L398.157 15.4948L399.345 14.4616L400.918 14.5747L399.88 13.3917L399.994 11.8254Z" fill="#F39E34"/>
<path d="M258.21 55.2656C258.28 55.3777 258.302 55.5129 258.269 55.6459C258.249 55.7314 258.206 55.81 258.145 55.8735C258.084 55.9371 258.007 55.9833 257.922 56.0074L256.238 56.4961C256.154 56.5212 256.064 56.5235 255.978 56.5026C255.892 56.4817 255.814 56.4385 255.75 56.3773C255.686 56.3168 255.639 56.2405 255.615 56.1562C255.59 56.0718 255.588 55.9824 255.609 55.8972L256.026 54.2014C256.046 54.1159 256.089 54.0373 256.15 53.9738C256.212 53.9103 256.288 53.8641 256.373 53.84C256.458 53.8149 256.548 53.8126 256.634 53.8335C256.719 53.8544 256.798 53.8977 256.861 53.9588L258.129 55.1658C258.16 55.1956 258.187 55.2291 258.21 55.2656ZM256.006 56.0708C256.018 56.091 256.037 56.1066 256.059 56.1151C256.08 56.1236 256.105 56.1245 256.127 56.1176L257.811 55.6289C257.829 55.6239 257.845 55.6141 257.858 55.6007C257.871 55.5872 257.88 55.5705 257.884 55.5524C257.889 55.5344 257.888 55.5155 257.883 55.4976C257.878 55.4798 257.868 55.4636 257.854 55.451L256.587 54.244C256.574 54.2309 256.557 54.2217 256.539 54.2173C256.521 54.2129 256.502 54.2134 256.484 54.2188C256.466 54.2238 256.45 54.2335 256.437 54.247C256.424 54.2605 256.415 54.2771 256.411 54.2953L255.994 55.991C255.991 56.0044 255.99 56.0184 255.992 56.0321C255.994 56.0459 255.999 56.059 256.006 56.0708ZM362.143 13.2719C362.213 13.3839 362.235 13.5191 362.203 13.6522C362.182 13.7377 362.139 13.8162 362.078 13.8797C362.017 13.9433 361.94 13.9895 361.855 14.0136L360.172 14.5024C360.087 14.5275 359.997 14.5298 359.911 14.5089C359.826 14.488 359.747 14.4447 359.684 14.3835C359.62 14.3231 359.573 14.2468 359.548 14.1624C359.523 14.0781 359.522 13.9887 359.543 13.9034L359.959 12.2077C359.98 12.1222 360.023 12.0436 360.084 11.9801C360.145 11.9165 360.222 11.8703 360.307 11.8463C360.392 11.8211 360.481 11.8189 360.567 11.8398C360.653 11.8607 360.732 11.9039 360.795 11.9651L362.062 13.1721C362.094 13.2024 362.121 13.236 362.143 13.2719ZM359.94 14.077C359.952 14.0972 359.97 14.1128 359.992 14.1213C360.014 14.1298 360.038 14.1307 360.061 14.1239L361.744 13.6351C361.762 13.6302 361.778 13.6204 361.791 13.607C361.804 13.5935 361.813 13.5768 361.818 13.5587C361.822 13.5407 361.822 13.5217 361.817 13.5039C361.812 13.486 361.802 13.4699 361.788 13.4572L360.521 12.2502C360.507 12.2372 360.491 12.228 360.473 12.2236C360.454 12.2192 360.435 12.2197 360.418 12.2251C360.399 12.2301 360.383 12.2398 360.37 12.2533C360.357 12.2667 360.348 12.2834 360.344 12.3015L359.928 13.9973C359.924 14.0107 359.923 14.0247 359.925 14.0384C359.927 14.0521 359.932 14.0653 359.94 14.077Z" fill="#E35669"/>
<path d="M133.354 52.4115C133.424 52.5235 133.446 52.6587 133.414 52.7918C133.393 52.8773 133.35 52.9559 133.289 53.0194C133.228 53.0829 133.151 53.1291 133.066 53.1533L131.383 53.642C131.298 53.6671 131.208 53.6694 131.123 53.6485C131.037 53.6276 130.958 53.5843 130.895 53.5231C130.831 53.4627 130.784 53.3864 130.759 53.302C130.734 53.2177 130.733 53.1283 130.754 53.043L131.17 51.3473C131.191 51.2618 131.234 51.1832 131.295 51.1197C131.356 51.0561 131.433 51.0099 131.518 50.9859C131.603 50.9608 131.692 50.9585 131.778 50.9794C131.864 51.0003 131.943 51.0435 132.006 51.1047L133.273 52.3117C133.304 52.3414 133.332 52.375 133.354 52.4115ZM131.151 53.2166C131.163 53.2368 131.181 53.2524 131.203 53.2609C131.225 53.2694 131.249 53.2703 131.272 53.2635L132.955 52.7748C132.973 52.7697 132.989 52.76 133.002 52.7465C133.015 52.7331 133.024 52.7164 133.029 52.6983C133.033 52.6803 133.033 52.6614 133.028 52.6435C133.023 52.6256 133.013 52.6095 132.999 52.5968L131.732 51.3898C131.718 51.3768 131.702 51.3676 131.684 51.3632C131.665 51.3588 131.646 51.3593 131.629 51.3647C131.61 51.3697 131.594 51.3794 131.581 51.3929C131.568 51.4063 131.559 51.423 131.555 51.4412L131.139 53.1369C131.135 53.1503 131.134 53.1643 131.136 53.178C131.139 53.1917 131.143 53.2049 131.151 53.2166ZM237.288 10.4177C237.358 10.5298 237.38 10.665 237.347 10.7981C237.327 10.8836 237.284 10.9621 237.223 11.0256C237.162 11.0891 237.085 11.1354 237 11.1595L235.316 11.6482C235.232 11.6734 235.142 11.6756 235.056 11.6547C234.97 11.6339 234.892 11.5906 234.828 11.5294C234.764 11.469 234.717 11.3927 234.693 11.3083C234.668 11.2239 234.666 11.1346 234.687 11.0493L235.104 9.35358C235.124 9.26803 235.167 9.18945 235.228 9.12592C235.289 9.06239 235.366 9.01621 235.451 8.99213C235.536 8.96702 235.626 8.96479 235.712 8.98567C235.797 9.00655 235.876 9.0498 235.939 9.11096L237.207 10.318C237.238 10.3482 237.265 10.3818 237.288 10.4177ZM235.084 11.2229C235.096 11.2431 235.115 11.2587 235.136 11.2672C235.158 11.2757 235.183 11.2766 235.205 11.2697L236.889 10.781C236.907 10.776 236.923 10.7663 236.936 10.7528C236.949 10.7394 236.958 10.7227 236.962 10.7046C236.967 10.6866 236.966 10.6676 236.961 10.6498C236.956 10.6319 236.946 10.6158 236.932 10.6031L235.665 9.39611C235.652 9.38309 235.635 9.37388 235.617 9.36945C235.599 9.36503 235.58 9.36555 235.562 9.37096C235.544 9.37595 235.528 9.38569 235.515 9.39915C235.502 9.4126 235.493 9.42928 235.489 9.44742L235.072 11.1431C235.068 11.1566 235.068 11.1706 235.07 11.1843C235.072 11.198 235.077 11.2112 235.084 11.2229Z" fill="#E35669"/>
<path d="M64.1719 52.4114C64.2416 52.5235 64.2638 52.6587 64.2312 52.7917C64.2108 52.8773 64.1679 52.9558 64.1068 53.0193C64.0458 53.0829 63.9688 53.1291 63.8839 53.1532L62.2003 53.6419C62.1157 53.6671 62.0258 53.6693 61.94 53.6484C61.8542 53.6275 61.7756 53.5843 61.7122 53.5231C61.6481 53.4626 61.6013 53.3863 61.5766 53.302C61.5518 53.2176 61.5501 53.1282 61.5715 53.043L61.988 51.3473C62.0084 51.2617 62.0514 51.1831 62.1125 51.1196C62.1735 51.0561 62.2505 51.0099 62.3355 50.9858C62.4201 50.9607 62.5099 50.9585 62.5957 50.9793C62.6814 51.0002 62.7601 51.0435 62.8235 51.1046L64.0906 52.3116C64.1218 52.3414 64.1491 52.3749 64.1719 52.4114ZM61.9684 53.2166C61.9803 53.2368 61.9986 53.2524 62.0205 53.2609C62.0425 53.2694 62.0666 53.2703 62.0891 53.2634L63.7727 52.7747C63.7907 52.7697 63.807 52.7599 63.8199 52.7465C63.8329 52.733 63.8419 52.7164 63.8462 52.6982C63.8508 52.6802 63.8505 52.6613 63.8453 52.6434C63.8401 52.6256 63.8301 52.6095 63.8164 52.5968L62.5493 51.3898C62.5359 51.3768 62.5193 51.3675 62.5011 51.3631C62.483 51.3587 62.4639 51.3592 62.4461 51.3646C62.428 51.3696 62.4117 51.3794 62.3988 51.3928C62.3858 51.4063 62.3768 51.4229 62.3726 51.4411L61.9561 53.1368C61.9526 53.1502 61.9519 53.1642 61.954 53.178C61.9561 53.1917 61.961 53.2048 61.9684 53.2166ZM168.105 10.4177C168.175 10.5297 168.197 10.6649 168.165 10.798C168.144 10.8835 168.101 10.962 168.04 11.0256C167.979 11.0891 167.902 11.1353 167.817 11.1595L166.134 11.6482C166.049 11.6733 165.959 11.6756 165.874 11.6547C165.788 11.6338 165.709 11.5905 165.646 11.5294C165.582 11.4689 165.535 11.3926 165.51 11.3082C165.485 11.2239 165.484 11.1345 165.505 11.0492L165.921 9.35352C165.942 9.26797 165.985 9.18939 166.046 9.12586C166.107 9.06233 166.184 9.01615 166.269 8.99207C166.354 8.96696 166.443 8.96472 166.529 8.98561C166.615 9.00649 166.694 9.04974 166.757 9.1109L168.024 10.3179C168.056 10.3482 168.083 10.3818 168.105 10.4177ZM165.902 11.2228C165.914 11.243 165.932 11.2587 165.954 11.2672C165.976 11.2757 166 11.2765 166.023 11.2697L167.706 10.781C167.724 10.776 167.741 10.7662 167.753 10.7528C167.766 10.7393 167.775 10.7226 167.78 10.7045C167.784 10.6865 167.784 10.6676 167.779 10.6497C167.774 10.6318 167.764 10.6157 167.75 10.603L166.483 9.39605C166.469 9.38303 166.453 9.37382 166.435 9.36939C166.416 9.36497 166.397 9.36549 166.38 9.3709C166.362 9.37589 166.345 9.38563 166.332 9.39908C166.319 9.41254 166.31 9.42922 166.306 9.44736L165.89 11.1431C165.886 11.1565 165.885 11.1705 165.887 11.1842C165.89 11.1979 165.894 11.2111 165.902 11.2228Z" fill="#E35669"/>
<path d="M6.61525 61.44C6.68492 61.552 6.7072 61.6872 6.67461 61.8203C6.65417 61.9058 6.61123 61.9844 6.55018 62.0479C6.48914 62.1114 6.4122 62.1576 6.32728 62.1818L4.64367 62.6705C4.55903 62.6956 4.4692 62.6979 4.3834 62.677C4.2976 62.6561 4.21894 62.6128 4.15551 62.5517C4.09143 62.4912 4.04464 62.4149 4.01992 62.3305C3.9952 62.2462 3.99346 62.1568 4.01486 62.0715L4.43135 60.3758C4.45178 60.2903 4.49475 60.2117 4.55583 60.1482C4.6169 60.0846 4.69388 60.0384 4.77884 60.0144C4.86346 59.9893 4.95326 59.987 5.03903 60.0079C5.12479 60.0288 5.20343 60.072 5.26684 60.1332L6.53395 61.3402C6.56514 61.3699 6.59246 61.4035 6.61525 61.44ZM4.41173 62.2451C4.42361 62.2653 4.442 62.281 4.4639 62.2895C4.48581 62.298 4.50996 62.2988 4.53244 62.292L6.21605 61.8033C6.23405 61.7982 6.25037 61.7885 6.2633 61.775C6.27623 61.7616 6.28529 61.7449 6.28954 61.7268C6.2942 61.7088 6.29389 61.6899 6.28866 61.672C6.28342 61.6541 6.27344 61.638 6.25978 61.6253L4.99266 60.4184C4.9793 60.4053 4.96267 60.3961 4.9445 60.3917C4.92633 60.3873 4.90731 60.3878 4.88941 60.3932C4.87139 60.3982 4.85505 60.4079 4.84212 60.4214C4.82919 60.4348 4.82014 60.4515 4.81592 60.4697L4.39943 62.1654C4.39593 62.1788 4.39523 62.1928 4.39734 62.2065C4.39946 62.2202 4.40435 62.2334 4.41173 62.2451ZM110.549 19.4463C110.618 19.5583 110.641 19.6935 110.608 19.8266C110.588 19.9121 110.545 19.9906 110.484 20.0541C110.423 20.1176 110.346 20.1639 110.261 20.188L108.577 20.6767C108.493 20.7019 108.403 20.7041 108.317 20.6833C108.231 20.6624 108.152 20.6191 108.089 20.5579C108.025 20.4975 107.978 20.4212 107.953 20.3368C107.929 20.2524 107.927 20.1631 107.948 20.0778L108.365 18.3821C108.385 18.2965 108.428 18.218 108.489 18.1544C108.55 18.0909 108.627 18.0447 108.712 18.0206C108.797 17.9955 108.887 17.9933 108.973 18.0142C109.058 18.0351 109.137 18.0783 109.2 18.1395L110.467 19.3465C110.499 19.3767 110.526 19.4103 110.549 19.4463ZM108.345 20.2514C108.357 20.2716 108.375 20.2872 108.397 20.2957C108.419 20.3042 108.443 20.3051 108.466 20.2982L110.15 19.8095C110.168 19.8045 110.184 19.7948 110.197 19.7813C110.21 19.7679 110.219 19.7512 110.223 19.7331C110.228 19.7151 110.227 19.6961 110.222 19.6783C110.217 19.6604 110.207 19.6443 110.193 19.6316L108.926 18.4246C108.913 18.4116 108.896 18.4024 108.878 18.398C108.86 18.3935 108.841 18.394 108.823 18.3995C108.805 18.4045 108.789 18.4142 108.776 18.4276C108.763 18.4411 108.754 18.4578 108.749 18.4759L108.333 20.1716C108.329 20.1851 108.329 20.1991 108.331 20.2128C108.333 20.2265 108.338 20.2397 108.345 20.2514Z" fill="#E35669"/>
<path d="M317.134 16.8486L317.768 16.2172C317.837 16.1484 317.876 16.055 317.876 15.9577C317.876 15.8604 317.837 15.767 317.768 15.6982C317.699 15.6294 317.605 15.5907 317.507 15.5907C317.409 15.5907 317.316 15.6294 317.246 15.6982L316.612 16.3296L315.978 15.6982C315.909 15.6294 315.815 15.5907 315.717 15.5907C315.619 15.5907 315.526 15.6294 315.456 15.6982C315.387 15.767 315.348 15.8604 315.348 15.9577C315.348 16.055 315.387 16.1484 315.456 16.2172L316.091 16.8486L315.458 17.4788C315.423 17.5129 315.396 17.5533 315.378 17.5979C315.359 17.6424 315.35 17.6901 315.35 17.7383C315.35 17.7865 315.359 17.8342 315.378 17.8788C315.396 17.9233 315.423 17.9637 315.458 17.9978C315.492 18.0319 315.532 18.0589 315.577 18.0774C315.622 18.0958 315.67 18.1053 315.718 18.1053C315.767 18.1053 315.815 18.0958 315.859 18.0774C315.904 18.0589 315.945 18.0319 315.979 17.9978L316.612 17.3676L317.245 17.9978C317.317 18.0695 317.412 18.1054 317.506 18.1054C317.579 18.1054 317.65 18.084 317.711 18.0436C317.772 18.0033 317.819 17.946 317.847 17.8789C317.875 17.8118 317.882 17.738 317.868 17.6667C317.854 17.5955 317.818 17.5301 317.767 17.4788L317.134 16.8486ZM330.245 52.3584L330.879 51.727C330.949 51.6582 330.987 51.5649 330.987 51.4675C330.987 51.3702 330.949 51.2768 330.879 51.208C330.81 51.1392 330.717 51.1005 330.619 51.1005C330.521 51.1005 330.427 51.1392 330.358 51.208L329.724 51.8394L329.089 51.208C329.02 51.1392 328.927 51.1005 328.829 51.1005C328.731 51.1005 328.637 51.1392 328.568 51.208C328.499 51.2768 328.46 51.3702 328.46 51.4675C328.46 51.5649 328.499 51.6582 328.568 51.727L329.202 52.3584L328.569 52.9886C328.535 53.0227 328.508 53.0632 328.489 53.1077C328.471 53.1522 328.461 53.1999 328.461 53.2481C328.461 53.2963 328.471 53.3441 328.489 53.3886C328.508 53.4331 328.535 53.4736 328.569 53.5076C328.603 53.5417 328.644 53.5688 328.689 53.5872C328.734 53.6056 328.782 53.6151 328.83 53.6151C328.878 53.6151 328.926 53.6056 328.971 53.5872C329.016 53.5688 329.056 53.5417 329.091 53.5076L329.724 52.8774L330.357 53.5076C330.429 53.5793 330.523 53.6152 330.618 53.6152C330.691 53.6153 330.762 53.5938 330.823 53.5535C330.883 53.5131 330.931 53.4558 330.958 53.3887C330.986 53.3216 330.994 53.2478 330.979 53.1766C330.965 53.1053 330.93 53.0399 330.878 52.9886L330.245 52.3584Z" fill="#FFB86B"/>
<path d="M70.7831 18.3786C69.9843 18.3786 69.3344 17.7317 69.3344 16.9366C69.3344 16.1416 69.9843 15.4946 70.7831 15.4946C71.5818 15.4946 72.2317 16.1416 72.2317 16.9366C72.2317 17.7317 71.582 18.3786 70.7831 18.3786ZM70.7831 15.9458C70.5191 15.9461 70.2661 16.0506 70.0795 16.2363C69.8929 16.4221 69.7879 16.6739 69.7876 16.9366C69.7879 17.1993 69.8929 17.4511 70.0795 17.6369C70.2661 17.8226 70.5192 17.9271 70.7831 17.9273C71.0469 17.927 71.2999 17.8225 71.4865 17.6368C71.6731 17.4511 71.7781 17.1993 71.7785 16.9366C71.7782 16.6739 71.6732 16.4221 71.4866 16.2363C71.3 16.0506 71.047 15.9461 70.7831 15.9458ZM192.755 53.0779C191.956 53.0779 191.306 52.431 191.306 51.6359C191.306 50.8409 191.956 50.1939 192.755 50.1939C193.553 50.1939 194.203 50.8409 194.203 51.6359C194.203 52.431 193.553 53.0779 192.755 53.0779ZM192.755 50.6451C192.491 50.6454 192.238 50.7499 192.051 50.9356C191.865 51.1214 191.76 51.3732 191.759 51.6359C191.76 51.8986 191.865 52.1505 192.051 52.3362C192.238 52.522 192.491 52.6265 192.755 52.6268C193.019 52.6265 193.272 52.522 193.458 52.3362C193.645 52.1505 193.75 51.8986 193.75 51.6359C193.75 51.3733 193.645 51.1214 193.458 50.9357C193.272 50.7499 193.019 50.6454 192.755 50.6451Z" fill="#117CA0"/>
<path d="M288.972 14.7096C288.174 14.7096 287.524 14.0627 287.524 13.2676C287.524 12.4726 288.174 11.8256 288.972 11.8256C289.771 11.8256 290.421 12.4726 290.421 13.2676C290.421 14.0627 289.771 14.7096 288.972 14.7096ZM288.972 12.2768C288.709 12.2771 288.456 12.3816 288.269 12.5673C288.082 12.7531 287.977 13.0049 287.977 13.2676C287.977 13.5303 288.082 13.7821 288.269 13.9679C288.456 14.1536 288.709 14.2581 288.972 14.2583C289.236 14.258 289.489 14.1535 289.676 13.9678C289.863 13.7821 289.968 13.5303 289.968 13.2676C289.968 13.0049 289.863 12.7531 289.676 12.5673C289.489 12.3816 289.236 12.2771 288.972 12.2768ZM410.944 49.4089C410.145 49.4089 409.495 48.762 409.495 47.9669C409.495 47.1719 410.145 46.5249 410.944 46.5249C411.743 46.5249 412.393 47.1719 412.393 47.9669C412.393 48.762 411.743 49.4089 410.944 49.4089ZM410.944 46.9761C410.68 46.9764 410.427 47.0809 410.241 47.2666C410.054 47.4524 409.949 47.7042 409.949 47.9669C409.949 48.2296 410.054 48.4815 410.241 48.6672C410.427 48.853 410.68 48.9575 410.944 48.9578C411.208 48.9575 411.461 48.853 411.648 48.6672C411.834 48.4815 411.939 48.2296 411.939 47.9669C411.939 47.7043 411.834 47.4524 411.648 47.2667C411.461 47.0809 411.208 46.9764 410.944 46.9761Z" fill="#117CA0"/>
<path opacity="0.7" d="M221.042 45.9333C221.013 45.9333 220.984 45.9252 220.959 45.91C220.934 45.8948 220.913 45.873 220.9 45.847C220.886 45.821 220.88 45.7918 220.882 45.7626C220.884 45.7334 220.894 45.7052 220.91 45.6812C220.912 45.6793 221.045 45.4893 221.273 45.1544C221.285 45.137 221.3 45.1221 221.318 45.1105C221.336 45.0989 221.356 45.0909 221.376 45.0869C221.397 45.0829 221.418 45.0831 221.439 45.0873C221.46 45.0915 221.48 45.0998 221.497 45.1116C221.515 45.1234 221.53 45.1385 221.541 45.1561C221.553 45.1737 221.561 45.1933 221.565 45.214C221.569 45.2347 221.569 45.2559 221.565 45.2766C221.56 45.2972 221.552 45.3168 221.54 45.3342C221.311 45.6713 221.176 45.863 221.175 45.8649C221.16 45.886 221.14 45.9033 221.117 45.9152C221.094 45.9272 221.068 45.9334 221.042 45.9333ZM222.121 44.3374C222.092 44.3374 222.064 44.3295 222.039 44.3147C222.014 44.2999 221.993 44.2787 221.979 44.2532C221.966 44.2278 221.959 44.1991 221.96 44.1702C221.962 44.1414 221.971 44.1134 221.987 44.0892C222.222 43.7318 222.456 43.3728 222.687 43.0124C222.698 42.9943 222.713 42.9786 222.73 42.9662C222.747 42.9538 222.767 42.945 222.788 42.9402C222.809 42.9354 222.83 42.9348 222.851 42.9385C222.872 42.9421 222.892 42.9498 222.91 42.9612C222.928 42.9727 222.944 42.9875 222.956 43.005C222.968 43.0224 222.977 43.0421 222.981 43.0629C222.986 43.0837 222.986 43.1052 222.982 43.126C222.978 43.1469 222.97 43.1668 222.958 43.1846C222.727 43.5462 222.493 43.9063 222.256 44.265C222.242 44.2872 222.221 44.3055 222.198 44.3181C222.174 44.3308 222.148 44.3374 222.121 44.3374ZM223.509 42.1716C223.481 42.1716 223.452 42.164 223.428 42.1495C223.403 42.135 223.383 42.1142 223.369 42.0893C223.355 42.0644 223.348 42.0362 223.348 42.0076C223.349 41.9791 223.357 41.9513 223.372 41.927C223.599 41.5638 223.822 41.1991 224.043 40.8328C224.066 40.7977 224.102 40.7728 224.142 40.7632C224.183 40.7537 224.226 40.7604 224.262 40.7819C224.298 40.8033 224.324 40.8379 224.335 40.8782C224.346 40.9185 224.34 40.9614 224.32 40.9978C224.098 41.3653 223.874 41.7312 223.647 42.0957C223.632 42.1189 223.612 42.1381 223.588 42.1514C223.564 42.1647 223.537 42.1717 223.509 42.1716ZM224.838 39.9702C224.809 39.9702 224.782 39.9628 224.757 39.9487C224.733 39.9346 224.712 39.9143 224.698 39.8899C224.684 39.8654 224.677 39.8377 224.677 39.8096C224.677 39.7814 224.684 39.7538 224.698 39.7294C224.914 39.3601 225.126 38.989 225.336 38.6162C225.357 38.58 225.392 38.5536 225.432 38.5426C225.473 38.5315 225.517 38.5368 225.553 38.5572C225.59 38.5777 225.618 38.6116 225.629 38.6518C225.641 38.692 225.637 38.7353 225.617 38.7724C225.413 39.1369 225.197 39.513 224.977 39.8902C224.963 39.9146 224.943 39.9348 224.918 39.9488C224.894 39.9628 224.866 39.9702 224.838 39.9702ZM226.095 37.7279C226.067 37.7279 226.04 37.7207 226.015 37.7071C225.991 37.6934 225.971 37.6738 225.957 37.6501C225.942 37.6263 225.934 37.5993 225.934 37.5717C225.933 37.544 225.94 37.5167 225.953 37.4922C226.155 37.1158 226.352 36.7371 226.546 36.3562C226.565 36.3183 226.599 36.2895 226.639 36.2762C226.68 36.2629 226.724 36.2662 226.762 36.2853C226.8 36.3045 226.829 36.3379 226.843 36.3783C226.856 36.4187 226.853 36.4627 226.834 36.5006C226.639 36.8836 226.44 37.2645 226.237 37.643C226.223 37.6687 226.203 37.6902 226.178 37.7051C226.153 37.7201 226.124 37.728 226.095 37.7279ZM227.255 35.4353C227.228 35.4352 227.202 35.4284 227.178 35.4154C227.154 35.4023 227.134 35.3836 227.119 35.3608C227.105 35.338 227.096 35.3119 227.095 35.285C227.093 35.2581 227.098 35.2312 227.11 35.2067C227.292 34.8214 227.468 34.4329 227.638 34.0416C227.646 34.0223 227.658 34.0048 227.673 33.9901C227.689 33.9754 227.706 33.9638 227.726 33.956C227.746 33.9482 227.767 33.9443 227.788 33.9446C227.809 33.9449 227.83 33.9493 227.849 33.9576C227.869 33.9659 227.887 33.9779 227.901 33.993C227.916 34.0081 227.928 34.0259 227.936 34.0454C227.943 34.065 227.947 34.0859 227.947 34.1069C227.947 34.128 227.942 34.1487 227.934 34.1681C227.763 34.5628 227.586 34.9545 227.401 35.3432C227.388 35.3707 227.368 35.394 227.342 35.4103C227.316 35.4266 227.286 35.4353 227.255 35.4353ZM228.27 33.0754C228.244 33.0754 228.218 33.0692 228.195 33.0571C228.172 33.0451 228.152 33.0276 228.137 33.0063C228.122 32.985 228.113 32.9604 228.11 32.9347C228.107 32.9089 228.11 32.8828 228.119 32.8585C228.278 32.439 228.418 32.0339 228.536 31.6547C228.548 31.6143 228.577 31.5806 228.614 31.561C228.652 31.5413 228.696 31.5372 228.737 31.5496C228.777 31.5621 228.811 31.59 228.832 31.6273C228.852 31.6646 228.856 31.7083 228.844 31.7488C228.724 32.1344 228.582 32.5459 228.421 32.9717C228.409 33.0022 228.388 33.0284 228.361 33.047C228.335 33.0655 228.303 33.0754 228.27 33.0754ZM229.015 30.6206C228.991 30.6206 228.967 30.6153 228.945 30.6051C228.924 30.5949 228.905 30.5801 228.889 30.5616C228.874 30.5432 228.863 30.5216 228.858 30.4985C228.852 30.4754 228.852 30.4513 228.856 30.428C228.95 29.9748 229.005 29.5563 229.019 29.1837C229.02 29.1627 229.025 29.142 229.033 29.1228C229.042 29.1037 229.055 29.0865 229.07 29.0722C229.086 29.0579 229.104 29.0467 229.124 29.0394C229.144 29.0321 229.165 29.0287 229.186 29.0295C229.207 29.0303 229.228 29.0352 229.247 29.044C229.266 29.0528 229.284 29.0652 229.298 29.0807C229.312 29.0961 229.324 29.1142 229.331 29.1339C229.338 29.1537 229.342 29.1747 229.341 29.1957C229.326 29.5859 229.27 30.0222 229.172 30.4927C229.165 30.5288 229.145 30.5612 229.116 30.5845C229.087 30.6078 229.052 30.6205 229.015 30.6206ZM213.871 28.611C213.617 28.611 213.357 28.6089 213.099 28.6046C213.077 28.6043 213.057 28.5998 213.037 28.5915C213.018 28.5831 213 28.571 212.985 28.5559C212.971 28.5407 212.959 28.5229 212.951 28.5033C212.943 28.4837 212.94 28.4628 212.94 28.4417C212.941 28.3533 213.017 28.28 213.104 28.2841C213.537 28.2911 213.966 28.2922 214.389 28.2875C214.479 28.2848 214.551 28.3574 214.552 28.4459C214.553 28.4884 214.536 28.5294 214.507 28.5598C214.477 28.5902 214.436 28.6075 214.393 28.608C214.22 28.61 214.046 28.611 213.871 28.611ZM215.68 28.5746C215.638 28.5741 215.598 28.5574 215.568 28.5281C215.539 28.4987 215.522 28.4591 215.521 28.4175C215.52 28.3759 215.536 28.3357 215.564 28.3052C215.592 28.2747 215.632 28.2564 215.673 28.2542C216.101 28.2368 216.529 28.2126 216.956 28.1817C216.998 28.1798 217.039 28.1942 217.07 28.222C217.101 28.2497 217.121 28.2885 217.124 28.3301C217.127 28.3718 217.113 28.4129 217.086 28.4449C217.059 28.4769 217.021 28.4971 216.979 28.5014C216.546 28.5327 216.113 28.5571 215.68 28.5746ZM211.812 28.5664L211.804 28.5662C211.373 28.5478 210.942 28.5238 210.512 28.4945C210.491 28.493 210.47 28.4875 210.451 28.4781C210.432 28.4688 210.415 28.4558 210.401 28.4399C210.388 28.424 210.377 28.4056 210.37 28.3856C210.363 28.3657 210.361 28.3446 210.362 28.3236C210.364 28.3026 210.369 28.2821 210.379 28.2633C210.388 28.2444 210.401 28.2276 210.417 28.2138C210.433 28.1999 210.452 28.1894 210.472 28.1826C210.492 28.1759 210.513 28.1732 210.534 28.1747C210.963 28.2039 211.395 28.2279 211.818 28.246C211.86 28.2482 211.899 28.2666 211.928 28.2971C211.956 28.3276 211.972 28.3679 211.971 28.4095C211.97 28.4511 211.953 28.4907 211.923 28.52C211.893 28.5493 211.853 28.5659 211.812 28.5664ZM209.237 28.3913C209.232 28.3913 209.227 28.3911 209.222 28.3906C208.793 28.3508 208.364 28.3058 207.937 28.2558C207.916 28.2533 207.895 28.2468 207.877 28.2365C207.858 28.2262 207.842 28.2125 207.829 28.1959C207.816 28.1794 207.806 28.1605 207.8 28.1402C207.795 28.12 207.793 28.0988 207.795 28.0779C207.798 28.057 207.804 28.0367 207.815 28.0183C207.825 27.9999 207.839 27.9837 207.855 27.9707C207.872 27.9576 207.891 27.948 207.912 27.9423C207.932 27.9365 207.953 27.9349 207.974 27.9374C208.4 27.9871 208.825 28.0318 209.252 28.0714C209.293 28.0755 209.331 28.0951 209.358 28.1262C209.385 28.1572 209.399 28.1974 209.397 28.2384C209.395 28.2794 209.377 28.3181 209.347 28.3465C209.318 28.375 209.278 28.391 209.237 28.3913ZM218.252 28.3863C218.21 28.3863 218.171 28.3705 218.141 28.3423C218.111 28.3141 218.093 28.2755 218.091 28.2345C218.089 28.1936 218.102 28.1534 218.129 28.1221C218.156 28.0909 218.193 28.071 218.234 28.0667C218.66 28.021 219.084 27.9673 219.508 27.9055C219.528 27.9024 219.55 27.9035 219.57 27.9086C219.591 27.9137 219.61 27.9228 219.627 27.9354C219.644 27.9479 219.659 27.9637 219.669 27.9818C219.68 27.9999 219.687 28.0199 219.691 28.0407C219.694 28.0616 219.693 28.0828 219.687 28.1032C219.682 28.1236 219.673 28.1428 219.66 28.1597C219.648 28.1766 219.632 28.1909 219.614 28.2017C219.596 28.2125 219.575 28.2196 219.555 28.2226C219.127 28.285 218.699 28.3392 218.269 28.3854C218.263 28.386 218.257 28.3863 218.252 28.3863ZM206.677 28.0918C206.669 28.0918 206.661 28.0912 206.654 28.0901C206.226 28.0298 205.8 27.9645 205.374 27.8941C205.353 27.8907 205.333 27.8832 205.315 27.872C205.297 27.8609 205.282 27.8464 205.269 27.8292C205.257 27.8121 205.248 27.7927 205.243 27.7722C205.239 27.7517 205.238 27.7305 205.241 27.7097C205.245 27.6889 205.252 27.669 205.263 27.6511C205.275 27.6332 205.289 27.6177 205.307 27.6054C205.324 27.5931 205.343 27.5844 205.364 27.5797C205.385 27.575 205.406 27.5743 205.427 27.5779C205.85 27.6478 206.274 27.7127 206.699 27.7727C206.74 27.7784 206.776 27.7991 206.802 27.8307C206.828 27.8622 206.84 27.9022 206.837 27.9427C206.834 27.9831 206.816 28.021 206.786 28.0487C206.757 28.0763 206.717 28.0917 206.677 28.0918ZM229.035 28.0825C229.001 28.0825 228.968 28.0717 228.94 28.0517C228.913 28.0317 228.892 28.0035 228.882 27.9711C228.751 27.5642 228.523 27.2496 228.206 27.0361C228.188 27.0243 228.173 27.0092 228.162 26.9916C228.15 26.9741 228.142 26.9544 228.138 26.9337C228.134 26.913 228.134 26.8918 228.138 26.8712C228.142 26.8506 228.151 26.831 228.163 26.8135C228.174 26.7961 228.19 26.7812 228.207 26.7696C228.225 26.758 228.245 26.7499 228.266 26.746C228.286 26.742 228.308 26.7421 228.328 26.7463C228.349 26.7505 228.369 26.7588 228.386 26.7706C228.765 27.0252 229.035 27.3963 229.189 27.8732C229.197 27.8973 229.199 27.9228 229.195 27.9478C229.191 27.9727 229.181 27.9963 229.166 28.0167C229.151 28.0371 229.131 28.0537 229.108 28.0652C229.086 28.0766 229.061 28.0826 229.035 28.0825ZM220.802 28.0111C220.762 28.0112 220.723 27.9963 220.694 27.9694C220.664 27.9426 220.645 27.9056 220.641 27.8658C220.638 27.826 220.649 27.7863 220.673 27.7544C220.697 27.7225 220.733 27.7007 220.772 27.6933C221.192 27.6137 221.61 27.524 222.025 27.4242C222.066 27.4154 222.109 27.4229 222.145 27.4451C222.18 27.4673 222.206 27.5025 222.216 27.5432C222.226 27.5838 222.219 27.6267 222.198 27.6627C222.176 27.6987 222.142 27.7249 222.101 27.7358C221.681 27.8367 221.258 27.9276 220.833 28.0082C220.823 28.0101 220.813 28.0111 220.802 28.0111ZM204.128 27.6706C204.118 27.6706 204.108 27.6697 204.098 27.6677C203.674 27.5872 203.251 27.5017 202.829 27.4112C202.809 27.4067 202.789 27.3983 202.772 27.3863C202.754 27.3743 202.739 27.359 202.728 27.3413C202.717 27.3236 202.709 27.3039 202.705 27.2832C202.701 27.2625 202.701 27.2412 202.706 27.2207C202.71 27.2001 202.719 27.1806 202.731 27.1633C202.743 27.146 202.758 27.1312 202.776 27.1198C202.794 27.1084 202.814 27.1006 202.835 27.0969C202.855 27.0931 202.877 27.0935 202.898 27.0979C203.317 27.1879 203.737 27.2729 204.158 27.3529C204.2 27.3609 204.237 27.3851 204.261 27.4203C204.285 27.4554 204.294 27.4986 204.286 27.5404C204.279 27.577 204.26 27.61 204.231 27.6337C204.202 27.6575 204.166 27.6705 204.128 27.6706ZM223.307 27.4045C223.269 27.4045 223.231 27.3908 223.202 27.3656C223.173 27.3405 223.153 27.3057 223.148 27.2677C223.142 27.2296 223.15 27.1908 223.171 27.1583C223.192 27.1258 223.224 27.1018 223.261 27.0907C223.438 27.0374 223.615 26.9817 223.786 26.9251C224.021 26.8474 224.257 26.7751 224.495 26.7083C224.515 26.7026 224.536 26.701 224.557 26.7035C224.579 26.7059 224.599 26.7125 224.617 26.7228C224.636 26.7331 224.652 26.7469 224.665 26.7635C224.678 26.78 224.688 26.799 224.694 26.8192C224.699 26.8395 224.701 26.8607 224.698 26.8816C224.696 26.9025 224.689 26.9227 224.679 26.941C224.669 26.9594 224.655 26.9755 224.638 26.9886C224.621 27.0016 224.602 27.0112 224.582 27.0169C224.349 27.0824 224.118 27.1532 223.888 27.2293C223.711 27.2877 223.533 27.3438 223.354 27.3976C223.339 27.4021 223.323 27.4045 223.307 27.4045ZM201.606 27.1283C201.593 27.1283 201.58 27.1268 201.568 27.1238C201.148 27.0228 200.73 26.9165 200.313 26.8049C200.273 26.7932 200.239 26.7661 200.218 26.7295C200.197 26.6929 200.192 26.6497 200.203 26.6092C200.214 26.5686 200.24 26.5339 200.277 26.5127C200.313 26.4914 200.356 26.4851 200.397 26.4953C200.811 26.6062 201.227 26.7118 201.644 26.8122C201.664 26.8171 201.684 26.826 201.701 26.8384C201.718 26.8508 201.732 26.8665 201.743 26.8845C201.754 26.9024 201.762 26.9224 201.765 26.9432C201.768 26.964 201.767 26.9852 201.762 27.0056C201.754 27.0406 201.734 27.0716 201.705 27.0939C201.677 27.1161 201.642 27.1282 201.606 27.1283ZM225.796 26.7449C225.756 26.7448 225.717 26.7294 225.687 26.7019C225.657 26.6745 225.639 26.6369 225.636 26.5966C225.633 26.5564 225.645 26.5165 225.67 26.4849C225.696 26.4533 225.732 26.4323 225.772 26.4261C226.261 26.3517 226.706 26.33 227.094 26.3615C227.116 26.3632 227.136 26.3691 227.155 26.3787C227.174 26.3883 227.191 26.4015 227.204 26.4176C227.218 26.4336 227.228 26.4522 227.235 26.4722C227.241 26.4923 227.244 26.5134 227.242 26.5344C227.24 26.5554 227.234 26.5758 227.225 26.5945C227.215 26.6133 227.202 26.6299 227.186 26.6435C227.169 26.6572 227.151 26.6675 227.131 26.6739C227.11 26.6804 227.089 26.6828 227.068 26.681C226.705 26.6515 226.285 26.6723 225.821 26.743C225.813 26.7442 225.805 26.7449 225.796 26.7449ZM199.114 26.4601C199.099 26.4601 199.083 26.458 199.068 26.4534C198.654 26.3307 198.242 26.2022 197.832 26.068C197.812 26.0616 197.793 26.0512 197.777 26.0375C197.76 26.0238 197.747 26.0071 197.737 25.9882C197.728 25.9693 197.722 25.9487 197.72 25.9276C197.719 25.9065 197.721 25.8852 197.728 25.8651C197.735 25.845 197.745 25.8264 197.759 25.8103C197.773 25.7943 197.79 25.7812 197.809 25.7718C197.828 25.7623 197.849 25.7567 197.87 25.7553C197.892 25.7539 197.913 25.7567 197.933 25.7636C198.34 25.8969 198.749 26.0244 199.16 26.1462C199.197 26.1572 199.229 26.1811 199.25 26.2136C199.271 26.246 199.279 26.2849 199.273 26.323C199.268 26.3611 199.249 26.3959 199.219 26.4211C199.19 26.4462 199.153 26.4601 199.114 26.4601ZM196.663 25.6566C196.644 25.6566 196.626 25.6533 196.608 25.647C196.202 25.5005 195.799 25.3476 195.398 25.1881C195.378 25.1803 195.36 25.1687 195.345 25.154C195.33 25.1393 195.318 25.1218 195.309 25.1024C195.301 25.0831 195.297 25.0623 195.296 25.0413C195.296 25.0202 195.3 24.9993 195.308 24.9798C195.316 24.9602 195.327 24.9424 195.342 24.9274C195.357 24.9123 195.375 24.9003 195.394 24.892C195.413 24.8837 195.434 24.8793 195.456 24.879C195.477 24.8788 195.498 24.8827 195.517 24.8905C195.915 25.0486 196.316 25.2004 196.718 25.3457C196.754 25.3586 196.784 25.3835 196.803 25.4162C196.821 25.4488 196.828 25.487 196.822 25.524C196.815 25.5611 196.796 25.5947 196.767 25.619C196.738 25.6432 196.701 25.6565 196.663 25.6566ZM194.268 24.7025C194.245 24.7025 194.223 24.6978 194.203 24.6888C193.802 24.513 193.407 24.3303 193.027 24.1457C192.99 24.1264 192.962 24.0934 192.948 24.0537C192.935 24.014 192.938 23.9708 192.957 23.9332C192.975 23.8957 193.008 23.8668 193.047 23.8527C193.087 23.8386 193.13 23.8404 193.169 23.8577C193.553 24.0444 193.941 24.2237 194.333 24.3955C194.367 24.4105 194.394 24.4364 194.411 24.4691C194.428 24.5018 194.433 24.5393 194.425 24.5752C194.418 24.6111 194.398 24.6434 194.369 24.6665C194.341 24.6897 194.305 24.7024 194.268 24.7025ZM191.951 23.5744C191.925 23.5744 191.898 23.5682 191.874 23.5549C191.494 23.3496 191.118 23.135 190.749 22.9115C190.714 22.8886 190.689 22.8532 190.68 22.8126C190.671 22.7721 190.678 22.7296 190.7 22.6941C190.721 22.6586 190.756 22.6329 190.797 22.6223C190.837 22.6118 190.88 22.6173 190.916 22.6377C191.282 22.8585 191.652 23.0705 192.028 23.2733C192.059 23.2903 192.084 23.3173 192.099 23.35C192.113 23.3826 192.116 23.4191 192.107 23.4537C192.098 23.4882 192.078 23.5189 192.05 23.5407C192.021 23.5626 191.987 23.5745 191.951 23.5744ZM189.75 22.2378C189.717 22.2378 189.685 22.228 189.659 22.2095C189.301 21.9651 188.953 21.7092 188.612 21.4421C188.58 21.4153 188.559 21.377 188.555 21.3354C188.551 21.2938 188.563 21.2522 188.589 21.2194C188.615 21.1866 188.653 21.1652 188.695 21.1599C188.737 21.1545 188.779 21.1656 188.812 21.1907C189.147 21.4535 189.49 21.7052 189.842 21.9456C189.87 21.965 189.891 21.9929 189.902 22.0252C189.914 22.0575 189.914 22.0926 189.904 22.1252C189.894 22.1578 189.873 22.1864 189.845 22.2066C189.818 22.2269 189.784 22.2378 189.75 22.2378ZM187.732 20.6439C187.693 20.6439 187.654 20.6298 187.623 20.6012C187.296 20.2999 186.988 19.9893 186.708 19.6782C186.694 19.6625 186.683 19.6442 186.676 19.6244C186.669 19.6045 186.666 19.5835 186.667 19.5625C186.668 19.5415 186.674 19.5209 186.683 19.5019C186.692 19.4829 186.705 19.466 186.721 19.4519C186.736 19.4379 186.755 19.4271 186.775 19.4201C186.795 19.4131 186.816 19.4101 186.837 19.4113C186.858 19.4124 186.879 19.4177 186.898 19.4268C186.917 19.4359 186.934 19.4487 186.948 19.4644C187.222 19.7681 187.522 20.0715 187.842 20.3661C187.866 20.388 187.882 20.4165 187.89 20.4479C187.897 20.4793 187.894 20.5122 187.883 20.5422C187.871 20.5722 187.85 20.5979 187.823 20.6161C187.797 20.6342 187.765 20.6439 187.732 20.6439ZM186.024 18.7326C185.998 18.7327 185.972 18.7265 185.95 18.7148C185.927 18.703 185.907 18.686 185.892 18.6651C185.633 18.3023 185.403 17.9296 185.207 17.5576C185.188 17.5199 185.184 17.4763 185.197 17.436C185.21 17.3958 185.238 17.3623 185.276 17.3427C185.314 17.3231 185.357 17.3191 185.398 17.3315C185.439 17.3439 185.473 17.3718 185.493 17.409C185.682 17.7683 185.904 18.1285 186.155 18.4796C186.172 18.5036 186.182 18.5318 186.184 18.5611C186.186 18.5904 186.18 18.6197 186.167 18.6458C186.153 18.672 186.133 18.6939 186.107 18.7092C186.082 18.7245 186.053 18.7326 186.024 18.7326ZM184.845 16.4696C184.811 16.4696 184.778 16.459 184.751 16.4394C184.723 16.4197 184.703 16.392 184.692 16.3602C184.553 15.9474 184.45 15.5233 184.385 15.0927C184.382 15.0719 184.383 15.0506 184.388 15.0302C184.393 15.0098 184.402 14.9906 184.415 14.9737C184.428 14.9568 184.443 14.9425 184.462 14.9317C184.48 14.9209 184.5 14.9137 184.521 14.9106C184.542 14.9075 184.563 14.9085 184.584 14.9136C184.604 14.9186 184.624 14.9277 184.641 14.9403C184.658 14.9528 184.672 14.9686 184.683 14.9867C184.694 15.0048 184.701 15.0248 184.704 15.0457C184.765 15.4519 184.863 15.8599 184.998 16.2583C185.006 16.2824 185.008 16.3081 185.004 16.3333C185 16.3584 184.991 16.3823 184.976 16.4029C184.961 16.4236 184.941 16.4404 184.918 16.452C184.896 16.4636 184.87 16.4696 184.845 16.4696ZM184.473 13.9527C184.471 13.9527 184.469 13.9527 184.467 13.9526C184.446 13.9519 184.425 13.947 184.406 13.9383C184.386 13.9296 184.369 13.9172 184.355 13.9018C184.34 13.8864 184.329 13.8683 184.322 13.8486C184.314 13.8289 184.311 13.8079 184.311 13.7869C184.326 13.3587 184.38 12.9218 184.471 12.4887C184.475 12.4679 184.483 12.4481 184.495 12.4304C184.507 12.4128 184.522 12.3977 184.54 12.3859C184.558 12.3742 184.578 12.3661 184.599 12.3621C184.62 12.3581 184.641 12.3583 184.662 12.3626C184.683 12.367 184.703 12.3754 184.72 12.3874C184.738 12.3994 184.753 12.4148 184.765 12.4326C184.776 12.4504 184.784 12.4703 184.788 12.4912C184.792 12.5121 184.791 12.5335 184.786 12.5542C184.699 12.9695 184.648 13.388 184.634 13.798C184.632 13.8395 184.615 13.8788 184.584 13.9077C184.554 13.9366 184.514 13.9527 184.473 13.9527ZM184.988 11.452C184.962 11.452 184.937 11.4457 184.914 11.4338C184.891 11.4218 184.871 11.4044 184.856 11.3831C184.841 11.3619 184.832 11.3374 184.828 11.3117C184.825 11.286 184.828 11.26 184.837 11.2357C184.984 10.8426 185.164 10.443 185.372 10.048C185.392 10.0104 185.426 9.98209 185.467 9.9694C185.487 9.96312 185.509 9.96086 185.53 9.96274C185.551 9.96462 185.571 9.97062 185.59 9.98038C185.609 9.99014 185.625 10.0035 185.639 10.0196C185.652 10.0358 185.663 10.0545 185.669 10.0745C185.675 10.0946 185.678 10.1158 185.676 10.1367C185.674 10.1577 185.668 10.1781 185.658 10.1967C185.456 10.5798 185.282 10.967 185.139 11.3475C185.128 11.3782 185.107 11.4046 185.08 11.4233C185.053 11.442 185.021 11.452 184.988 11.452ZM186.173 9.18075C186.144 9.18073 186.115 9.17286 186.09 9.15797C186.065 9.14309 186.045 9.12174 186.031 9.09621C186.017 9.07069 186.011 9.04192 186.012 9.01299C186.013 8.98405 186.022 8.95602 186.039 8.93188C186.27 8.58517 186.528 8.23289 186.805 7.88477C186.832 7.853 186.871 7.83294 186.912 7.82882C186.954 7.8247 186.996 7.83685 187.028 7.8627C187.061 7.88856 187.083 7.92608 187.088 7.96735C187.094 8.00861 187.083 8.05038 187.058 8.08382C186.786 8.4249 186.533 8.76983 186.307 9.10901C186.293 9.1311 186.273 9.14922 186.249 9.16174C186.226 9.17427 186.199 9.1808 186.173 9.18075ZM187.765 7.17309C187.734 7.17306 187.703 7.16401 187.677 7.14704C187.651 7.13006 187.63 7.10589 187.617 7.07746C187.605 7.04903 187.601 7.01757 187.606 6.98691C187.611 6.95625 187.625 6.9277 187.646 6.90474C187.792 6.74569 187.94 6.58887 188.091 6.43433C188.106 6.41923 188.124 6.40716 188.143 6.39882C188.162 6.39047 188.183 6.38601 188.204 6.3857C188.226 6.38538 188.247 6.38922 188.266 6.39698C188.286 6.40474 188.304 6.41627 188.319 6.43093C188.334 6.44558 188.346 6.46307 188.355 6.48239C188.363 6.50171 188.368 6.52248 188.368 6.54352C188.368 6.56456 188.364 6.58546 188.357 6.60502C188.349 6.62458 188.337 6.64242 188.323 6.65753C188.174 6.80972 188.028 6.96415 187.884 7.12077C187.869 7.13728 187.85 7.15047 187.83 7.15948C187.809 7.1685 187.787 7.17313 187.765 7.17309Z" fill="#FF5151"/>
<path d="M223.509 50.6995C222.022 52.3309 219.426 52.2964 217.85 50.7512C216.272 49.2039 216.249 46.6733 217.798 45.0993C219.348 43.5234 221.901 43.4813 223.457 45.0475C224.984 46.5832 224.965 49.1044 223.509 50.6995Z" fill="#D7D7FF"/>
<path d="M220.626 45.3981C219.506 45.3981 218.597 46.3056 218.597 47.4247C218.597 48.5436 220.626 50.4125 220.626 50.4125C220.626 50.4125 222.656 48.5437 222.656 47.4247C222.656 46.3056 221.747 45.3981 220.626 45.3981ZM220.626 48.5504C220.478 48.5505 220.332 48.5214 220.195 48.4649C220.058 48.4083 219.934 48.3254 219.829 48.2208C219.724 48.1163 219.641 47.9922 219.585 47.8556C219.528 47.7189 219.499 47.5725 219.499 47.4247C219.499 47.1261 219.618 46.8398 219.829 46.6287C220.041 46.4176 220.327 46.299 220.626 46.2989C220.925 46.299 221.212 46.4176 221.423 46.6287C221.635 46.8398 221.753 47.1261 221.754 47.4247C221.754 47.5725 221.725 47.7189 221.668 47.8556C221.611 47.9922 221.528 48.1163 221.424 48.2208C221.319 48.3254 221.195 48.4083 221.058 48.4649C220.921 48.5214 220.774 48.5505 220.626 48.5504Z" fill="white"/>
<path d="M193.626 7.48261C192.138 9.11401 189.542 9.07957 187.966 7.53435C186.388 5.98708 186.365 3.45644 187.914 1.88243C189.464 0.306545 192.017 0.264393 193.574 1.83069C195.1 3.36631 195.081 5.88753 193.626 7.48261Z" fill="#D7D7FF"/>
<path d="M190.743 2.18066C189.622 2.18066 188.713 3.08812 188.713 4.2072C188.713 5.3261 190.743 7.195 190.743 7.195C190.743 7.195 192.772 5.32627 192.772 4.2072C192.772 3.08812 191.863 2.18066 190.743 2.18066ZM190.743 5.33295C190.595 5.33302 190.448 5.30395 190.311 5.2474C190.174 5.19085 190.05 5.10793 189.945 5.00338C189.841 4.89883 189.758 4.7747 189.701 4.63809C189.644 4.50147 189.615 4.35505 189.615 4.2072C189.616 3.90866 189.734 3.62237 189.946 3.41127C190.157 3.20017 190.444 3.08153 190.743 3.08144C191.042 3.08153 191.328 3.20017 191.54 3.41127C191.751 3.62237 191.87 3.90866 191.87 4.2072C191.87 4.35505 191.841 4.50147 191.784 4.63809C191.728 4.7747 191.645 4.89883 191.54 5.00338C191.435 5.10793 191.311 5.19085 191.174 5.2474C191.037 5.30395 190.891 5.33302 190.743 5.33295Z" fill="white"/>
<path d="M271.325 21.2056C271.271 21.1747 271.207 21.165 271.147 21.1786C271.086 21.1922 271.033 21.2281 270.998 21.2791L267.332 26.594C267.295 26.6477 267.281 26.7138 267.293 26.7779C267.305 26.8419 267.342 26.8986 267.396 26.9355L275.424 32.4343C275.478 32.4711 275.544 32.4852 275.608 32.4735C275.672 32.4618 275.729 32.4253 275.766 32.3719L279.447 27.0842C279.479 27.038 279.494 26.9824 279.49 26.9265C279.486 26.8707 279.463 26.8179 279.424 26.777L279.384 26.7335C279.368 26.717 279.351 26.7027 279.331 26.691L275.414 23.9822C275.406 23.9776 275.328 23.9193 275.322 23.9135L271.351 21.2228C271.343 21.2165 271.334 21.2108 271.325 21.2056Z" fill="#6F77F4"/>
<path d="M271.247 20.8277C271.193 20.7968 271.129 20.7873 271.069 20.8009C271.008 20.8146 270.955 20.8504 270.92 20.9013L267.254 26.2161C267.236 26.2426 267.223 26.2726 267.216 26.3041C267.209 26.3357 267.209 26.3682 267.215 26.3999C267.221 26.4317 267.233 26.4619 267.251 26.4889C267.268 26.516 267.291 26.5393 267.318 26.5575L275.346 32.0564C275.4 32.0932 275.466 32.1073 275.53 32.0956C275.594 32.0839 275.651 32.0473 275.688 31.9939L279.369 26.7064C279.401 26.6602 279.416 26.6046 279.412 26.5487C279.408 26.4928 279.385 26.44 279.346 26.399L279.306 26.3556C279.29 26.3391 279.273 26.3249 279.254 26.3133L275.337 23.6042C275.329 23.5999 275.251 23.5413 275.245 23.5356L271.274 20.8448C271.265 20.8386 271.256 20.8329 271.247 20.8277Z" fill="#D6D8F9"/>
<path d="M271.26 20.8361C271.26 20.8361 274.396 22.1191 275.243 23.5411L271.425 29.0763L267.454 26.3558L271.26 20.8361Z" fill="white"/>
<path d="M267.453 26.3548C267.453 26.3548 269.674 27.2429 270.842 28.2729C271.201 28.5899 271.425 29.0753 271.425 29.0753L267.453 26.3548Z" fill="#D6D8F9"/>
<path opacity="0.3" d="M273.124 26.2092C273.115 26.2093 273.107 26.2082 273.098 26.206C273.086 26.2026 273.074 26.1969 273.064 26.189C273.054 26.1812 273.046 26.1714 273.04 26.1602C272.695 25.5655 271.838 24.9937 271.179 24.6179C270.73 24.3626 270.267 24.1326 269.793 23.9288C269.77 23.9183 269.753 23.8996 269.744 23.8765C269.735 23.8534 269.735 23.8277 269.744 23.8049C269.754 23.782 269.772 23.7637 269.795 23.7537C269.818 23.7438 269.843 23.743 269.867 23.7515C270.345 23.9566 270.812 24.188 271.265 24.4446C272.258 25.0086 272.911 25.5537 273.207 26.0644C273.215 26.079 273.22 26.0955 273.22 26.1123C273.22 26.1291 273.215 26.1457 273.207 26.1602C273.198 26.1748 273.186 26.1869 273.172 26.1954C273.157 26.2038 273.14 26.2082 273.124 26.2083V26.2092ZM269.83 23.8366C269.829 23.8365 269.828 23.8368 269.827 23.8373C269.826 23.8378 269.826 23.8385 269.826 23.8393C269.825 23.8405 269.825 23.8417 269.826 23.8428C269.826 23.8439 269.827 23.8448 269.828 23.8453C270.306 24.0505 270.772 24.2821 271.224 24.5392C272.198 25.0935 272.835 25.6236 273.119 26.1154C273.12 26.1159 273.12 26.1164 273.121 26.1167C273.121 26.1171 273.122 26.1173 273.122 26.1175C273.123 26.1178 273.124 26.1178 273.125 26.1175C273.126 26.1169 273.127 26.1159 273.128 26.1148C273.128 26.1136 273.128 26.1123 273.127 26.1113C272.84 25.6147 272.198 25.082 271.22 24.5251C270.77 24.2704 270.306 24.0407 269.831 23.8371L269.83 23.8366ZM272.677 26.8565C272.668 26.8565 272.66 26.8555 272.652 26.8533C272.639 26.8499 272.628 26.8441 272.618 26.8363C272.608 26.8284 272.599 26.8186 272.593 26.8075C272.249 26.2128 271.392 25.641 270.732 25.2652C270.284 25.0099 269.821 24.7799 269.346 24.5761C269.335 24.5712 269.324 24.5642 269.315 24.5553C269.306 24.5464 269.299 24.5358 269.294 24.5241C269.289 24.5125 269.287 24.5 269.287 24.4874C269.287 24.4748 269.289 24.4624 269.294 24.4507C269.299 24.4391 269.306 24.4285 269.315 24.4196C269.324 24.4107 269.335 24.4036 269.346 24.3988C269.358 24.394 269.37 24.3915 269.383 24.3915C269.396 24.3915 269.408 24.394 269.42 24.3988C269.899 24.6038 270.366 24.8351 270.819 25.0916C271.812 25.6559 272.465 26.2009 272.76 26.7117C272.769 26.7263 272.773 26.7428 272.773 26.7597C272.773 26.7765 272.769 26.793 272.76 26.8076C272.752 26.8222 272.74 26.8343 272.725 26.8427C272.71 26.8512 272.694 26.8556 272.677 26.8556L272.677 26.8565ZM272.675 26.765C272.676 26.7652 272.676 26.7653 272.677 26.7653C272.678 26.7653 272.678 26.7652 272.679 26.765C272.68 26.7644 272.68 26.7634 272.681 26.7622C272.681 26.7611 272.681 26.7599 272.68 26.7588C272.393 26.2622 271.752 25.7295 270.773 25.1726C270.323 24.918 269.86 24.6883 269.385 24.4846C269.384 24.4844 269.384 24.4842 269.383 24.4843C269.382 24.4843 269.382 24.4844 269.381 24.4846C269.381 24.4849 269.38 24.4852 269.38 24.4856C269.379 24.486 269.379 24.4865 269.379 24.4871C269.379 24.4876 269.378 24.4882 269.378 24.4888C269.378 24.4893 269.379 24.4899 269.379 24.4905C269.379 24.491 269.379 24.4915 269.38 24.4919C269.38 24.4923 269.381 24.4926 269.381 24.4928C269.859 24.6983 270.325 24.93 270.778 25.187C271.751 25.7412 272.388 26.2714 272.673 26.7632C272.673 26.7636 272.673 26.764 272.674 26.7643C272.674 26.7646 272.675 26.7647 272.675 26.7648V26.765ZM274.028 24.881C274.011 24.8809 273.994 24.8764 273.979 24.8679C273.965 24.8595 273.953 24.8473 273.944 24.8327C273.278 23.6797 270.723 22.6118 270.697 22.6012C270.674 22.5909 270.657 22.5722 270.648 22.5491C270.638 22.526 270.639 22.5002 270.648 22.4773C270.658 22.4543 270.676 22.4359 270.699 22.4259C270.721 22.4159 270.747 22.4152 270.771 22.4237C271.249 22.629 271.716 22.8605 272.169 23.117C273.162 23.6811 273.816 24.2261 274.111 24.7371C274.124 24.7591 274.127 24.7853 274.12 24.8098C274.114 24.8343 274.098 24.8552 274.076 24.8679C274.061 24.8765 274.045 24.881 274.028 24.881ZM270.734 22.5081C270.733 22.5081 270.732 22.5084 270.732 22.5088C270.731 22.5093 270.73 22.51 270.73 22.5109C270.73 22.512 270.73 22.5132 270.73 22.5143C270.731 22.5154 270.731 22.5163 270.732 22.5168C271.211 22.7221 271.677 22.9539 272.129 23.211C273.102 23.765 273.74 24.2954 274.024 24.7872C274.024 24.7881 274.025 24.7888 274.027 24.7892C274.028 24.7897 274.029 24.7897 274.03 24.7892C274.031 24.7886 274.032 24.7876 274.032 24.7865C274.032 24.7853 274.032 24.7841 274.032 24.7831C273.745 24.2865 273.103 23.7538 272.124 23.1968C271.674 22.9422 271.211 22.7126 270.736 22.5088L270.734 22.5081ZM274.473 24.1314C274.465 24.1314 274.456 24.1302 274.448 24.128C274.436 24.1246 274.424 24.1188 274.414 24.111C274.404 24.1031 274.396 24.0934 274.39 24.0822C274.046 23.4876 273.188 22.9157 272.529 22.5402C272.08 22.2849 271.617 22.0548 271.143 21.8508C271.125 21.8436 271.11 21.8313 271.099 21.8155C271.089 21.7997 271.083 21.7811 271.083 21.762C271.083 21.743 271.089 21.7244 271.099 21.7086C271.11 21.6928 271.125 21.6805 271.143 21.6733C271.154 21.6684 271.167 21.6658 271.18 21.6658C271.192 21.6658 271.205 21.6684 271.216 21.6733C271.695 21.8783 272.162 22.1096 272.614 22.3661C273.607 22.9301 274.261 23.4752 274.556 23.9862C274.565 24.0008 274.569 24.0173 274.569 24.0341C274.569 24.051 274.565 24.0675 274.556 24.0821C274.548 24.0967 274.536 24.1088 274.521 24.1172C274.506 24.1256 274.49 24.1301 274.473 24.13L274.473 24.1314ZM274.472 24.0399C274.473 24.0402 274.473 24.0404 274.474 24.0404C274.474 24.0404 274.475 24.0402 274.475 24.0399C274.476 24.0397 274.476 24.0393 274.477 24.0389C274.477 24.0384 274.477 24.0379 274.478 24.0373C274.478 24.0368 274.478 24.0362 274.478 24.0356C274.478 24.035 274.477 24.0345 274.477 24.034C274.19 23.5372 273.548 23.0047 272.57 22.4478C272.12 22.193 271.657 21.9634 271.181 21.7597C271.181 21.7595 271.18 21.7594 271.18 21.7594C271.179 21.7594 271.179 21.7595 271.178 21.7597C271.178 21.76 271.177 21.7603 271.177 21.7608C271.176 21.7612 271.176 21.7617 271.176 21.7623C271.175 21.7628 271.175 21.7634 271.175 21.764C271.175 21.7646 271.175 21.7652 271.176 21.7657C271.176 21.7663 271.176 21.7668 271.177 21.7672C271.177 21.7677 271.177 21.768 271.178 21.7682C271.204 21.779 273.787 22.8576 274.47 24.0386C274.47 24.0389 274.47 24.0392 274.471 24.0394C274.471 24.0396 274.472 24.0397 274.472 24.0397V24.0399ZM273.581 25.5285C273.572 25.5286 273.564 25.5275 273.555 25.5253C273.543 25.522 273.531 25.5162 273.521 25.5083C273.511 25.5005 273.503 25.4907 273.497 25.4795C272.831 24.3258 270.275 23.2586 270.25 23.2481C270.227 23.2377 270.209 23.219 270.2 23.1959C270.191 23.1728 270.191 23.1471 270.201 23.1241C270.21 23.1011 270.228 23.0827 270.251 23.0727C270.274 23.0628 270.3 23.062 270.323 23.0706C270.802 23.2757 271.269 23.5071 271.722 23.7639C272.715 24.3279 273.368 24.873 273.664 25.3837C273.672 25.3983 273.677 25.4148 273.677 25.4316C273.677 25.4484 273.672 25.465 273.664 25.4795C273.655 25.4941 273.643 25.5062 273.629 25.5147C273.614 25.5231 273.597 25.5276 273.581 25.5276V25.5285ZM270.287 23.1559C270.286 23.1559 270.285 23.1561 270.284 23.1566C270.284 23.1571 270.283 23.1578 270.283 23.1586C270.282 23.1592 270.282 23.1598 270.282 23.1603C270.282 23.1609 270.282 23.1615 270.283 23.162C270.283 23.1626 270.283 23.1631 270.284 23.1635C270.284 23.1638 270.285 23.1642 270.285 23.1644C270.763 23.3698 271.229 23.6016 271.681 23.8586C272.655 24.4128 273.292 24.9429 273.576 25.4347C273.577 25.4352 273.577 25.4357 273.578 25.436C273.578 25.4364 273.579 25.4366 273.579 25.4368C273.58 25.437 273.58 25.4371 273.581 25.4371C273.581 25.4371 273.582 25.437 273.582 25.4368C273.583 25.4361 273.584 25.4351 273.584 25.434C273.585 25.4329 273.585 25.4317 273.584 25.4306C273.297 24.934 272.655 24.4013 271.677 23.8444C271.227 23.5896 270.763 23.3599 270.288 23.1564L270.287 23.1559ZM272.23 27.5042C272.221 27.5042 272.213 27.5031 272.205 27.501C272.192 27.4977 272.181 27.4919 272.171 27.484C272.161 27.4762 272.152 27.4664 272.146 27.4553C271.481 26.3018 268.925 25.2346 268.899 25.2238C268.877 25.2134 268.859 25.1946 268.85 25.1715C268.841 25.1484 268.841 25.1228 268.851 25.0999C268.86 25.077 268.878 25.0587 268.901 25.0488C268.924 25.0388 268.95 25.038 268.973 25.0466C269.452 25.2518 269.918 25.4832 270.371 25.7396C271.365 26.3036 272.018 26.8489 272.313 27.3597C272.326 27.3818 272.329 27.408 272.323 27.4325C272.316 27.4571 272.3 27.4781 272.278 27.4907C272.263 27.4994 272.247 27.504 272.23 27.5042ZM272.229 27.4127C272.229 27.413 272.23 27.4131 272.23 27.4131C272.231 27.4131 272.231 27.413 272.232 27.4127C272.233 27.4122 272.234 27.4112 272.234 27.41C272.234 27.4089 272.234 27.4076 272.234 27.4066C271.947 26.91 271.305 26.3773 270.326 25.8203C269.876 25.5656 269.413 25.336 268.938 25.1323C268.937 25.1319 268.936 25.1318 268.935 25.1323C268.933 25.1327 268.932 25.1335 268.932 25.1346C268.932 25.1357 268.932 25.137 268.932 25.1381C268.932 25.1392 268.933 25.1401 268.935 25.1406C269.413 25.346 269.879 25.5778 270.331 25.8348C271.304 26.389 271.942 26.9192 272.226 27.4109C272.227 27.4118 272.227 27.4123 272.229 27.4125V27.4127ZM270.555 26.9937C270.546 26.9937 270.538 26.9926 270.53 26.9905C270.52 26.9877 270.51 26.9832 270.501 26.9772C269.558 26.3396 268.46 25.8823 268.449 25.8778C268.425 25.868 268.406 25.8493 268.396 25.8258C268.387 25.8023 268.387 25.7759 268.396 25.7524C268.406 25.7289 268.425 25.7102 268.449 25.7005C268.472 25.6908 268.499 25.6908 268.522 25.7005C268.568 25.7197 269.658 26.1753 270.609 26.8183C270.626 26.8298 270.639 26.8465 270.646 26.8659C270.652 26.8853 270.653 26.9063 270.647 26.9259C270.641 26.9455 270.629 26.9627 270.612 26.9749C270.595 26.9871 270.575 26.9937 270.555 26.9937ZM268.485 25.7847C268.484 25.7847 268.483 25.7849 268.482 25.7854C268.481 25.7859 268.481 25.7866 268.48 25.7874C268.48 25.7885 268.48 25.7898 268.481 25.7909C268.481 25.792 268.482 25.7929 268.483 25.7934C268.494 25.7979 269.601 26.2586 270.552 26.9015H270.553C270.554 26.9018 270.555 26.9018 270.556 26.9015C270.557 26.9011 270.557 26.9005 270.558 26.8997C270.559 26.8989 270.559 26.8978 270.559 26.8966C270.559 26.8955 270.559 26.8944 270.558 26.8935C269.614 26.2556 268.499 25.7892 268.487 25.7847H268.485Z" fill="black"/>
<path d="M279.283 26.3309C279.283 26.3309 276.957 23.873 275.322 23.5948L271.504 29.1301L275.475 31.8505L279.283 26.3309Z" fill="white"/>
<path d="M275.476 31.8501C275.476 31.8501 273.848 30.1022 272.465 29.3844C272.039 29.1635 271.504 29.1296 271.504 29.1296L275.476 31.8501Z" fill="#D6D8F9"/>
<path opacity="0.3" d="M278.321 26.8913C278.313 26.8913 278.304 26.8902 278.296 26.8879C278.278 26.8835 278.263 26.8743 278.25 26.8614C278.231 26.8413 276.313 24.8463 274.996 24.6402C274.971 24.6353 274.95 24.6212 274.936 24.6009C274.921 24.5805 274.916 24.5555 274.92 24.531C274.923 24.5065 274.937 24.4845 274.957 24.4695C274.976 24.4545 275.001 24.4477 275.026 24.4506C275.611 24.5421 276.356 24.9552 277.239 25.6766C277.642 26.0059 278.026 26.3572 278.39 26.7287C278.403 26.7423 278.411 26.7593 278.415 26.7776C278.418 26.796 278.416 26.8149 278.408 26.8321C278.401 26.8492 278.389 26.8639 278.373 26.8743C278.358 26.8847 278.34 26.8904 278.321 26.8907L278.321 26.8913ZM278.32 26.7999C278.32 26.8002 278.321 26.8004 278.322 26.8004C278.323 26.8004 278.323 26.8002 278.324 26.7999C278.325 26.7995 278.325 26.799 278.325 26.7985C278.325 26.798 278.326 26.7974 278.326 26.7969C278.326 26.7958 278.326 26.7947 278.326 26.7937C277.964 26.4249 277.583 26.0761 277.184 25.7488C276.311 25.0377 275.583 24.632 275.014 24.5423C275.013 24.5422 275.011 24.5425 275.01 24.5432C275.01 24.544 275.009 24.545 275.009 24.5462C275.009 24.5473 275.009 24.5485 275.01 24.5494C275.01 24.5503 275.011 24.551 275.012 24.5512C275.575 24.6393 276.3 25.0423 277.168 25.7491C277.571 26.0779 277.955 26.4287 278.319 26.7999H278.32ZM277.874 27.5391C277.866 27.5391 277.857 27.5379 277.849 27.5357C277.832 27.5313 277.816 27.5221 277.803 27.5091C277.784 27.489 275.861 25.4929 274.549 25.288C274.525 25.283 274.503 25.2689 274.489 25.2486C274.475 25.2283 274.469 25.2034 274.473 25.1789C274.477 25.1545 274.49 25.1325 274.51 25.1175C274.53 25.1025 274.554 25.0956 274.579 25.0983C275.164 25.1898 275.909 25.6015 276.793 26.3243C277.195 26.6538 277.579 27.0051 277.943 27.3765C277.956 27.39 277.964 27.4071 277.968 27.4254C277.971 27.4438 277.969 27.4628 277.962 27.48C277.954 27.4972 277.942 27.5119 277.927 27.5224C277.911 27.5328 277.893 27.5384 277.874 27.5386L277.874 27.5391ZM277.873 27.4476C277.874 27.4478 277.875 27.4478 277.875 27.4476C277.876 27.4474 277.877 27.447 277.877 27.4465C277.878 27.4456 277.878 27.4445 277.878 27.4434C277.878 27.4422 277.878 27.4412 277.877 27.4403C277.516 27.071 277.135 26.7221 276.735 26.3952C275.863 25.6841 275.134 25.2784 274.566 25.1889C274.565 25.1888 274.565 25.1888 274.564 25.189C274.563 25.1891 274.563 25.1894 274.562 25.1897C274.562 25.19 274.562 25.1905 274.561 25.191C274.561 25.1915 274.561 25.192 274.561 25.1926C274.561 25.1932 274.561 25.1938 274.561 25.1944C274.561 25.195 274.561 25.1955 274.562 25.196C274.562 25.1965 274.562 25.1969 274.563 25.1972C274.563 25.1976 274.564 25.1978 274.565 25.1978C275.127 25.2857 275.852 25.6887 276.72 26.3957C277.123 26.7248 277.507 27.0755 277.871 27.4462C277.871 27.4468 277.872 27.4472 277.873 27.4474L277.873 27.4476ZM277.427 28.1866C277.419 28.1867 277.41 28.1856 277.402 28.1834C277.385 28.179 277.369 28.1698 277.356 28.1569C277.337 28.1368 275.42 26.1413 274.102 25.9355C274.09 25.9336 274.078 25.9293 274.067 25.9228C274.056 25.9162 274.047 25.9077 274.04 25.8975C274.028 25.8823 274.022 25.864 274.021 25.8451C274.02 25.8262 274.025 25.8075 274.035 25.7913C274.045 25.7751 274.059 25.7622 274.076 25.7542C274.093 25.7461 274.113 25.7433 274.131 25.7461C274.716 25.8376 275.461 26.2493 276.345 26.9721C276.747 27.3017 277.131 27.6529 277.495 28.0242C277.513 28.0427 277.522 28.0673 277.522 28.0928C277.521 28.1182 277.51 28.1423 277.492 28.1599C277.474 28.1765 277.451 28.186 277.427 28.1866ZM274.119 25.8362C274.117 25.8362 274.116 25.8366 274.116 25.8373C274.115 25.838 274.114 25.839 274.114 25.8401C274.114 25.8407 274.114 25.8412 274.114 25.8418C274.114 25.8424 274.114 25.843 274.114 25.8435C274.114 25.844 274.115 25.8444 274.115 25.8447C274.116 25.845 274.116 25.8451 274.117 25.8451C274.68 25.9332 275.405 26.3362 276.273 27.0432C276.675 27.372 277.06 27.7227 277.423 28.0938L277.425 28.0951C277.426 28.0954 277.427 28.0956 277.427 28.0956C277.428 28.0956 277.429 28.0954 277.43 28.0951C277.43 28.0943 277.431 28.0932 277.431 28.092C277.431 28.0909 277.43 28.0898 277.43 28.089C277.069 27.7196 276.688 27.3707 276.288 27.0439C275.415 26.3328 274.687 25.927 274.118 25.8376L274.119 25.8362ZM276.98 28.8344C276.972 28.8343 276.964 28.8333 276.956 28.8312C276.938 28.8268 276.922 28.8176 276.91 28.8046C276.891 28.7845 274.972 26.7893 273.656 26.5832C273.643 26.5813 273.631 26.5769 273.62 26.5703C273.61 26.5638 273.6 26.5552 273.593 26.545C273.585 26.5348 273.58 26.5233 273.577 26.5111C273.574 26.4988 273.574 26.4861 273.576 26.4737C273.577 26.4613 273.582 26.4493 273.588 26.4386C273.595 26.4278 273.604 26.4185 273.614 26.4111C273.624 26.4037 273.636 26.3983 273.648 26.3954C273.66 26.3924 273.673 26.3919 273.685 26.3939C274.27 26.4854 275.015 26.8971 275.899 27.6198C276.302 27.9492 276.686 28.3005 277.05 28.672C277.058 28.6811 277.065 28.6919 277.07 28.7037C277.074 28.7154 277.076 28.728 277.076 28.7406C277.076 28.7532 277.073 28.7656 277.068 28.7771C277.062 28.7886 277.055 28.799 277.046 28.8076C277.028 28.8245 277.005 28.8341 276.98 28.8344ZM276.98 28.7429C276.981 28.7432 276.982 28.7433 276.983 28.7433C276.983 28.7433 276.984 28.7432 276.985 28.7429C276.986 28.742 276.986 28.7409 276.986 28.7397C276.986 28.7391 276.986 28.7386 276.986 28.738C276.986 28.7375 276.985 28.7371 276.985 28.7367C276.624 28.3677 276.242 28.0188 275.843 27.6917C274.971 26.9805 274.242 26.5748 273.673 26.4854C273.672 26.4854 273.671 26.4858 273.67 26.4866C273.669 26.4874 273.669 26.4885 273.669 26.4897C273.669 26.4908 273.669 26.492 273.67 26.4928C273.671 26.4936 273.672 26.494 273.673 26.494C274.236 26.5821 274.961 26.9851 275.829 27.6921C276.232 28.0209 276.616 28.3716 276.98 28.7427L276.982 28.744L276.98 28.7429ZM276.539 29.5164C276.53 29.5164 276.522 29.5153 276.514 29.513C276.496 29.5087 276.48 29.4995 276.468 29.4865C276.449 29.4664 274.531 27.4712 273.214 27.2651C273.201 27.2631 273.189 27.2588 273.178 27.2522C273.168 27.2456 273.158 27.237 273.151 27.2268C273.143 27.2167 273.138 27.2051 273.135 27.1929C273.132 27.1807 273.131 27.168 273.133 27.1555C273.137 27.1304 273.151 27.1079 273.172 27.0928C273.192 27.0778 273.218 27.0716 273.243 27.0755C273.828 27.167 274.573 27.58 275.457 28.3017C275.859 28.6311 276.243 28.9824 276.607 29.3538C276.62 29.3674 276.629 29.3844 276.632 29.4028C276.635 29.4212 276.633 29.4402 276.626 29.4574C276.619 29.4746 276.607 29.4893 276.591 29.4997C276.575 29.5101 276.557 29.5158 276.538 29.516L276.539 29.5164ZM276.537 29.425C276.538 29.4253 276.539 29.4255 276.54 29.4255C276.54 29.4255 276.541 29.4253 276.542 29.425C276.543 29.4241 276.543 29.423 276.543 29.4219C276.543 29.4207 276.543 29.4196 276.542 29.4188C276.181 29.0498 275.799 28.701 275.4 28.3737C274.528 27.6626 273.799 27.2566 273.23 27.1674C273.23 27.1673 273.229 27.1673 273.229 27.1674C273.228 27.1675 273.227 27.1678 273.227 27.1681C273.226 27.1684 273.226 27.1689 273.226 27.1694C273.225 27.1699 273.225 27.1705 273.225 27.1711C273.225 27.1716 273.225 27.1722 273.225 27.1728C273.225 27.1734 273.225 27.174 273.225 27.1745C273.225 27.175 273.226 27.1753 273.226 27.1756C273.227 27.1759 273.227 27.1761 273.228 27.1761C273.791 27.2642 274.516 27.6672 275.384 28.3742C275.787 28.7029 276.171 29.0536 276.534 29.4247L276.537 29.4261L276.537 29.425ZM276.084 30.1917C276.075 30.1917 276.067 30.1906 276.059 30.1884C276.042 30.1841 276.026 30.1749 276.013 30.1619C275.994 30.1418 274.076 28.1468 272.759 27.9407C272.735 27.9358 272.713 27.9217 272.699 27.9014C272.685 27.8811 272.679 27.8562 272.683 27.8317C272.687 27.8073 272.7 27.7853 272.72 27.7703C272.739 27.7553 272.764 27.7484 272.789 27.7511C273.374 27.8426 274.119 28.2557 275.003 28.9771C275.405 29.3067 275.789 29.6579 276.153 30.0293C276.17 30.0477 276.18 30.0724 276.179 30.0978C276.178 30.1232 276.168 30.1473 276.149 30.1649C276.132 30.1817 276.108 30.1913 276.084 30.1917ZM272.775 27.8415C272.774 27.8415 272.773 27.8418 272.772 27.8425C272.771 27.8432 272.771 27.8441 272.771 27.8451C272.771 27.8457 272.77 27.8463 272.77 27.8469C272.77 27.8474 272.771 27.848 272.771 27.8486C272.771 27.849 272.772 27.8494 272.772 27.8497C272.773 27.85 272.773 27.8501 272.774 27.8502C273.336 27.9385 274.062 28.3415 274.929 29.0482C275.332 29.377 275.716 29.7277 276.08 30.0988C276.081 30.0994 276.081 30.0999 276.082 30.1002C276.083 30.1003 276.084 30.1002 276.085 30.0998C276.086 30.0994 276.086 30.0988 276.087 30.098C276.087 30.0972 276.088 30.0963 276.088 30.0954C276.088 30.0944 276.087 30.0936 276.087 30.0928C275.726 29.7235 275.345 29.3746 274.945 29.0478C274.072 28.3369 273.344 27.9309 272.775 27.8415ZM274.63 29.9524C274.621 29.9524 274.613 29.9513 274.605 29.9492C274.591 29.9456 274.578 29.9389 274.568 29.9298C273.942 29.4057 273.044 28.7571 272.324 28.6441C272.299 28.6392 272.278 28.6251 272.264 28.6048C272.249 28.5844 272.244 28.5594 272.248 28.5349C272.251 28.5104 272.265 28.4884 272.285 28.4734C272.304 28.4584 272.329 28.4516 272.354 28.4545C273.118 28.5741 274.047 29.2431 274.692 29.7831C274.707 29.7958 274.717 29.8128 274.723 29.8318C274.728 29.8508 274.727 29.8709 274.72 29.8894C274.713 29.9079 274.701 29.9239 274.685 29.9351C274.669 29.9464 274.649 29.9524 274.63 29.9524ZM272.339 28.5448C272.338 28.5448 272.337 28.5451 272.336 28.5458C272.335 28.5465 272.335 28.5474 272.334 28.5485C272.334 28.5497 272.335 28.5509 272.335 28.5519C272.336 28.5528 272.337 28.5535 272.338 28.5537C273.08 28.6699 273.991 29.3282 274.627 29.86L274.616 29.9057L274.628 29.8614C274.629 29.8616 274.63 29.8617 274.631 29.8614C274.632 29.8612 274.632 29.8607 274.633 29.86C274.633 29.8596 274.634 29.8591 274.634 29.8586C274.634 29.8581 274.634 29.8575 274.634 29.8569C274.634 29.8563 274.634 29.8558 274.634 29.8552C274.634 29.8547 274.633 29.8542 274.633 29.8538C273.997 29.3213 273.083 28.6619 272.34 28.5455L272.339 28.5448Z" fill="black"/>
<path d="M102.404 38.3254C102.457 38.2947 102.52 38.2851 102.58 38.2986C102.64 38.3121 102.693 38.3477 102.728 38.3982L106.363 43.6691C106.4 43.7224 106.414 43.788 106.402 43.8515C106.39 43.915 106.354 43.9712 106.3 44.0078L98.3386 49.4611C98.2853 49.4976 98.2197 49.5115 98.1561 49.4999C98.0925 49.4883 98.036 49.4521 97.9992 49.3991L94.3486 44.1552C94.317 44.1095 94.3019 44.0543 94.3061 43.9989C94.3102 43.9435 94.3333 43.8912 94.3714 43.8506L94.4117 43.8075C94.4269 43.7911 94.4443 43.7769 94.4634 43.7653L98.3486 41.0789C98.3559 41.0744 98.4337 41.0166 98.4397 41.0109L102.377 38.3424C102.386 38.3362 102.395 38.3305 102.404 38.3254Z" fill="#6F77F4"/>
<path d="M102.482 37.9508C102.536 37.9202 102.598 37.9107 102.658 37.9242C102.718 37.9378 102.771 37.9733 102.806 38.0238L106.442 43.2945C106.46 43.3208 106.473 43.3505 106.479 43.3818C106.486 43.4131 106.486 43.4454 106.481 43.4768C106.475 43.5083 106.463 43.5383 106.445 43.5651C106.428 43.5919 106.405 43.615 106.379 43.6331L98.4169 49.0864C98.3636 49.1229 98.298 49.1369 98.2343 49.1253C98.1707 49.1137 98.1143 49.0774 98.0775 49.0245L94.4269 43.7808C94.3953 43.735 94.3804 43.6798 94.3845 43.6244C94.3887 43.569 94.4116 43.5166 94.4497 43.476L94.49 43.4329C94.5052 43.4166 94.5226 43.4024 94.5416 43.3909L98.426 40.7043C98.4333 40.7 98.5111 40.6419 98.517 40.6362L102.455 37.9678C102.464 37.9616 102.473 37.9559 102.482 37.9508Z" fill="#D6D8F9"/>
<path d="M102.469 37.9587C102.469 37.9587 99.359 39.231 98.5192 40.6412L102.305 46.1305L106.244 43.4326L102.469 37.9587Z" fill="white"/>
<path d="M106.245 43.4327C106.245 43.4327 104.043 44.3135 102.885 45.335C102.528 45.6493 102.306 46.1307 102.306 46.1307L106.245 43.4327Z" fill="#D6D8F9"/>
<path opacity="0.3" d="M100.621 43.2879C100.629 43.288 100.638 43.2869 100.646 43.2848C100.658 43.2814 100.669 43.2757 100.679 43.2679C100.689 43.2601 100.698 43.2504 100.704 43.2394C101.045 42.6496 101.895 42.0825 102.549 41.7099C102.994 41.4567 103.453 41.2285 103.924 41.0264C103.946 41.016 103.964 40.9974 103.973 40.9745C103.982 40.9517 103.981 40.9262 103.972 40.9035C103.962 40.8808 103.944 40.8627 103.922 40.8528C103.899 40.843 103.874 40.8422 103.851 40.8506C103.376 41.054 102.913 41.2835 102.464 41.5379C101.479 42.0973 100.831 42.6378 100.538 43.1443C100.53 43.1588 100.525 43.1752 100.525 43.1918C100.525 43.2085 100.53 43.2249 100.538 43.2394C100.547 43.2538 100.559 43.2659 100.573 43.2742C100.588 43.2826 100.604 43.287 100.621 43.287V43.2879ZM103.887 40.935C103.888 40.9349 103.889 40.9352 103.89 40.9357C103.89 40.9362 103.891 40.9369 103.891 40.9377C103.892 40.9388 103.892 40.9401 103.891 40.9412C103.891 40.9422 103.89 40.9431 103.889 40.9436C103.415 41.1471 102.952 41.3768 102.504 41.6318C101.539 42.1814 100.907 42.7072 100.625 43.1949C100.625 43.1954 100.624 43.1959 100.624 43.1962C100.623 43.1966 100.623 43.1968 100.622 43.197C100.621 43.1973 100.62 43.1973 100.619 43.197C100.618 43.1964 100.617 43.1954 100.617 43.1943C100.616 43.1931 100.616 43.1919 100.617 43.1908C100.902 42.6984 101.538 42.1701 102.509 41.6178C102.955 41.3652 103.414 41.1374 103.886 40.9355L103.887 40.935ZM101.064 43.9299C101.072 43.9299 101.081 43.9289 101.089 43.9267C101.101 43.9233 101.112 43.9176 101.122 43.9098C101.132 43.902 101.14 43.8923 101.147 43.8813C101.488 43.2916 102.338 42.7245 102.992 42.3518C103.437 42.0986 103.896 41.8704 104.367 41.6683C104.378 41.6636 104.389 41.6566 104.398 41.6477C104.406 41.6389 104.414 41.6284 104.418 41.6169C104.423 41.6053 104.426 41.5929 104.426 41.5805C104.426 41.568 104.423 41.5556 104.418 41.544C104.414 41.5325 104.406 41.522 104.398 41.5132C104.389 41.5043 104.378 41.4973 104.367 41.4926C104.355 41.4878 104.343 41.4853 104.33 41.4853C104.318 41.4853 104.305 41.4878 104.294 41.4926C103.819 41.6958 103.356 41.9252 102.907 42.1796C101.922 42.7392 101.274 43.2798 100.981 43.7863C100.973 43.8007 100.968 43.8171 100.968 43.8338C100.968 43.8505 100.973 43.867 100.981 43.8814C100.989 43.8959 101.001 43.9079 101.016 43.9162C101.03 43.9246 101.047 43.929 101.064 43.929L101.064 43.9299ZM101.065 43.8391C101.065 43.8394 101.064 43.8395 101.064 43.8395C101.063 43.8395 101.062 43.8394 101.062 43.8391C101.061 43.8385 101.06 43.8375 101.06 43.8364C101.06 43.8352 101.06 43.834 101.06 43.833C101.345 43.3406 101.981 42.8123 102.952 42.2599C103.398 42.0074 103.857 41.7796 104.329 41.5776C104.329 41.5774 104.33 41.5773 104.33 41.5773C104.331 41.5773 104.331 41.5774 104.332 41.5777C104.333 41.5779 104.333 41.5782 104.333 41.5786C104.334 41.5791 104.334 41.5796 104.334 41.5801C104.335 41.5806 104.335 41.5812 104.335 41.5818C104.335 41.5823 104.335 41.5829 104.334 41.5835C104.334 41.584 104.334 41.5845 104.333 41.5849C104.333 41.5853 104.333 41.5856 104.332 41.5858C103.858 41.7895 103.396 42.0194 102.947 42.2742C101.982 42.8238 101.35 43.3496 101.068 43.8373C101.068 43.8378 101.067 43.8381 101.067 43.8384C101.066 43.8387 101.066 43.8389 101.065 43.8389V43.8391ZM99.7241 41.9707C99.7409 41.9707 99.7574 41.9662 99.7719 41.9578C99.7864 41.9494 99.7985 41.9374 99.8069 41.9229C100.467 40.7794 103.002 39.7203 103.027 39.7099C103.049 39.6996 103.067 39.6811 103.076 39.6582C103.085 39.6352 103.085 39.6097 103.076 39.5869C103.066 39.5642 103.048 39.5459 103.026 39.536C103.003 39.5261 102.977 39.5253 102.954 39.5339C102.48 39.7374 102.016 39.967 101.567 40.2214C100.582 40.7808 99.9344 41.3213 99.6414 41.828C99.6289 41.8499 99.6255 41.8758 99.6321 41.9001C99.6387 41.9244 99.6546 41.9452 99.6765 41.9578C99.6909 41.9663 99.7073 41.9707 99.7241 41.9707ZM102.99 39.6176C102.991 39.6175 102.992 39.6178 102.993 39.6183C102.993 39.6187 102.994 39.6194 102.994 39.6203C102.995 39.6214 102.995 39.6226 102.994 39.6237C102.994 39.6248 102.993 39.6257 102.992 39.6262C102.518 39.8298 102.055 40.0596 101.607 40.3146C100.642 40.864 100.01 41.39 99.7279 41.8777C99.7272 41.8786 99.7263 41.8793 99.7252 41.8798C99.7241 41.8802 99.7229 41.8802 99.7218 41.8798C99.7208 41.8791 99.7201 41.8781 99.7198 41.877C99.7195 41.8759 99.7196 41.8747 99.7202 41.8736C100.005 41.3812 100.641 40.8529 101.612 40.3006C102.058 40.0481 102.517 39.8203 102.989 39.6182L102.99 39.6176ZM99.282 41.2274C99.2904 41.2274 99.2989 41.2262 99.307 41.224C99.3192 41.2206 99.3306 41.2149 99.3405 41.2071C99.3505 41.1993 99.3587 41.1896 99.3648 41.1786C99.7063 40.5889 100.557 40.0218 101.21 39.6493C101.655 39.3962 102.114 39.1679 102.585 38.9656C102.603 38.9585 102.618 38.9463 102.628 38.9307C102.639 38.915 102.644 38.8965 102.644 38.8776C102.644 38.8587 102.639 38.8403 102.628 38.8246C102.618 38.8089 102.603 38.7967 102.585 38.7896C102.573 38.7847 102.561 38.7822 102.549 38.7822C102.536 38.7822 102.524 38.7847 102.512 38.7896C102.038 38.9929 101.575 39.2223 101.126 39.4767C100.141 40.0361 99.4928 40.5766 99.2 41.0833C99.1916 41.0978 99.1872 41.1142 99.1872 41.1309C99.1872 41.1476 99.1916 41.164 99.2 41.1785C99.2083 41.193 99.2204 41.205 99.2349 41.2133C99.2494 41.2217 99.2659 41.226 99.2827 41.226L99.282 41.2274ZM99.2834 41.1367C99.2828 41.1369 99.2822 41.1371 99.2816 41.1371C99.2811 41.1371 99.2805 41.1369 99.2799 41.1367C99.2794 41.1364 99.279 41.136 99.2786 41.1356C99.2782 41.1351 99.278 41.1346 99.2778 41.1341C99.2777 41.1335 99.2776 41.1329 99.2777 41.1324C99.2778 41.1318 99.278 41.1312 99.2783 41.1308C99.5629 40.6381 100.199 40.11 101.17 39.5577C101.616 39.3051 102.076 39.0773 102.547 38.8754C102.547 38.8751 102.548 38.875 102.548 38.875C102.549 38.875 102.549 38.8751 102.55 38.8754C102.55 38.8756 102.551 38.8759 102.551 38.8764C102.552 38.8768 102.552 38.8773 102.552 38.8779C102.553 38.8784 102.553 38.879 102.553 38.8796C102.553 38.8802 102.553 38.8807 102.553 38.8813C102.552 38.8819 102.552 38.8824 102.552 38.8828C102.551 38.8832 102.551 38.8835 102.55 38.8838C102.524 38.8944 99.9628 39.9642 99.2859 41.1353C99.2856 41.1357 99.2852 41.1359 99.2847 41.1361C99.2843 41.1363 99.2838 41.1364 99.2834 41.1364V41.1367ZM100.167 42.6129C100.176 42.613 100.184 42.6119 100.193 42.6097C100.205 42.6064 100.216 42.6007 100.226 42.5929C100.236 42.5851 100.244 42.5754 100.251 42.5643C100.911 41.4202 103.445 40.3618 103.471 40.3514C103.493 40.3411 103.511 40.3226 103.52 40.2996C103.529 40.2767 103.529 40.2512 103.519 40.2284C103.51 40.2056 103.492 40.1874 103.469 40.1775C103.447 40.1676 103.421 40.1668 103.398 40.1753C102.923 40.3787 102.46 40.6083 102.011 40.8629C101.026 41.4222 100.378 41.9628 100.085 42.4693C100.077 42.4837 100.072 42.5001 100.072 42.5168C100.072 42.5335 100.077 42.5499 100.085 42.5643C100.093 42.5788 100.105 42.5908 100.12 42.5992C100.134 42.6075 100.151 42.6119 100.167 42.612V42.6129ZM103.434 40.2599C103.435 40.2599 103.436 40.2602 103.436 40.2606C103.437 40.2611 103.438 40.2618 103.438 40.2627C103.438 40.2632 103.438 40.2638 103.438 40.2644C103.438 40.2649 103.438 40.2655 103.438 40.266C103.438 40.2666 103.438 40.267 103.437 40.2674C103.437 40.2678 103.436 40.2681 103.436 40.2683C102.962 40.4721 102.499 40.7019 102.051 40.9568C101.086 41.5064 100.453 42.0322 100.172 42.5199C100.171 42.5204 100.171 42.5208 100.17 42.5212C100.17 42.5215 100.169 42.5218 100.169 42.5219C100.168 42.5221 100.168 42.5223 100.167 42.5223C100.167 42.5223 100.166 42.5221 100.166 42.5219C100.165 42.5213 100.164 42.5203 100.164 42.5192C100.163 42.5181 100.163 42.5169 100.164 42.5158C100.449 42.0233 101.085 41.495 102.056 40.9427C102.502 40.6901 102.961 40.4623 103.432 40.2604L103.434 40.2599ZM101.507 44.5723C101.515 44.5722 101.524 44.5711 101.532 44.5691C101.544 44.5657 101.556 44.56 101.566 44.5522C101.575 44.5444 101.584 44.5347 101.59 44.5237C102.25 43.3798 104.784 42.3214 104.81 42.3107C104.832 42.3004 104.85 42.2818 104.859 42.2589C104.868 42.236 104.867 42.2105 104.858 42.1878C104.848 42.1652 104.831 42.147 104.808 42.1371C104.785 42.1273 104.76 42.1265 104.737 42.1349C104.262 42.3385 103.799 42.5679 103.35 42.8222C102.365 43.3816 101.717 43.9224 101.424 44.4289C101.412 44.4508 101.408 44.4768 101.415 44.5012C101.422 44.5255 101.438 44.5463 101.46 44.5589C101.474 44.5674 101.49 44.5721 101.507 44.5723ZM101.508 44.4815C101.508 44.4817 101.507 44.4819 101.507 44.4819C101.506 44.4819 101.506 44.4817 101.505 44.4815C101.504 44.4809 101.503 44.48 101.503 44.4788C101.503 44.4777 101.503 44.4764 101.503 44.4754C101.788 43.9829 102.424 43.4546 103.395 42.9023C103.841 42.6497 104.3 42.4219 104.772 42.22C104.773 42.2195 104.774 42.2195 104.775 42.2199C104.776 42.2204 104.777 42.2212 104.778 42.2223C104.778 42.2234 104.778 42.2246 104.777 42.2257C104.777 42.2268 104.776 42.2277 104.775 42.2282C104.301 42.4319 103.839 42.6617 103.39 42.9166C102.425 43.4662 101.793 43.992 101.511 44.4797C101.51 44.4805 101.509 44.4811 101.508 44.4813V44.4815ZM103.168 44.066C103.176 44.0659 103.185 44.0648 103.193 44.0628C103.203 44.0599 103.213 44.0555 103.221 44.0496C104.157 43.4172 105.246 42.9638 105.257 42.9592C105.28 42.9496 105.299 42.9311 105.309 42.9078C105.318 42.8844 105.318 42.8583 105.309 42.8349C105.299 42.8116 105.28 42.7931 105.257 42.7835C105.234 42.7738 105.207 42.7738 105.184 42.7835C105.138 42.8025 104.058 43.2544 103.114 43.892C103.098 43.9034 103.085 43.92 103.078 43.9392C103.071 43.9584 103.071 43.9793 103.077 43.9987C103.083 44.0182 103.095 44.0352 103.111 44.0473C103.128 44.0594 103.148 44.0659 103.168 44.066ZM105.221 42.8669C105.222 42.8669 105.223 42.8672 105.224 42.8677C105.224 42.8681 105.225 42.8688 105.225 42.8697C105.226 42.8708 105.226 42.872 105.225 42.8731C105.225 42.8742 105.224 42.8751 105.223 42.8755C105.212 42.8801 104.114 43.3369 103.171 43.9745H103.17C103.169 43.9748 103.168 43.9748 103.167 43.9745C103.166 43.9741 103.166 43.9735 103.165 43.9727C103.164 43.9719 103.164 43.9708 103.164 43.9697C103.164 43.9685 103.164 43.9674 103.165 43.9666C104.101 43.334 105.207 42.8715 105.218 42.8669H105.221Z" fill="black"/>
<path d="M94.5121 43.4085C94.5121 43.4085 96.8182 40.971 98.4403 40.6951L102.227 46.1845L98.2885 48.8824L94.5121 43.4085Z" fill="white"/>
<path d="M98.2876 48.882C98.2876 48.882 99.902 47.1485 101.274 46.4367C101.696 46.2176 102.227 46.184 102.227 46.184L98.2876 48.882Z" fill="#D6D8F9"/>
<path opacity="0.3" d="M95.4663 43.9639C95.4748 43.9639 95.4833 43.9628 95.4915 43.9605C95.5089 43.9562 95.5247 43.9471 95.5371 43.9342C95.556 43.9143 97.4578 41.9358 98.7642 41.7315C98.7884 41.7266 98.8098 41.7127 98.8239 41.6925C98.838 41.6723 98.8437 41.6475 98.8399 41.6232C98.836 41.5989 98.8229 41.577 98.8032 41.5622C98.7836 41.5473 98.7589 41.5406 98.7344 41.5434C98.1544 41.6342 97.4157 42.0438 96.5393 42.7592C96.1401 43.0859 95.7592 43.4342 95.3984 43.8027C95.3857 43.8161 95.3772 43.833 95.3739 43.8512C95.3706 43.8694 95.3727 43.8881 95.38 43.9052C95.3872 43.9222 95.3993 43.9368 95.4147 43.9471C95.4301 43.9574 95.4482 43.963 95.4667 43.9633L95.4663 43.9639ZM95.4679 43.8732C95.4672 43.8736 95.4665 43.8738 95.4657 43.8738C95.4649 43.8738 95.4642 43.8736 95.4635 43.8732C95.4631 43.8729 95.4627 43.8724 95.4625 43.8719C95.4623 43.8714 95.4622 43.8708 95.4622 43.8703C95.4618 43.8692 95.4618 43.8681 95.4622 43.8671C95.8204 43.5014 96.1985 43.1555 96.5947 42.8309C97.4597 42.1257 98.1824 41.7233 98.7465 41.6344C98.7476 41.6343 98.7488 41.6346 98.7498 41.6353C98.7507 41.636 98.7513 41.6371 98.7515 41.6382C98.7516 41.6394 98.7512 41.6405 98.7506 41.6414C98.7499 41.6423 98.7489 41.643 98.7478 41.6432C98.1899 41.7306 97.4706 42.1302 96.6099 42.8311C96.2105 43.1572 95.8295 43.5051 95.4688 43.8732H95.4679ZM95.9095 44.6063C95.9179 44.6063 95.9264 44.6052 95.9345 44.6029C95.9519 44.5986 95.9677 44.5895 95.98 44.5766C95.9992 44.5567 97.9067 42.5771 99.2072 42.3739C99.2313 42.369 99.2526 42.355 99.2666 42.3349C99.2807 42.3147 99.2864 42.29 99.2826 42.2657C99.2787 42.2415 99.2657 42.2197 99.2462 42.2048C99.2266 42.1899 99.2021 42.1831 99.1776 42.1858C98.5976 42.2765 97.8589 42.6848 96.9823 43.4016C96.5832 43.7284 96.2024 44.0767 95.8416 44.4451C95.8288 44.4585 95.8203 44.4754 95.8169 44.4936C95.8136 44.5119 95.8157 44.5307 95.823 44.5477C95.8302 44.5648 95.8423 44.5794 95.8577 44.5897C95.8732 44.6001 95.8913 44.6057 95.9099 44.6059L95.9095 44.6063ZM95.9108 44.5156C95.9101 44.5158 95.9094 44.5158 95.9086 44.5156C95.9079 44.5154 95.9073 44.515 95.9067 44.5145C95.906 44.5136 95.9056 44.5125 95.9056 44.5114C95.9056 44.5103 95.906 44.5092 95.9067 44.5083C96.2645 44.1421 96.6426 43.7961 97.0392 43.4719C97.9042 42.7667 98.627 42.3643 99.1908 42.2756C99.1914 42.2755 99.192 42.2756 99.1925 42.2757C99.1931 42.2758 99.1936 42.2761 99.1941 42.2764C99.1946 42.2767 99.1949 42.2772 99.1952 42.2777C99.1955 42.2781 99.1957 42.2787 99.1958 42.2793C99.1959 42.2799 99.1959 42.2805 99.1957 42.2811C99.1956 42.2816 99.1953 42.2822 99.195 42.2827C99.1946 42.2832 99.1942 42.2836 99.1937 42.2839C99.1931 42.2842 99.1926 42.2844 99.1919 42.2845C98.6342 42.3716 97.9149 42.7713 97.0542 43.4724C96.6552 43.7988 96.2742 44.1466 95.9131 44.5142C95.9126 44.5148 95.9118 44.5152 95.9111 44.5154L95.9108 44.5156ZM96.3531 45.2485C96.3614 45.2486 96.3697 45.2475 96.3777 45.2453C96.395 45.2409 96.4108 45.2318 96.4232 45.219C96.4421 45.199 98.3438 43.2202 99.6504 43.016C99.6627 43.0141 99.6746 43.0098 99.6853 43.0034C99.6959 42.9969 99.7052 42.9884 99.7125 42.9784C99.7237 42.9632 99.7301 42.9452 99.7309 42.9264C99.7317 42.9077 99.727 42.8891 99.7172 42.873C99.7075 42.857 99.6932 42.8442 99.6762 42.8362C99.6591 42.8282 99.6401 42.8254 99.6215 42.8282C99.0415 42.9189 98.3028 43.3272 97.4264 44.044C97.0274 44.3709 96.6465 44.7192 96.2855 45.0874C96.2681 45.1057 96.2587 45.1302 96.2593 45.1554C96.26 45.1806 96.2706 45.2046 96.2889 45.222C96.3063 45.2385 96.3292 45.2479 96.3531 45.2485ZM99.6342 42.9176C99.6353 42.9176 99.6364 42.9179 99.6372 42.9186C99.6381 42.9194 99.6386 42.9203 99.6388 42.9214C99.639 42.922 99.6391 42.9225 99.6391 42.9231C99.6391 42.9237 99.639 42.9243 99.6388 42.9248C99.6385 42.9253 99.6381 42.9257 99.6376 42.926C99.6371 42.9262 99.6366 42.9264 99.6361 42.9264C99.0779 43.0137 98.3586 43.4134 97.4981 44.1146C97.0987 44.4406 96.7177 44.7884 96.3568 45.1564L96.355 45.1578C96.3543 45.1581 96.3535 45.1582 96.3528 45.1582C96.352 45.1582 96.3513 45.1581 96.3506 45.1578C96.3499 45.1569 96.3495 45.1558 96.3495 45.1547C96.3495 45.1536 96.3499 45.1525 96.3506 45.1516C96.7084 44.7854 97.0865 44.4394 97.4831 44.1152C98.3481 43.41 99.0708 43.0076 99.6349 42.9189L99.6342 42.9176ZM96.7961 45.8909C96.8044 45.8908 96.8127 45.8898 96.8207 45.8877C96.8381 45.8834 96.8538 45.8743 96.8662 45.8614C96.8851 45.8414 98.7877 43.8628 100.093 43.6584C100.106 43.6565 100.118 43.6521 100.128 43.6456C100.139 43.6391 100.148 43.6306 100.156 43.6205C100.163 43.6104 100.168 43.5989 100.171 43.5868C100.174 43.5747 100.175 43.5621 100.173 43.5498C100.171 43.5374 100.167 43.5256 100.16 43.5149C100.153 43.5043 100.145 43.495 100.135 43.4877C100.125 43.4803 100.113 43.475 100.101 43.4721C100.089 43.4692 100.076 43.4686 100.064 43.4706C99.4838 43.5613 98.7451 43.9696 97.8685 44.6864C97.4692 45.0131 97.0884 45.3614 96.7276 45.7298C96.719 45.7389 96.7122 45.7496 96.7077 45.7612C96.7032 45.7729 96.7011 45.7853 96.7014 45.7978C96.7017 45.8103 96.7046 45.8226 96.7097 45.8341C96.7148 45.8455 96.7221 45.8558 96.7312 45.8643C96.7487 45.8811 96.7719 45.8906 96.7961 45.8909ZM96.7961 45.8002C96.7954 45.8004 96.7947 45.8006 96.7939 45.8006C96.7932 45.8006 96.7925 45.8004 96.7918 45.8002C96.791 45.7993 96.7905 45.7982 96.7904 45.797C96.7904 45.7964 96.7905 45.7959 96.7908 45.7953C96.791 45.7948 96.7913 45.7944 96.7918 45.794C97.1499 45.4281 97.5279 45.0821 97.9243 44.7576C98.7893 44.0524 99.512 43.65 100.076 43.5613C100.077 43.5613 100.078 43.5618 100.079 43.5626C100.08 43.5634 100.08 43.5645 100.08 43.5656C100.08 43.5668 100.08 43.5679 100.079 43.5687C100.078 43.5695 100.077 43.5699 100.076 43.5699C99.5179 43.6573 98.7986 44.0569 97.9381 44.7581C97.5388 45.0841 97.1578 45.4319 96.797 45.7999L96.795 45.8013L96.7961 45.8002ZM97.2341 46.5673C97.2425 46.5673 97.251 46.5661 97.2591 46.5639C97.2765 46.5596 97.2923 46.5505 97.3046 46.5376C97.3235 46.5176 99.2252 44.539 100.532 44.3346C100.544 44.3327 100.556 44.3283 100.567 44.3218C100.577 44.3153 100.587 44.3068 100.594 44.2967C100.601 44.2866 100.607 44.2751 100.61 44.263C100.613 44.2509 100.613 44.2383 100.611 44.2259C100.607 44.201 100.594 44.1787 100.573 44.1638C100.553 44.1489 100.527 44.1427 100.502 44.1465C99.9222 44.2373 99.1835 44.6469 98.3069 45.3626C97.9078 45.6893 97.527 46.0377 97.1662 46.406C97.1534 46.4195 97.1449 46.4363 97.1415 46.4546C97.1382 46.4728 97.1403 46.4916 97.1476 46.5087C97.1548 46.5258 97.1669 46.5404 97.1823 46.5507C97.1978 46.561 97.2159 46.5666 97.2345 46.5668L97.2341 46.5673ZM97.2354 46.4766C97.2348 46.4769 97.234 46.4771 97.2333 46.4771C97.2325 46.4771 97.2318 46.4769 97.2311 46.4766C97.2304 46.4757 97.23 46.4746 97.23 46.4735C97.23 46.4724 97.2304 46.4713 97.2311 46.4704C97.5893 46.1046 97.9673 45.7586 98.3636 45.434C99.2286 44.7288 99.9513 44.3262 100.515 44.2377C100.516 44.2376 100.516 44.2376 100.517 44.2377C100.518 44.2378 100.518 44.2381 100.519 44.2384C100.519 44.2388 100.519 44.2392 100.52 44.2397C100.52 44.2402 100.52 44.2408 100.52 44.2414C100.52 44.2419 100.521 44.2425 100.521 44.2431C100.521 44.2437 100.52 44.2442 100.52 44.2448C100.52 44.2452 100.52 44.2456 100.519 44.2459C100.519 44.2461 100.518 44.2463 100.518 44.2464C99.9593 44.3337 99.24 44.7334 98.3795 45.4345C97.9801 45.7605 97.5991 46.1083 97.2384 46.4763L97.2363 46.4777L97.2354 46.4766ZM97.6852 47.2369C97.6935 47.237 97.7018 47.2359 97.7098 47.2337C97.7272 47.2294 97.743 47.2203 97.7554 47.2074C97.7745 47.1875 99.6761 45.209 100.983 45.0047C101.007 44.9998 101.028 44.9858 101.042 44.9657C101.056 44.9455 101.062 44.9208 101.058 44.8965C101.054 44.8723 101.041 44.8505 101.021 44.8356C101.002 44.8207 100.977 44.8139 100.953 44.8166C100.373 44.9073 99.6342 45.317 98.7576 46.0324C98.3586 46.3593 97.9778 46.7076 97.617 47.0759C97.5995 47.0942 97.5901 47.1186 97.5908 47.1438C97.5914 47.169 97.602 47.193 97.6204 47.2104C97.6379 47.227 97.661 47.2365 97.6852 47.2369ZM100.967 44.9062C100.968 44.9062 100.969 44.9066 100.969 44.9072C100.97 44.9079 100.971 44.9088 100.971 44.9098C100.971 44.9104 100.971 44.911 100.971 44.9115C100.971 44.9121 100.971 44.9127 100.971 44.9132C100.971 44.9137 100.97 44.9141 100.97 44.9144C100.969 44.9146 100.969 44.9148 100.968 44.9148C100.41 45.0024 99.6907 45.4021 98.8302 46.103C98.4308 46.429 98.0498 46.7768 97.6889 47.1448C97.6884 47.1455 97.6876 47.1459 97.6868 47.1462C97.6859 47.1463 97.685 47.1462 97.6842 47.1458C97.6834 47.1454 97.6827 47.1448 97.6822 47.144C97.6817 47.1432 97.6815 47.1423 97.6816 47.1414C97.6816 47.1405 97.682 47.1396 97.6825 47.1389C98.0403 46.7727 98.4184 46.4266 98.815 46.1025C99.68 45.3975 100.403 44.9949 100.967 44.9062ZM99.1275 46.9996C99.1359 46.9996 99.1442 46.9985 99.1523 46.9965C99.1659 46.9929 99.1784 46.9863 99.189 46.9772C99.8095 46.4575 100.7 45.8142 101.414 45.7022C101.438 45.6973 101.46 45.6834 101.474 45.6632C101.488 45.643 101.494 45.6182 101.49 45.5939C101.486 45.5696 101.473 45.5477 101.453 45.5329C101.433 45.518 101.409 45.5113 101.384 45.5141C100.627 45.6328 99.7055 46.2962 99.0661 46.8318C99.0511 46.8443 99.0403 46.8612 99.0352 46.88C99.0302 46.8989 99.0311 46.9188 99.0378 46.9372C99.0445 46.9555 99.0567 46.9713 99.0728 46.9825C99.0888 46.9937 99.1079 46.9997 99.1275 46.9996ZM101.399 45.6037C101.4 45.6037 101.401 45.604 101.402 45.6047C101.403 45.6054 101.403 45.6063 101.404 45.6073C101.404 45.6085 101.403 45.6097 101.403 45.6107C101.402 45.6117 101.401 45.6123 101.4 45.6126C100.665 45.7278 99.7608 46.3806 99.1303 46.908L99.1405 46.9534L99.1287 46.9094C99.1279 46.9096 99.127 46.9097 99.1262 46.9094C99.1254 46.9092 99.1246 46.9087 99.1241 46.908C99.1237 46.9076 99.1234 46.9071 99.1232 46.9066C99.1229 46.9061 99.1228 46.9055 99.1228 46.9049C99.1228 46.9044 99.1229 46.9038 99.1232 46.9033C99.1234 46.9028 99.1237 46.9023 99.1241 46.9019C99.7547 46.3738 100.661 45.7199 101.398 45.6044L101.399 45.6037Z" fill="black"/>
</svg>
