<svg width="16" height="17" viewBox="0 0 16 17" fill="none" xmlns="http://www.w3.org/2000/svg">
<g clip-path="url(#clip0_1_130)">
<path d="M8.00007 5.83374C7.47265 5.83374 6.95708 5.99014 6.51854 6.28315C6.08001 6.57617 5.73822 6.99265 5.53639 7.47992C5.33455 7.96719 5.28174 8.50337 5.38464 9.02065C5.48753 9.53793 5.74151 10.0131 6.11445 10.386C6.48739 10.759 6.96254 11.0129 7.47982 11.1158C7.99711 11.2187 8.53328 11.1659 9.02055 10.9641C9.50782 10.7623 9.9243 10.4205 10.2173 9.98193C10.5103 9.5434 10.6667 9.02782 10.6667 8.50041C10.6667 7.79316 10.3858 7.11489 9.88568 6.61479C9.38559 6.11469 8.70731 5.83374 8.00007 5.83374ZM8.00007 9.83374C7.73636 9.83374 7.47857 9.75554 7.2593 9.60903C7.04004 9.46252 6.86914 9.25429 6.76823 9.01065C6.66731 8.76702 6.6409 8.49893 6.69235 8.24029C6.7438 7.98165 6.87079 7.74407 7.05726 7.5576C7.24373 7.37113 7.4813 7.24414 7.73994 7.19269C7.99859 7.14125 8.26667 7.16765 8.51031 7.26857C8.75394 7.36948 8.96218 7.54038 9.10869 7.75965C9.2552 7.97891 9.3334 8.2367 9.3334 8.50041C9.3334 8.85403 9.19292 9.19317 8.94287 9.44322C8.69283 9.69326 8.35369 9.83374 8.00007 9.83374Z" fill="#121212"/>
<path d="M14.196 9.76667L13.9 9.596C14.0333 8.87096 14.0333 8.12771 13.9 7.40267L14.196 7.232C14.4237 7.10068 14.6232 6.92581 14.7832 6.71737C14.9433 6.50894 15.0607 6.27103 15.1288 6.01721C15.1969 5.7634 15.2143 5.49866 15.1801 5.23811C15.1459 4.97755 15.0607 4.72629 14.9294 4.49867C14.798 4.27104 14.6232 4.07151 14.4147 3.91147C14.2063 3.75143 13.9684 3.634 13.7146 3.56591C13.4608 3.49781 13.196 3.48037 12.9355 3.51459C12.6749 3.54881 12.4237 3.63401 12.196 3.76533L11.8994 3.93667C11.3391 3.45795 10.6951 3.08683 10 2.842V2.5C10 1.96957 9.78932 1.46086 9.41425 1.08579C9.03918 0.710714 8.53047 0.5 8.00004 0.5C7.4696 0.5 6.9609 0.710714 6.58582 1.08579C6.21075 1.46086 6.00004 1.96957 6.00004 2.5V2.842C5.30496 3.08771 4.66127 3.45973 4.10137 3.93933L3.80337 3.76667C3.34366 3.50145 2.79742 3.42971 2.28482 3.56724C1.77223 3.70477 1.33525 4.04029 1.07004 4.5C0.80482 4.95971 0.733084 5.50595 0.870611 6.01855C1.00814 6.53114 1.34366 6.96812 1.80337 7.23333L2.09937 7.404C1.96611 8.12904 1.96611 8.87229 2.09937 9.59733L1.80337 9.768C1.34366 10.0332 1.00814 10.4702 0.870611 10.9828C0.733084 11.4954 0.80482 12.0416 1.07004 12.5013C1.33525 12.961 1.77223 13.2966 2.28482 13.4341C2.79742 13.5716 3.34366 13.4999 3.80337 13.2347L4.10004 13.0633C4.66055 13.5421 5.30469 13.9132 6.00004 14.158V14.5C6.00004 15.0304 6.21075 15.5391 6.58582 15.9142C6.9609 16.2893 7.4696 16.5 8.00004 16.5C8.53047 16.5 9.03918 16.2893 9.41425 15.9142C9.78932 15.5391 10 15.0304 10 14.5V14.158C10.6951 13.9123 11.3388 13.5403 11.8987 13.0607L12.1967 13.2327C12.6564 13.4979 13.2026 13.5696 13.7152 13.4321C14.2278 13.2946 14.6648 12.959 14.93 12.4993C15.1953 12.0396 15.267 11.4934 15.1295 10.9808C14.9919 10.4682 14.6564 10.0312 14.1967 9.766L14.196 9.76667ZM12.4974 7.24933C12.7231 8.06738 12.7231 8.93129 12.4974 9.74933C12.458 9.89171 12.4669 10.0432 12.5229 10.1799C12.5789 10.3166 12.6787 10.4308 12.8067 10.5047L13.5294 10.922C13.6826 11.0104 13.7944 11.1561 13.8402 11.3269C13.886 11.4977 13.8621 11.6798 13.7737 11.833C13.6853 11.9862 13.5397 12.098 13.3688 12.1438C13.198 12.1897 13.0159 12.1657 12.8627 12.0773L12.1387 11.6587C12.0106 11.5845 11.8615 11.555 11.7149 11.575C11.5682 11.5949 11.4324 11.663 11.3287 11.7687C10.7353 12.3744 9.98775 12.8067 9.1667 13.0187C9.02339 13.0555 8.89641 13.139 8.80577 13.2559C8.71512 13.3729 8.66596 13.5167 8.66604 13.6647V14.5C8.66604 14.6768 8.5958 14.8464 8.47077 14.9714C8.34575 15.0964 8.17618 15.1667 7.99937 15.1667C7.82256 15.1667 7.65299 15.0964 7.52797 14.9714C7.40294 14.8464 7.3327 14.6768 7.3327 14.5V13.6653C7.33278 13.5174 7.28362 13.3736 7.19297 13.2566C7.10233 13.1397 6.97535 13.0562 6.83204 13.0193C6.01093 12.8065 5.26359 12.3733 4.6707 11.7667C4.56705 11.661 4.43119 11.5929 4.28454 11.573C4.13789 11.553 3.98877 11.5825 3.8607 11.6567L3.13804 12.0747C3.06219 12.1191 2.9783 12.1482 2.89119 12.1601C2.80408 12.172 2.71547 12.1665 2.63047 12.1441C2.54547 12.1216 2.46576 12.0825 2.39592 12.0291C2.32608 11.9757 2.26749 11.909 2.22353 11.8329C2.17957 11.7567 2.1511 11.6727 2.13977 11.5855C2.12844 11.4983 2.13446 11.4097 2.1575 11.3249C2.18053 11.24 2.22012 11.1606 2.27399 11.0911C2.32786 11.0216 2.39494 10.9635 2.47137 10.92L3.19404 10.5027C3.322 10.4288 3.42182 10.3146 3.47781 10.1779C3.5338 10.0412 3.54279 9.88972 3.50337 9.74733C3.27761 8.92929 3.27761 8.06538 3.50337 7.24733C3.54208 7.10525 3.53266 6.95436 3.47658 6.81819C3.4205 6.68203 3.32091 6.56827 3.19337 6.49467L2.4707 6.07733C2.3175 5.98893 2.20568 5.84328 2.15986 5.67244C2.11404 5.50159 2.13796 5.31954 2.22637 5.16633C2.31478 5.01313 2.46042 4.90131 2.63127 4.85549C2.80211 4.80967 2.98416 4.83359 3.13737 4.922L3.86137 5.34067C3.98909 5.41501 4.13789 5.44481 4.28439 5.42538C4.43089 5.40595 4.56678 5.3384 4.6707 5.23333C5.26409 4.62756 6.01165 4.19535 6.8327 3.98333C6.97646 3.94638 7.10377 3.8625 7.19446 3.745C7.28515 3.6275 7.33404 3.48309 7.33337 3.33467V2.5C7.33337 2.32319 7.40361 2.15362 7.52863 2.0286C7.65366 1.90357 7.82323 1.83333 8.00004 1.83333C8.17685 1.83333 8.34642 1.90357 8.47144 2.0286C8.59647 2.15362 8.6667 2.32319 8.6667 2.5V3.33467C8.66663 3.48264 8.71579 3.62643 8.80643 3.74339C8.89708 3.86035 9.02406 3.94382 9.16737 3.98067C9.98871 4.19343 10.7363 4.62659 11.3294 5.23333C11.433 5.33898 11.5689 5.40713 11.7155 5.42704C11.8622 5.44696 12.0113 5.41751 12.1394 5.34333L12.862 4.92533C12.9379 4.88087 13.0218 4.85185 13.1089 4.83993C13.196 4.82802 13.2846 4.83346 13.3696 4.85593C13.4546 4.87841 13.5343 4.91747 13.6042 4.97088C13.674 5.02428 13.7326 5.09097 13.7765 5.16712C13.8205 5.24326 13.849 5.32734 13.8603 5.41453C13.8716 5.50171 13.8656 5.59028 13.8426 5.67513C13.8195 5.75998 13.78 5.83943 13.7261 5.90892C13.6722 5.9784 13.6051 6.03655 13.5287 6.08L12.806 6.49733C12.6787 6.57114 12.5794 6.68498 12.5236 6.82113C12.4678 6.95727 12.4585 7.10807 12.4974 7.25V7.24933Z" fill="#121212"/>
</g>
<defs>
<clipPath id="clip0_1_130">
<rect width="16" height="16" fill="white" transform="translate(0 0.5)"/>
</clipPath>
</defs>
</svg>
