<svg width="16" height="17" viewBox="0 0 16 17" fill="none" xmlns="http://www.w3.org/2000/svg">
<g clip-path="url(#clip0_1_126)">
<path d="M15.0366 9.60796L13.7699 5.05062C13.3987 3.71551 12.5918 2.54281 11.4775 1.71894C10.3632 0.895058 9.00554 0.467281 7.62024 0.503601C6.23494 0.539921 4.90154 1.03825 3.83197 1.91939C2.76241 2.80052 2.01807 4.01389 1.71726 5.36662L0.736597 9.77662C0.628274 10.2639 0.630779 10.7693 0.743926 11.2555C0.857073 11.7417 1.07797 12.1963 1.39032 12.5857C1.70266 12.975 2.09848 13.2893 2.54854 13.5053C2.9986 13.7212 3.49141 13.8333 3.9906 13.8333H4.73326C4.88627 14.5868 5.29508 15.2643 5.89043 15.7509C6.48577 16.2375 7.23103 16.5033 7.99993 16.5033C8.76884 16.5033 9.5141 16.2375 10.1094 15.7509C10.7048 15.2643 11.1136 14.5868 11.2666 13.8333H11.8253C12.3391 13.8333 12.8461 13.7146 13.3064 13.4862C13.7668 13.2579 14.1682 12.9263 14.4791 12.5172C14.7901 12.1081 15.0023 11.6327 15.0991 11.128C15.196 10.6233 15.1748 10.1031 15.0373 9.60796H15.0366ZM7.99993 15.1666C7.58776 15.1649 7.18618 15.0359 6.85013 14.7972C6.51409 14.5586 6.25999 14.2219 6.1226 13.8333H9.87726C9.73988 14.2219 9.48578 14.5586 9.14973 14.7972C8.81368 15.0359 8.4121 15.1649 7.99993 15.1666ZM13.4173 11.71C13.2315 11.9564 12.9908 12.1561 12.7143 12.2933C12.4379 12.4304 12.1332 12.5012 11.8246 12.5H3.9906C3.69112 12.4999 3.39548 12.4326 3.12549 12.303C2.85551 12.1734 2.61807 11.9848 2.43071 11.7512C2.24334 11.5176 2.11084 11.2449 2.04297 10.9532C1.97511 10.6615 1.97361 10.3583 2.0386 10.066L3.0186 5.65529C3.25483 4.59276 3.83947 3.63969 4.67957 2.94759C5.51967 2.25549 6.56701 1.86407 7.65511 1.83557C8.74321 1.80706 9.80962 2.1431 10.6848 2.79027C11.56 3.43744 12.1937 4.35859 12.4853 5.40729L13.7519 9.96462C13.8356 10.2615 13.849 10.5739 13.7909 10.8768C13.7328 11.1798 13.6049 11.4651 13.4173 11.71Z" fill="white"/>
</g>
<defs>
<clipPath id="clip0_1_126">
<rect width="16" height="16" fill="white" transform="translate(0 0.5)"/>
</clipPath>
</defs>
</svg>
