<svg width="16" height="17" viewBox="0 0 16 17" fill="none" xmlns="http://www.w3.org/2000/svg">
<g clip-path="url(#clip0_1_122)">
<path d="M11.6667 1.77768C10.916 1.78936 10.1816 1.99891 9.53783 2.38519C8.89404 2.77147 8.36357 3.32079 7.99999 3.97768C7.63642 3.32079 7.10595 2.77147 6.46215 2.38519C5.81835 1.99891 5.08403 1.78936 4.33333 1.77768C3.13662 1.82967 2.00913 2.35318 1.19718 3.23383C0.385232 4.11449 -0.0451745 5.2807 -7.46106e-06 6.47768C-7.46106e-06 9.50901 3.19066 12.8197 5.86666 15.0643C6.46414 15.5664 7.21956 15.8417 7.99999 15.8417C8.78042 15.8417 9.53585 15.5664 10.1333 15.0643C12.8093 12.8197 16 9.50901 16 6.47768C16.0452 5.2807 15.6148 4.11449 14.8028 3.23383C13.9909 2.35318 12.8634 1.82967 11.6667 1.77768ZM9.27666 14.0443C8.91931 14.3453 8.46716 14.5103 7.99999 14.5103C7.53282 14.5103 7.08067 14.3453 6.72333 14.0443C3.29799 11.1703 1.33333 8.41301 1.33333 6.47768C1.28775 5.63416 1.57757 4.80683 2.13957 4.17615C2.70157 3.54546 3.49015 3.16258 4.33333 3.11101C5.1765 3.16258 5.96509 3.54546 6.52708 4.17615C7.08908 4.80683 7.3789 5.63416 7.33333 6.47768C7.33333 6.65449 7.40356 6.82406 7.52859 6.94908C7.65361 7.07411 7.82318 7.14435 7.99999 7.14435C8.1768 7.14435 8.34637 7.07411 8.4714 6.94908C8.59642 6.82406 8.66666 6.65449 8.66666 6.47768C8.62109 5.63416 8.9109 4.80683 9.4729 4.17615C10.0349 3.54546 10.8235 3.16258 11.6667 3.11101C12.5098 3.16258 13.2984 3.54546 13.8604 4.17615C14.4224 4.80683 14.7122 5.63416 14.6667 6.47768C14.6667 8.41301 12.702 11.1703 9.27666 14.0417V14.0443Z" fill="#121212"/>
</g>
<defs>
<clipPath id="clip0_1_122">
<rect width="16" height="16" fill="white" transform="translate(0 0.5)"/>
</clipPath>
</defs>
</svg>
