<svg width="18" height="23" viewBox="0 0 18 23" fill="none" xmlns="http://www.w3.org/2000/svg">
<path d="M9 11.25C9.61875 11.25 10.1486 11.0295 10.5896 10.5885C11.0306 10.1475 11.2507 9.618 11.25 9C11.25 8.38125 11.0295 7.85138 10.5885 7.41038C10.1475 6.96938 9.618 6.74925 9 6.75C8.38125 6.75 7.85138 6.9705 7.41037 7.4115C6.96937 7.8525 6.74925 8.382 6.75 9C6.75 9.61875 6.9705 10.1486 7.4115 10.5896C7.8525 11.0306 8.382 11.2508 9 11.25ZM9 22.5C5.98125 19.9313 3.72675 17.5455 2.2365 15.3428C0.74625 13.14 0.00075 11.1008 0 9.225C0 6.4125 0.904875 4.17188 2.71463 2.50313C4.52437 0.834375 6.6195 0 9 0C11.3812 0 13.4767 0.834375 15.2865 2.50313C17.0962 4.17188 18.0007 6.4125 18 9.225C18 11.1 17.2545 13.1393 15.7635 15.3428C14.2725 17.5463 12.018 19.932 9 22.5Z" fill="#544C4C"/>
</svg>
