<svg width="109" height="109" viewBox="0 0 109 109" fill="none" xmlns="http://www.w3.org/2000/svg">
<g clip-path="url(#clip0_777_8548)">
<path d="M33.2078 43.6577C26.8283 46.3757 21.0858 50.2618 16.1393 55.2083C15.4742 55.8736 14.6024 56.2061 13.7308 56.2061C12.8593 56.2061 11.9875 55.8736 11.3224 55.2085C9.99227 53.8782 9.99206 51.7216 11.3224 50.3914C16.888 44.8258 23.3529 40.4518 30.5377 37.3904C32.2683 36.6532 34.2693 37.4583 35.0065 39.1889C35.7437 40.9195 34.9386 42.9202 33.2078 43.6577ZM23.9353 27.9875C23.061 26.3218 21.0021 25.6804 19.336 26.5547C12.5951 30.0934 6.42508 34.6394 0.997643 40.0667C-0.33271 41.397 -0.33271 43.5536 0.997643 44.8837C1.66271 45.549 2.53429 45.8816 3.40607 45.8816C4.27765 45.8816 5.14944 45.5488 5.81451 44.8839C10.7557 39.943 16.3703 35.8054 22.5021 32.5867C24.168 31.7122 24.8095 29.6531 23.9353 27.9875ZM46.6218 51.1025C46.1358 49.2852 44.2702 48.2053 42.4511 48.6919C34.6097 50.7891 27.4157 54.9466 21.6468 60.7158C20.3164 62.0459 20.3164 64.2027 21.6468 65.5328C22.3118 66.1979 23.1836 66.5305 24.0552 66.5305C24.9268 66.5305 25.7985 66.1979 26.4636 65.5328C31.3874 60.6091 37.5243 57.0613 44.2108 55.273C46.0285 54.7872 47.1078 52.9199 46.6218 51.1025ZM108.002 40.0667C97.836 29.9005 85.0809 22.8732 71.1157 19.7443C58.0964 16.8275 44.5674 17.3904 31.873 21.3587L17.4454 6.93087C16.1152 5.60052 13.9584 5.60052 12.6283 6.93087C11.2979 8.26101 11.2979 10.4178 12.6283 11.7479L93.9293 93.0487C94.5944 93.714 95.4661 94.0466 96.3377 94.0466C97.2093 94.0466 98.0811 93.714 98.7462 93.0487C100.077 91.7186 100.077 89.5618 98.7462 88.2317L66.1994 55.6847C72.3186 57.5705 77.9282 60.925 82.5362 65.5328C83.2013 66.1981 84.0731 66.5307 84.9447 66.5307C85.8162 66.5307 86.688 66.1981 87.3531 65.5328C88.6835 64.2027 88.6835 62.0459 87.3531 60.7158C79.4095 52.7722 68.927 48.0054 57.7394 47.2251L50.0174 39.5029C65.8365 38.1847 81.4784 43.8261 92.8606 55.2085C93.5257 55.8738 94.3972 56.2063 95.269 56.2063C96.1408 56.2063 97.0124 55.8736 97.6774 55.2087C99.0078 53.8784 99.0078 51.7218 97.6774 50.3916C83.5424 36.2561 63.5741 29.9854 43.9387 33.4249L37.3817 26.8679C60.9562 20.789 85.7647 27.4642 103.185 44.8842C103.85 45.5492 104.722 45.8818 105.593 45.8818C106.465 45.8818 107.337 45.5492 108.002 44.8839C109.333 43.5536 109.333 41.3968 108.002 40.0667ZM57.6706 65.0879C57.6553 63.2068 56.1244 61.7017 54.2365 61.7098C45.8264 61.7789 37.9193 65.0926 31.9713 71.0403C30.641 72.3707 30.641 74.5273 31.9713 75.8574C32.6364 76.5227 33.508 76.8552 34.3797 76.8552C35.2515 76.8552 36.1231 76.5225 36.7882 75.8576C41.4643 71.1817 47.6807 68.5765 54.2925 68.522C56.1736 68.5065 57.6862 66.969 57.6706 65.0879ZM63.768 80.6919C66.2437 83.1674 67.6069 86.4589 67.6069 89.9599C67.6069 93.4609 66.2437 96.7524 63.768 99.2279C61.2131 101.783 57.8558 103.061 54.5 103.061C51.1432 103.061 47.7876 101.783 45.2321 99.2277C42.7563 96.7522 41.3932 93.4609 41.3932 89.9597C41.3932 86.4587 42.7563 83.1674 45.2321 80.6917C50.3423 75.5813 58.6578 75.5813 63.768 80.6919ZM60.7944 89.9599C60.7944 88.2787 60.1397 86.698 58.9509 85.509C57.7236 84.2819 56.1118 83.6684 54.5 83.6684C52.8882 83.6684 51.2762 84.2819 50.0491 85.509C48.8603 86.6978 48.2057 88.2785 48.2057 89.9599C48.2057 91.6413 48.8603 93.2218 50.0491 94.4106C52.5035 96.8648 56.4965 96.8648 58.9509 94.4106C60.1397 93.2218 60.7944 91.6411 60.7944 89.9599Z" fill="#C3C3C2"/>
</g>
<defs>
<clipPath id="clip0_777_8548">
<rect width="109" height="109" fill="white"/>
</clipPath>
</defs>
</svg>
