<svg width="17" height="22" viewBox="0 0 17 22" fill="none" xmlns="http://www.w3.org/2000/svg">
<path d="M3.47222 21.0037H-0.666046C-1.55027 21.0037 -2.39827 20.6525 -3.02351 20.0272C-3.64875 19.402 -4 18.554 -4 17.6698V13.5023C-4 12.6181 -3.64875 11.7701 -3.02351 11.1449C-2.39827 10.5196 -1.55027 10.1684 -0.666046 10.1684H6.71616C7.16725 10.1686 7.61064 10.2852 8.00343 10.507C8.39622 10.7288 8.7251 11.0483 8.95825 11.4344L11.6396 8.48806C11.8614 8.24417 12.129 8.04639 12.4273 7.906C12.7256 7.76562 13.0486 7.6854 13.3779 7.66991C13.7071 7.65443 14.0363 7.704 14.3464 7.81578C14.6565 7.92756 14.9415 8.09936 15.1852 8.32136C15.6715 8.76805 15.9629 9.3878 15.9967 10.0472C16.0305 10.7066 15.8041 11.3529 15.3661 11.847L9.69838 18.2124C8.91583 19.09 7.95662 19.7924 6.88363 20.2735C5.81065 20.7545 4.64811 21.0034 3.47222 21.0037ZM-0.666046 11.8354C-1.10816 11.8354 -1.53216 12.011 -1.84478 12.3236C-2.1574 12.6362 -2.33302 13.0602 -2.33302 13.5023V17.6698C-2.33302 18.1119 -2.1574 18.5359 -1.84478 18.8485C-1.53216 19.1611 -1.10816 19.3367 -0.666046 19.3367H3.47222C4.41233 19.3364 5.34175 19.1373 6.19956 18.7527C7.05737 18.368 7.82421 17.8064 8.44982 17.1047L14.1217 10.7385C14.269 10.5726 14.3452 10.3555 14.334 10.134C14.3227 9.91249 14.225 9.70423 14.0617 9.55409C13.8957 9.40483 13.678 9.3262 13.4549 9.33489C13.3443 9.33956 13.2358 9.36622 13.1356 9.4133C13.0354 9.46038 12.9456 9.52695 12.8715 9.6091L9.18245 13.669C9.02049 14.1173 8.73988 14.5131 8.37055 14.8143C8.00122 15.1155 7.55703 15.3108 7.0854 15.3793L2.78376 15.9945C2.56492 16.0258 2.34257 15.969 2.16563 15.8365C1.98868 15.7039 1.87164 15.5065 1.84025 15.2877C1.80886 15.0688 1.8657 14.8465 1.99825 14.6695C2.1308 14.4926 2.32821 14.3755 2.54705 14.3442L6.84952 13.7299C7.08834 13.6965 7.30559 13.5737 7.45738 13.3863C7.60916 13.1989 7.68416 12.9609 7.66723 12.7204C7.6503 12.4798 7.54269 12.2546 7.36615 12.0904C7.18962 11.9261 6.95731 11.835 6.71616 11.8354H-0.666046ZM5.16837 8.56308C4.7906 8.56409 4.42385 8.43586 4.12901 8.19967C2.70208 7.05446 1.00093 5.33414 1.00093 3.66716C0.980467 2.98234 1.23204 2.31728 1.70063 1.81746C2.16922 1.31763 2.81668 1.02371 3.5014 1C4.1243 1.00243 4.72193 1.24656 5.16837 1.68096C5.61481 1.24656 6.21245 1.00243 6.83535 1C7.52007 1.02371 8.16753 1.31763 8.63612 1.81746C9.1047 2.31728 9.35628 2.98234 9.33582 3.66716C9.33582 5.33414 7.63467 7.05446 6.2069 8.20051C5.91218 8.43621 5.54576 8.56414 5.16837 8.56308ZM3.5014 2.66698C3.25914 2.69128 3.0361 2.80969 2.88024 2.99673C2.72437 3.18376 2.64813 3.4245 2.66791 3.66716C2.66791 4.4173 3.62725 5.6592 5.17337 6.90027C6.70949 5.6592 7.66884 4.4173 7.66884 3.66716C7.68861 3.4245 7.61237 3.18376 7.45651 2.99673C7.30064 2.80969 7.0776 2.69128 6.83535 2.66698C6.5931 2.69128 6.37006 2.80969 6.21419 2.99673C6.05833 3.18376 5.98209 3.4245 6.00186 3.66716C6.00186 3.88822 5.91405 4.10022 5.75774 4.25653C5.60143 4.41284 5.38943 4.50065 5.16837 4.50065C4.94732 4.50065 4.73532 4.41284 4.57901 4.25653C4.4227 4.10022 4.33488 3.88822 4.33488 3.66716C4.35466 3.4245 4.27842 3.18376 4.12255 2.99673C3.96669 2.80969 3.74365 2.69128 3.5014 2.66698Z" fill="#121212" stroke="black"/>
</svg>
