<svg width="30" height="30" viewBox="0 0 30 30" fill="none" xmlns="http://www.w3.org/2000/svg">
<circle cx="15" cy="15" r="14" stroke="#6F77F4" stroke-width="2"/>
<path fill-rule="evenodd" clip-rule="evenodd" d="M14.7146 8.25C16.7869 8.25 19.1109 9.7107 19.3735 12.0577V13.2808C19.4632 13.7209 19.6718 14.1326 19.9722 14.4674C19.9904 14.4883 20.0073 14.5093 20.0194 14.5336C20.2942 14.9474 20.4521 15.4246 20.4757 15.9173L20.4575 16.0415C20.4784 16.7165 20.2543 17.378 19.8217 17.9005C19.2736 18.4938 18.5223 18.8657 17.715 18.942C15.7244 19.158 13.7149 19.158 11.7271 18.942C10.9306 18.8603 10.1928 18.4884 9.65481 17.9005C9.21673 17.3861 8.98521 16.7273 9.00073 16.055V15.9706C9.03516 15.4644 9.20391 14.9737 9.49348 14.5518L9.54141 14.491C9.84178 14.1535 10.0477 13.7452 10.1401 13.3044V12.0813L10.1712 12.0125C10.2745 11.8383 10.4695 11.7384 10.6747 11.7593C10.9042 11.7857 11.0919 11.9598 11.1283 12.1866V13.4104V13.4759C11.0021 14.0901 10.7173 14.6598 10.3008 15.1269C10.1401 15.3821 10.0504 15.6723 10.0369 15.9706V16.1023C10.024 16.5215 10.1638 16.9325 10.4324 17.2599C10.8043 17.6419 11.3025 17.8769 11.8351 17.9241C13.7602 18.1327 15.7042 18.1327 17.6306 17.9241C18.1794 17.8742 18.689 17.6291 19.0623 17.2309C19.3181 16.9116 19.4504 16.5134 19.4396 16.1077V15.9706C19.4261 15.6696 19.3397 15.38 19.1811 15.1215C18.7491 14.6571 18.4453 14.0874 18.3083 13.4704C18.3056 13.4495 18.3056 13.4259 18.3083 13.405V12.1758C18.1342 10.383 16.3312 9.2706 14.7619 9.2706C14.095 9.2706 13.4382 9.43935 12.8584 9.76335L12.7868 9.80048C12.6397 9.85853 12.4736 9.84773 12.3339 9.76875C12.1726 9.67358 12.0727 9.5001 12.0781 9.31515C12.0828 9.12818 12.1888 8.95943 12.3548 8.87505C13.0744 8.4687 13.8864 8.2554 14.7146 8.25ZM15.8458 20.1097C16.0328 19.941 16.3203 19.9309 16.5208 20.0969C16.7395 20.2758 16.7712 20.6005 16.589 20.8165C16.1408 21.399 15.4482 21.7419 14.7091 21.75L14.5613 21.7446C13.8809 21.6946 13.2511 21.3598 12.8346 20.8165L12.7894 20.7557C12.6605 20.5424 12.7023 20.2603 12.9028 20.0969C13.1215 19.9147 13.4489 19.9464 13.6305 20.1651C13.7101 20.2711 13.8046 20.3629 13.9126 20.4418C14.1975 20.6531 14.5559 20.7429 14.9069 20.6902C15.2606 20.6376 15.5765 20.4499 15.7884 20.1651H15.7932L15.8458 20.1097Z" fill="#6F77F4"/>
<path d="M19.3735 12.0577H19.4439L19.443 12.0499L19.3735 12.0577ZM19.3735 13.2808H19.302L19.3049 13.2948L19.3735 13.2808ZM19.9722 14.4674L20.025 14.4214L20.0243 14.4207L19.9722 14.4674ZM20.0194 14.5336L19.9563 14.5651L19.9611 14.5723L20.0194 14.5336ZM20.4757 15.9173L20.5463 15.9277L20.5457 15.914L20.4757 15.9173ZM20.4575 16.0415L20.3872 16.0312L20.3875 16.0437L20.4575 16.0415ZM19.8217 17.9005L19.8732 17.948L19.8756 17.9451L19.8217 17.9005ZM17.715 18.942L17.7084 18.8723L17.7074 18.8724L17.715 18.942ZM11.7271 18.942L11.7346 18.8724L11.7342 18.8724L11.7271 18.942ZM9.65481 17.9005L9.60148 17.9459L9.60317 17.9477L9.65481 17.9005ZM9.00073 16.055L9.07073 16.0566V16.055H9.00073ZM9.00073 15.9706L8.93073 15.9659V15.9706H9.00073ZM9.49348 14.5518L9.4384 14.5083L9.43577 14.5122L9.49348 14.5518ZM9.54141 14.491L9.48903 14.4444L9.48645 14.4477L9.54141 14.491ZM10.1401 13.3044L10.2086 13.3188L10.2101 13.3117V13.3044H10.1401ZM10.1401 12.0813L10.0763 12.0525L10.0701 12.0662V12.0813H10.1401ZM10.1712 12.0125L10.1106 11.9765L10.1074 11.9837L10.1712 12.0125ZM10.6747 11.7593L10.6827 11.6898L10.6818 11.6897L10.6747 11.7593ZM11.1283 12.1866H11.1992L11.1974 12.1755L11.1283 12.1866ZM11.1283 13.4759L11.1969 13.4899L11.1983 13.483V13.4759H11.1283ZM10.3008 15.1269L10.2478 15.0797L10.2415 15.0896L10.3008 15.1269ZM10.0369 15.9706L9.96686 15.9675V15.9706H10.0369ZM10.0369 16.1023L10.1069 16.1044V16.1023H10.0369ZM10.4324 17.2599L10.3781 17.3045L10.3823 17.3087L10.4324 17.2599ZM11.8351 17.9241L11.8426 17.8545L11.8412 17.8544L11.8351 17.9241ZM17.6306 17.9241L17.6243 17.8544L17.6231 17.8545L17.6306 17.9241ZM19.0623 17.2309L19.1135 17.2789L19.1169 17.2746L19.0623 17.2309ZM19.4396 16.1077H19.3696L19.3696 16.1095L19.4396 16.1077ZM19.4396 15.9706H19.5097L19.5095 15.9675L19.4396 15.9706ZM19.1811 15.1215L19.2419 15.0842L19.2323 15.0738L19.1811 15.1215ZM18.3083 13.4704L18.2386 13.4794L18.24 13.4856L18.3083 13.4704ZM18.3083 13.405L18.3783 13.414V13.405H18.3083ZM18.3083 12.1758H18.3786L18.378 12.169L18.3083 12.1758ZM12.8584 9.76335L12.8906 9.82551L12.8925 9.82446L12.8584 9.76335ZM12.7868 9.80048L12.8126 9.86594L12.819 9.86261L12.7868 9.80048ZM12.3339 9.76875L12.2983 9.82905L12.2994 9.82969L12.3339 9.76875ZM12.0781 9.31515L12.148 9.31719L12.148 9.31692L12.0781 9.31515ZM12.3548 8.87505L12.3865 8.93752L12.3892 8.936L12.3548 8.87505ZM15.8458 20.1097L15.7988 20.0576L15.7951 20.0615L15.8458 20.1097ZM16.5208 20.0969L16.4762 20.1508L16.4765 20.1511L16.5208 20.0969ZM16.589 20.8165L16.5354 20.7713L16.5335 20.7738L16.589 20.8165ZM14.7091 21.75L14.7066 21.82L14.7099 21.82L14.7091 21.75ZM14.5613 21.7446L14.5562 21.8145L14.5587 21.8145L14.5613 21.7446ZM12.8346 20.8165L12.7785 20.8583L12.7791 20.859L12.8346 20.8165ZM12.7894 20.7557L12.7292 20.7921L12.7333 20.7975L12.7894 20.7557ZM12.9028 20.0969L12.947 20.1512L12.9476 20.1507L12.9028 20.0969ZM13.6305 20.1651L13.6865 20.123L13.6843 20.1204L13.6305 20.1651ZM13.9126 20.4418L13.9543 20.3856L13.9539 20.3853L13.9126 20.4418ZM14.9069 20.6902L14.8966 20.621L14.8965 20.621L14.9069 20.6902ZM15.7884 20.1651V20.0951H15.7533L15.7323 20.1233L15.7884 20.1651ZM15.7932 20.1651V20.2351H15.8232L15.8439 20.2133L15.7932 20.1651ZM14.7146 8.32C16.7621 8.32 19.0464 9.76379 19.3039 12.0655L19.443 12.0499C19.1754 9.65761 16.8116 8.18 14.7146 8.18V8.32ZM19.3035 12.0577V13.2808H19.4435V12.0577H19.3035ZM19.3049 13.2948C19.3972 13.7472 19.6115 14.1702 19.9201 14.5142L20.0243 14.4207C19.7321 14.095 19.5293 13.6946 19.442 13.2668L19.3049 13.2948ZM19.9194 14.5134C19.937 14.5336 19.9489 14.549 19.9568 14.5649L20.082 14.5023C20.0657 14.4696 20.0438 14.4431 20.025 14.4215L19.9194 14.5134ZM19.9611 14.5723C20.2289 14.9757 20.3828 15.4407 20.4058 15.9207L20.5457 15.914C20.5214 15.4084 20.3594 14.919 20.0777 14.4949L19.9611 14.5723ZM20.4065 15.9072L20.3882 16.0314L20.5268 16.0517L20.545 15.9275L20.4065 15.9072ZM20.3875 16.0437C20.4079 16.7018 20.1894 17.3466 19.7677 17.8558L19.8756 17.9451C20.3192 17.4094 20.5489 16.7312 20.5275 16.0394L20.3875 16.0437ZM19.7702 17.853C19.2339 18.4336 18.4986 18.7977 17.7084 18.8723L17.7216 19.0117C18.546 18.9338 19.3133 18.554 19.8731 17.948L19.7702 17.853ZM17.7074 18.8724C15.7219 19.0879 13.7175 19.0879 11.7346 18.8724L11.7195 19.0116C13.7124 19.2281 15.7269 19.2281 17.7225 19.0116L17.7074 18.8724ZM11.7342 18.8724C10.9548 18.7924 10.2328 18.4285 9.70645 17.8532L9.60317 17.9477C10.1527 18.5483 10.9063 18.9282 11.7199 19.0116L11.7342 18.8724ZM9.7081 17.8551C9.28125 17.3539 9.05558 16.7119 9.07071 16.0566L8.93075 16.0534C8.91483 16.7428 9.15221 17.4183 9.60152 17.9459L9.7081 17.8551ZM9.07073 16.055V15.9706H8.93073V16.055H9.07073ZM9.07057 15.9754C9.10416 15.4815 9.26878 15.0029 9.5512 14.5914L9.43577 14.5122C9.13904 14.9445 8.96616 15.4473 8.93089 15.9659L9.07057 15.9754ZM9.54844 14.5952L9.59637 14.5344L9.48645 14.4477L9.43853 14.5084L9.54844 14.5952ZM9.5937 14.5376C9.90218 14.191 10.1137 13.7715 10.2086 13.3188L10.0716 13.29C9.98166 13.7188 9.78138 14.1161 9.48912 14.4445L9.5937 14.5376ZM10.2101 13.3044V12.0813H10.0701V13.3044H10.2101ZM10.2039 12.1101L10.235 12.0412L10.1074 11.9837L10.0763 12.0525L10.2039 12.1101ZM10.2314 12.0482C10.3208 11.8974 10.4897 11.8108 10.6676 11.829L10.6818 11.6897C10.4494 11.666 10.2281 11.7792 10.111 11.9767L10.2314 12.0482ZM10.6668 11.8289C10.8662 11.8517 11.0279 12.003 11.0592 12.1977L11.1974 12.1755C11.1558 11.9166 10.9423 11.7196 10.6827 11.6898L10.6668 11.8289ZM11.0583 12.1866V13.4104H11.1983V12.1866H11.0583ZM11.0583 13.4104V13.4759H11.1983V13.4104H11.0583ZM11.0598 13.4618C10.936 14.064 10.6567 14.6225 10.2485 15.0803L10.353 15.1735C10.7778 14.6971 11.0682 14.1162 11.1969 13.4899L11.0598 13.4618ZM10.2415 15.0896C10.0744 15.3551 9.98097 15.6571 9.96693 15.9675L10.1068 15.9738C10.1197 15.6875 10.2059 15.409 10.36 15.1642L10.2415 15.0896ZM9.96686 15.9706V16.1023H10.1069V15.9706H9.96686ZM9.96689 16.1001C9.95355 16.5363 10.0989 16.9639 10.3783 17.3043L10.4865 17.2155C10.2286 16.9012 10.0945 16.5066 10.1068 16.1044L9.96689 16.1001ZM10.3823 17.3087C10.766 17.7029 11.2798 17.9451 11.8289 17.9938L11.8412 17.8544C11.3252 17.8086 10.8427 17.581 10.4826 17.2111L10.3823 17.3087ZM11.8275 17.9937C13.7576 18.2028 15.7067 18.2028 17.6381 17.9937L17.6231 17.8545C15.7016 18.0625 13.7627 18.0625 11.8426 17.8545L11.8275 17.9937ZM17.637 17.9938C18.2024 17.9423 18.7281 17.6898 19.1134 17.2787L19.0112 17.183C18.6499 17.5684 18.1564 17.806 17.6243 17.8544L17.637 17.9938ZM19.1169 17.2746C19.3832 16.9424 19.5208 16.5279 19.5096 16.1058L19.3696 16.1095C19.38 16.4988 19.2531 16.8808 19.0077 17.1871L19.1169 17.2746ZM19.5096 16.1077V15.9706H19.3696V16.1077H19.5096ZM19.5095 15.9675C19.4955 15.655 19.4057 15.3538 19.2407 15.0849L19.1214 15.1581C19.2737 15.4062 19.3567 15.6842 19.3697 15.9738L19.5095 15.9675ZM19.2323 15.0738C18.8086 14.6183 18.5109 14.0598 18.3766 13.4553L18.24 13.4856C18.3798 14.115 18.6896 14.6959 19.1298 15.1692L19.2323 15.0738ZM18.3777 13.4615C18.3758 13.4465 18.3758 13.4289 18.3777 13.4139L18.2389 13.396C18.2354 13.4229 18.2354 13.4525 18.2389 13.4794L18.3777 13.4615ZM18.3783 13.405V12.1758H18.2383V13.405H18.3783ZM18.378 12.169C18.1993 10.3293 16.355 9.2006 14.7619 9.2006V9.3406C16.3075 9.3406 18.069 10.4367 18.2386 12.1826L18.378 12.169ZM14.7619 9.2006C14.0832 9.2006 13.4146 9.37232 12.8242 9.70224L12.8925 9.82446C13.4617 9.50638 14.1067 9.3406 14.7619 9.3406V9.2006ZM12.8261 9.70122L12.7546 9.73834L12.819 9.86261L12.8906 9.82548L12.8261 9.70122ZM12.7611 9.73536C12.6335 9.78569 12.4896 9.77635 12.3683 9.70781L12.2994 9.82969C12.4576 9.9191 12.6458 9.93136 12.8125 9.86559L12.7611 9.73536ZM12.3695 9.70846C12.229 9.62559 12.1434 9.47539 12.148 9.31719L12.0081 9.31311C12.0019 9.52481 12.1161 9.72156 12.2983 9.82904L12.3695 9.70846ZM12.148 9.31692C12.1521 9.15546 12.2436 9.01009 12.3865 8.93746L12.3231 8.81264C12.1339 8.90876 12.0134 9.10089 12.0081 9.31338L12.148 9.31692ZM12.3892 8.936C13.0983 8.5356 13.8986 8.32532 14.7151 8.32L14.7142 8.18C13.8742 8.18548 13.0505 8.4018 12.3204 8.8141L12.3892 8.936ZM15.8927 20.1617C16.0541 20.016 16.3027 20.0072 16.4762 20.1508L16.5655 20.043C16.338 19.8546 16.0115 19.866 15.7989 20.0578L15.8927 20.1617ZM16.4765 20.1511C16.6653 20.3055 16.6923 20.5855 16.5355 20.7713L16.6425 20.8616C16.8502 20.6154 16.8138 20.2461 16.5651 20.0427L16.4765 20.1511ZM16.5335 20.7738C16.0986 21.3391 15.4263 21.6721 14.7084 21.68L14.7099 21.82C15.4702 21.8117 16.183 21.4589 16.6445 20.8592L16.5335 20.7738ZM14.7117 21.68L14.5639 21.6746L14.5587 21.8145L14.7066 21.8199L14.7117 21.68ZM14.5664 21.6748C13.9056 21.6263 13.2943 21.3012 12.8902 20.7739L12.7791 20.859C13.2079 21.4185 13.8562 21.763 14.5562 21.8144L14.5664 21.6748ZM12.8908 20.7747L12.8456 20.7139L12.7333 20.7975L12.7785 20.8583L12.8908 20.7747ZM12.8493 20.7195C12.7379 20.5352 12.7744 20.2919 12.947 20.1512L12.8586 20.0426C12.6303 20.2287 12.5831 20.5496 12.7295 20.7919L12.8493 20.7195ZM12.9476 20.1507C13.1363 19.9935 13.4195 20.0206 13.5766 20.2098L13.6843 20.1204C13.4783 19.8722 13.1067 19.8359 12.858 20.0431L12.9476 20.1507ZM13.5745 20.2071C13.6585 20.319 13.7581 20.4155 13.8713 20.4983L13.9539 20.3853C13.8512 20.3102 13.7617 20.2232 13.6864 20.123L13.5745 20.2071ZM13.8709 20.4981C14.1707 20.7204 14.5478 20.8149 14.9173 20.7595L14.8965 20.621C14.5639 20.6709 14.2243 20.5858 13.9543 20.3856L13.8709 20.4981ZM14.9172 20.7595C15.289 20.7041 15.6215 20.5068 15.8446 20.2069L15.7323 20.1233C15.5315 20.3931 15.2322 20.571 14.8966 20.621L14.9172 20.7595ZM15.7884 20.2351H15.7932V20.0951H15.7884V20.2351ZM15.8439 20.2133L15.8965 20.158L15.7951 20.0615L15.7425 20.1168L15.8439 20.2133Z" fill="#6F77F4"/>
</svg>
