<svg width="20" height="24" viewBox="0 0 20 24" fill="none" xmlns="http://www.w3.org/2000/svg">
<path d="M17.9504 5.53602L14.4644 2.05002C13.816 1.3981 13.0447 0.881247 12.1952 0.529367C11.3457 0.177487 10.4349 -0.00243056 9.51538 2.47961e-05H5.00039C3.6748 0.00161265 2.40395 0.528906 1.46661 1.46624C0.529278 2.40358 0.00198458 3.67443 0.000396729 5.00002V19C0.00198458 20.3256 0.529278 21.5964 1.46661 22.5338C2.40395 23.4711 3.6748 23.9984 5.00039 24H15.0004C16.326 23.9984 17.5968 23.4711 18.5342 22.5338C19.4715 21.5964 19.9988 20.3256 20.0004 19V10.485C20.0028 9.56553 19.8229 8.65469 19.471 7.8052C19.1192 6.95571 18.6023 6.18444 17.9504 5.53602ZM16.5364 6.95002C16.8414 7.26443 17.104 7.61743 17.3174 8.00002H13.0004C12.7352 8.00002 12.4808 7.89466 12.2933 7.70712C12.1057 7.51959 12.0004 7.26523 12.0004 7.00002V2.68302C12.383 2.89641 12.736 3.15897 13.0504 3.46402L16.5364 6.95002ZM18.0004 19C18.0004 19.7957 17.6843 20.5587 17.1217 21.1213C16.5591 21.6839 15.796 22 15.0004 22H5.00039C4.20474 22 3.44168 21.6839 2.87907 21.1213C2.31646 20.5587 2.00039 19.7957 2.00039 19V5.00002C2.00039 4.20437 2.31646 3.44131 2.87907 2.8787C3.44168 2.31609 4.20474 2.00002 5.00039 2.00002H9.51538C9.68038 2.00002 9.83838 2.03202 10.0004 2.04702V7.00002C10.0004 7.79567 10.3165 8.55873 10.8791 9.12134C11.4417 9.68394 12.2047 10 13.0004 10H17.9534C17.9684 10.162 18.0004 10.32 18.0004 10.485V19ZM14.7244 13.311C14.907 13.5031 15.0059 13.7598 14.9993 14.0248C14.9927 14.2897 14.8813 14.5412 14.6894 14.724L11.1004 18.138C10.5362 18.6933 9.77547 19.0031 8.98388 18.9999C8.1923 18.9967 7.43406 18.6808 6.87439 18.121L5.33439 16.747C5.13627 16.5704 5.01644 16.3223 5.00125 16.0573C4.99373 15.9261 5.01212 15.7947 5.05539 15.6706C5.09865 15.5465 5.16593 15.4321 5.25339 15.334C5.34085 15.2359 5.44678 15.156 5.56512 15.0988C5.68346 15.0417 5.8119 15.0084 5.94311 15.0009C6.2081 14.9857 6.46827 15.0764 6.66639 15.253L8.25139 16.667C8.34212 16.7689 8.45275 16.8512 8.57646 16.9087C8.70018 16.9662 8.83435 16.9979 8.97074 17.0016C9.10713 17.0054 9.24284 16.9811 9.36953 16.9305C9.49621 16.8798 9.61119 16.8038 9.70738 16.707L13.3074 13.276C13.4026 13.185 13.5148 13.1137 13.6376 13.0662C13.7605 13.0186 13.8915 12.9958 14.0232 12.9991C14.1548 13.0023 14.2845 13.0316 14.4049 13.0851C14.5252 13.1386 14.6338 13.2154 14.7244 13.311Z" fill="#121212"/>
</svg>
