<svg width="15" height="16" viewBox="0 0 15 16" fill="none" xmlns="http://www.w3.org/2000/svg">
<g clip-path="url(#clip0_1_257)">
<path d="M11.875 2.01467C11.875 2.00933 11.875 2.00533 11.875 2V0.666667C11.875 0.489856 11.8091 0.320286 11.6919 0.195262C11.5747 0.0702379 11.4158 0 11.25 0C11.0842 0 10.9253 0.0702379 10.8081 0.195262C10.6908 0.320286 10.625 0.489856 10.625 0.666667V1.4C10.4193 1.35544 10.2099 1.33311 9.99999 1.33333H9.37499V0.666667C9.37499 0.489856 9.30914 0.320286 9.19193 0.195262C9.07472 0.0702379 8.91575 0 8.74999 0C8.58423 0 8.42526 0.0702379 8.30805 0.195262C8.19084 0.320286 8.12499 0.489856 8.12499 0.666667V1.33333H6.87499V0.666667C6.87499 0.489856 6.80914 0.320286 6.69193 0.195262C6.57472 0.0702379 6.41575 0 6.24999 0C6.08423 0 5.92526 0.0702379 5.80805 0.195262C5.69084 0.320286 5.62499 0.489856 5.62499 0.666667V1.33333H4.99999C4.79009 1.33311 4.5807 1.35544 4.37499 1.4V0.666667C4.37499 0.489856 4.30914 0.320286 4.19193 0.195262C4.07472 0.0702379 3.91575 0 3.74999 0C3.58423 0 3.42526 0.0702379 3.30805 0.195262C3.19084 0.320286 3.12499 0.489856 3.12499 0.666667V2V2.01467C2.73798 2.32292 2.42355 2.72303 2.2066 3.18332C1.98964 3.64362 1.87611 4.15147 1.87499 4.66667V12.6667C1.87598 13.5504 2.20554 14.3976 2.79138 15.0225C3.37722 15.6474 4.1715 15.9989 4.99999 16H9.99999C10.8285 15.9989 11.6228 15.6474 12.2086 15.0225C12.7944 14.3976 13.124 13.5504 13.125 12.6667V4.66667C13.1239 4.15147 13.0103 3.64362 12.7934 3.18332C12.5764 2.72303 12.262 2.32292 11.875 2.01467ZM11.875 12.6667C11.875 13.1971 11.6774 13.7058 11.3258 14.0809C10.9742 14.456 10.4973 14.6667 9.99999 14.6667H4.99999C4.50271 14.6667 4.0258 14.456 3.67417 14.0809C3.32254 13.7058 3.12499 13.1971 3.12499 12.6667V4.66667C3.12499 4.13623 3.32254 3.62753 3.67417 3.25245C4.0258 2.87738 4.50271 2.66667 4.99999 2.66667H9.99999C10.4973 2.66667 10.9742 2.87738 11.3258 3.25245C11.6774 3.62753 11.875 4.13623 11.875 4.66667V12.6667ZM10.625 5.33333C10.625 5.51014 10.5591 5.67971 10.4419 5.80474C10.3247 5.92976 10.1658 6 9.99999 6H4.99999C4.83423 6 4.67526 5.92976 4.55805 5.80474C4.44084 5.67971 4.37499 5.51014 4.37499 5.33333C4.37499 5.15652 4.44084 4.98695 4.55805 4.86193C4.67526 4.7369 4.83423 4.66667 4.99999 4.66667H9.99999C10.1658 4.66667 10.3247 4.7369 10.4419 4.86193C10.5591 4.98695 10.625 5.15652 10.625 5.33333ZM10.625 8C10.625 8.17681 10.5591 8.34638 10.4419 8.47141C10.3247 8.59643 10.1658 8.66667 9.99999 8.66667H4.99999C4.83423 8.66667 4.67526 8.59643 4.55805 8.47141C4.44084 8.34638 4.37499 8.17681 4.37499 8C4.37499 7.82319 4.44084 7.65362 4.55805 7.5286C4.67526 7.40357 4.83423 7.33333 4.99999 7.33333H9.99999C10.1658 7.33333 10.3247 7.40357 10.4419 7.5286C10.5591 7.65362 10.625 7.82319 10.625 8ZM8.12499 10.6667C8.12499 10.8435 8.05914 11.013 7.94193 11.1381C7.82472 11.2631 7.66575 11.3333 7.49999 11.3333H4.99999C4.83423 11.3333 4.67526 11.2631 4.55805 11.1381C4.44084 11.013 4.37499 10.8435 4.37499 10.6667C4.37499 10.4899 4.44084 10.3203 4.55805 10.1953C4.67526 10.0702 4.83423 10 4.99999 10H7.49999C7.66575 10 7.82472 10.0702 7.94193 10.1953C8.05914 10.3203 8.12499 10.4899 8.12499 10.6667Z" fill="#6F77F4"/>
</g>
<defs>
<clipPath id="clip0_1_257">
<rect width="15" height="16" fill="white"/>
</clipPath>
</defs>
</svg>
