<svg width="25" height="30" viewBox="0 0 25 30" fill="none" xmlns="http://www.w3.org/2000/svg">
<path d="M23.75 5H19.875C19.5849 3.58927 18.8173 2.32168 17.7016 1.4109C16.5859 0.500113 15.1903 0.00181816 13.75 0H11.25C9.80974 0.00181816 8.41415 0.500113 7.29844 1.4109C6.18272 2.32168 5.41512 3.58927 5.125 5H1.25C0.918479 5 0.600537 5.1317 0.366116 5.36612C0.131696 5.60054 0 5.91848 0 6.25C0 6.58152 0.131696 6.89946 0.366116 7.13388C0.600537 7.3683 0.918479 7.5 1.25 7.5H2.5V23.75C2.50198 25.407 3.1611 26.9956 4.33277 28.1672C5.50445 29.3389 7.09301 29.998 8.75 30H16.25C17.907 29.998 19.4956 29.3389 20.6672 28.1672C21.8389 26.9956 22.498 25.407 22.5 23.75V7.5H23.75C24.0815 7.5 24.3995 7.3683 24.6339 7.13388C24.8683 6.89946 25 6.58152 25 6.25C25 5.91848 24.8683 5.60054 24.6339 5.36612C24.3995 5.1317 24.0815 5 23.75 5ZM11.25 2.5H13.75C14.5253 2.50095 15.2814 2.74172 15.9145 3.1893C16.5476 3.63689 17.0268 4.26937 17.2863 5H7.71375C7.97323 4.26937 8.45238 3.63689 9.08548 3.1893C9.71859 2.74172 10.4747 2.50095 11.25 2.5ZM20 23.75C20 24.7446 19.6049 25.6984 18.9016 26.4017C18.1984 27.1049 17.2446 27.5 16.25 27.5H8.75C7.75544 27.5 6.80161 27.1049 6.09835 26.4017C5.39509 25.6984 5 24.7446 5 23.75V7.5H20V23.75Z" fill="white"/>
<path d="M10.0001 22.4992C10.3316 22.4992 10.6496 22.3675 10.884 22.1331C11.1184 21.8987 11.2501 21.5807 11.2501 21.2492V13.7492C11.2501 13.4177 11.1184 13.0998 10.884 12.8653C10.6496 12.6309 10.3316 12.4992 10.0001 12.4992C9.66858 12.4992 9.35064 12.6309 9.11622 12.8653C8.8818 13.0998 8.7501 13.4177 8.7501 13.7492V21.2492C8.7501 21.5807 8.8818 21.8987 9.11622 22.1331C9.35064 22.3675 9.66858 22.4992 10.0001 22.4992Z" fill="white"/>
<path d="M14.9999 22.4992C15.3315 22.4992 15.6494 22.3675 15.8838 22.1331C16.1182 21.8987 16.2499 21.5807 16.2499 21.2492V13.7492C16.2499 13.4177 16.1182 13.0998 15.8838 12.8653C15.6494 12.6309 15.3315 12.4992 14.9999 12.4992C14.6684 12.4992 14.3505 12.6309 14.116 12.8653C13.8816 13.0998 13.7499 13.4177 13.7499 13.7492V21.2492C13.7499 21.5807 13.8816 21.8987 14.116 22.1331C14.3505 22.3675 14.6684 22.4992 14.9999 22.4992Z" fill="white"/>
</svg>
