<svg width="17" height="16" viewBox="0 0 17 16" fill="none" xmlns="http://www.w3.org/2000/svg">
<g clip-path="url(#clip0_1_156)">
<path d="M0.537758 15.9983L1.66338 11.8923C0.969633 10.688 0.60307 9.3267 0.60307 7.92608C0.60307 3.55421 4.16338 -0.00204468 8.5312 -0.00204468C10.6518 -0.00204468 12.6415 0.822643 14.1424 2.32358C15.639 3.82014 16.4637 5.81421 16.4637 7.93046C16.4637 12.3023 12.9034 15.8586 8.53557 15.8586H8.5312C7.20463 15.8586 5.90026 15.527 4.74401 14.8942L0.537758 15.9983ZM4.93588 13.4633L5.17588 13.6073C6.18807 14.2095 7.3487 14.5236 8.5312 14.528H8.53557C12.1703 14.528 15.124 11.5739 15.124 7.93952C15.124 6.17671 14.439 4.52295 13.1956 3.27952C11.9521 2.03608 10.2984 1.34671 8.53557 1.34671C4.90088 1.34671 1.94276 4.30077 1.94276 7.93514C1.94276 9.17858 2.29182 10.3917 2.95057 11.4433L3.10776 11.692L2.44026 14.1223L4.93588 13.4633Z" fill="white"/>
<path d="M0.812447 15.7233L1.89901 11.757C1.22713 10.5964 0.878072 9.27859 0.878072 7.93047C0.878072 3.71109 4.31182 0.277344 8.5312 0.277344C10.5774 0.277344 12.5018 1.07578 13.9459 2.52016C15.3903 3.96891 16.1887 5.88859 16.1843 7.93484C16.1843 12.1542 12.7506 15.588 8.5312 15.588H8.52682C7.24401 15.588 5.98745 15.2652 4.87057 14.6586L0.812447 15.7233Z" fill="url(#paint0_linear_1_156)"/>
<path d="M0.537758 15.9983L1.66338 11.8923C0.969633 10.688 0.60307 9.3267 0.60307 7.92608C0.60307 3.55421 4.16338 -0.00204468 8.5312 -0.00204468C10.6518 -0.00204468 12.6415 0.822643 14.1424 2.32358C15.639 3.82014 16.4637 5.81421 16.4637 7.93046C16.4637 12.3023 12.9034 15.8586 8.53557 15.8586H8.5312C7.20463 15.8586 5.90026 15.527 4.74401 14.8942L0.537758 15.9983ZM4.93588 13.4633L5.17588 13.6073C6.18807 14.2095 7.3487 14.5236 8.5312 14.528H8.53557C12.1703 14.528 15.124 11.5739 15.124 7.93952C15.124 6.17671 14.439 4.52295 13.1956 3.27952C11.9521 2.03608 10.2984 1.34671 8.53557 1.34671C4.90088 1.34671 1.94276 4.30077 1.94276 7.93514C1.94276 9.17858 2.29182 10.3917 2.95057 11.4433L3.10776 11.692L2.44026 14.1223L4.93588 13.4633Z" fill="white"/>
<path d="M6.55026 4.61452C6.40182 4.28296 6.24494 4.27859 6.10526 4.27421C5.99182 4.26984 5.85651 4.26984 5.72557 4.26984C5.59463 4.26984 5.38088 4.31796 5.19776 4.51859C5.01463 4.71484 4.50401 5.19484 4.50401 6.17234C4.50401 7.14546 5.21526 8.08765 5.31119 8.22296C5.41151 8.3539 6.68119 10.4176 8.69713 11.2117C10.3728 11.8705 10.7131 11.7395 11.0749 11.7092C11.4371 11.6742 12.2487 11.2292 12.4143 10.7667C12.5803 10.3042 12.5803 9.90702 12.5278 9.82421C12.4796 9.7414 12.3446 9.69327 12.1481 9.59296C11.9518 9.49265 10.9743 9.01265 10.7956 8.94734C10.6124 8.88202 10.4815 8.84702 10.3506 9.04765C10.2196 9.2439 9.83994 9.69327 9.72213 9.82421C9.60869 9.95515 9.49088 9.97265 9.29463 9.87234C9.09838 9.77203 8.45682 9.56265 7.70213 8.89046C7.11307 8.36702 6.71619 7.71671 6.59838 7.52046C6.48494 7.32421 6.58526 7.21515 6.68557 7.11484C6.77276 7.02765 6.88182 6.88359 6.98213 6.76577C7.08244 6.64796 7.11307 6.56952 7.17838 6.43421C7.24369 6.30327 7.21338 6.18546 7.16088 6.08515C7.11307 5.98452 6.72901 5.00734 6.55026 4.61452Z" fill="white"/>
</g>
<defs>
<linearGradient id="paint0_linear_1_156" x1="8.4984" y1="15.7234" x2="8.4984" y2="0.277528" gradientUnits="userSpaceOnUse">
<stop stop-color="#20B038"/>
<stop offset="1" stop-color="#60D66A"/>
</linearGradient>
<clipPath id="clip0_1_156">
<rect width="16" height="16" fill="white" transform="translate(0.5)"/>
</clipPath>
</defs>
</svg>
